<svg width="220" height="220" viewBox="0 0 220 220" fill="none" xmlns="http://www.w3.org/2000/svg">
<path d="M63.4205 152.48L106.848 103.652C105.203 101.892 102.958 100.975 100.686 100.975C99.138 100.975 97.58 101.402 96.1939 102.277C96.1939 102.277 85.5358 109.081 81.9426 111.286C75.9806 114.943 62.6512 118.074 54.0386 109.635C46.1565 101.909 50.8462 81.6643 53.5175 72.8708C55.0742 67.7413 59.6876 52.332 59.6876 52.332C60.8836 48.3554 58.8459 44.1208 54.998 42.5852L19.7019 126.947L7.68359 155.675C11.8897 160.751 17.6551 165.742 24.5623 169.965C30.1364 173.374 35.8139 175.894 41.1746 177.488L63.4205 152.479V152.48Z" fill="#F9604C"/>
<path d="M106.542 81.8593L96.5312 70.7598V99.5876L106.472 88.9939C107.387 88.0186 107.898 86.7281 107.898 85.3883C107.898 84.0836 107.414 82.8255 106.543 81.8593H106.542Z" fill="#6369D2"/>
<path d="M104.634 85.4895C104.634 87.4557 104.125 89.348 103.208 90.7798L99.8077 96.0961L96.5312 99.5876V70.7598L99.2814 73.8089L103.278 80.3107C104.151 81.7296 104.633 83.5752 104.633 85.4895H104.634Z" fill="#6369D2"/>
<path d="M45.2498 71.633C45.0338 75.3579 44.9356 80.9958 45.5303 86.7582C44.0201 90.0863 42.3056 93.3183 40.4192 96.4466C36.9022 102.279 32.8138 107.774 28.1836 112.766L39.5878 41.8467C43.6878 42.4329 46.6604 46.067 46.4316 50.2147C46.4316 50.2147 45.5614 66.279 45.2498 71.633Z" fill="#F9604C"/>
<path d="M93.9325 103.152C103.695 93.3592 103.695 77.4821 93.9325 67.6895C84.1699 57.8968 68.3416 57.8968 58.5791 67.6895C48.8165 77.4821 48.8165 93.3592 58.5791 103.152C68.3417 112.944 84.1699 112.944 93.9325 103.152Z" fill="#6369D2"/>
<path d="M76.2582 110.804C62.3056 110.804 50.9531 99.4176 50.9531 85.4206C50.9531 71.4237 62.3043 60.0376 76.2582 60.0376C90.2122 60.0376 101.563 71.4237 101.563 85.4206C101.563 99.4176 90.2122 110.804 76.2582 110.804ZM76.2582 60.6511C62.643 60.6511 51.5647 71.7622 51.5647 85.4206C51.5647 99.0791 62.6417 110.19 76.2582 110.19C89.8747 110.19 100.952 99.0791 100.952 85.4206C100.952 71.7622 89.8747 60.6511 76.2582 60.6511Z" fill="#6369D2"/>
<path d="M92.3112 101.523C101.177 92.63 101.177 78.2114 92.3112 69.3183C83.4454 60.4251 69.0711 60.4251 60.2053 69.3183C51.3395 78.2114 51.3395 92.6299 60.2053 101.523C69.0711 110.416 83.4454 110.416 92.3112 101.523Z" fill="#272623"/>
<path d="M76.257 107.447C64.1482 107.447 54.2969 97.5658 54.2969 85.4197C54.2969 73.2736 64.1482 63.3906 76.257 63.3906C88.3658 63.3906 98.2184 73.2723 98.2184 85.4197C98.2184 97.5671 88.3671 107.447 76.257 107.447ZM76.257 64.0054C64.4856 64.0054 54.9085 73.6121 54.9085 85.4197C54.9085 97.2273 64.4856 106.834 76.257 106.834C88.0284 106.834 97.6056 97.2273 97.6056 85.4197C97.6056 73.6121 88.0284 64.0054 76.257 64.0054Z" fill="#272623"/>
<path d="M91.57 100.78C100.027 92.2976 100.027 78.5442 91.57 70.0613C83.1132 61.5785 69.402 61.5785 60.9452 70.0613C52.4884 78.5442 52.4884 92.2976 60.9452 100.78C69.402 109.263 83.1132 109.263 91.57 100.78Z" fill="#272623"/>
<mask id="mask0_363_881" style="mask-type:luminance" maskUnits="userSpaceOnUse" x="54" y="63" width="44" height="45">
<path d="M91.5778 100.78C100.035 92.2971 100.035 78.5437 91.5778 70.0609C83.121 61.578 69.4098 61.578 60.953 70.0609C52.4962 78.5437 52.4962 92.2971 60.953 100.78C69.4098 109.263 83.121 109.263 91.5778 100.78Z" fill="white"/>
</mask>
<g mask="url(#mask0_363_881)">
<path d="M45.082 84.6215C45.082 84.6215 58.6274 96.481 75.338 96.481C92.0486 96.481 105.594 84.6215 105.594 84.6215C105.594 84.6215 92.0486 72.762 75.338 72.762C58.6274 72.762 45.082 84.6215 45.082 84.6215Z" fill="#6369D2"/>
<path d="M45.082 84.6217C45.082 84.6217 58.6274 96.4812 75.338 96.4812C92.0486 96.4812 105.594 84.6217 105.594 84.6217C105.594 84.6217 92.0486 72.7622 75.338 72.7622C58.6274 72.7622 45.082 84.6217 45.082 84.6217Z" fill="white"/>
<mask id="mask1_363_881" style="mask-type:luminance" maskUnits="userSpaceOnUse" x="45" y="72" width="61" height="25">
<path d="M45.0859 84.6217C45.0859 84.6217 58.6313 96.4812 75.3419 96.4812C92.0525 96.4812 105.598 84.6217 105.598 84.6217C105.598 84.6217 92.0525 72.7622 75.3419 72.7622C58.6313 72.7622 45.0859 84.6217 45.0859 84.6217Z" fill="white"/>
</mask>
<g mask="url(#mask1_363_881)">
<path d="M76.2687 97.7354C83.489 97.7354 89.3421 91.8642 89.3421 84.6217C89.3421 77.3793 83.489 71.5081 76.2687 71.5081C69.0485 71.5081 63.1953 77.3793 63.1953 84.6217C63.1953 91.8642 69.0485 97.7354 76.2687 97.7354Z" fill="#272623"/>
<path d="M78.3977 91.6832C82.2799 90.5045 84.4744 86.3922 83.2994 82.4981C82.1243 78.604 78.0247 76.4027 74.1425 77.5814C70.2604 78.7601 68.0658 82.8724 69.2409 86.7665C70.4159 90.6606 74.5156 92.8619 78.3977 91.6832Z" fill="#272623"/>
</g>
</g>
<path d="M63.423 152.48C69.2686 160.286 71.3193 168.097 68.0571 173.464C64.1199 179.941 53.4799 181.146 41.1797 177.487L63.423 152.48Z" fill="#6369D2"/>
<path d="M7.68739 155.676C0.707831 147.252 -1.979 138.589 1.54957 132.785C4.51568 127.905 11.2871 126.019 19.7057 126.949L7.68868 155.676H7.68739Z" fill="#6369D2"/>
<path d="M156.576 152.48L113.148 103.652C114.793 101.892 117.039 100.975 119.311 100.975C120.859 100.975 122.417 101.402 123.803 102.277C123.803 102.277 134.461 109.081 138.054 111.286C144.016 114.943 157.345 118.074 165.958 109.635C173.84 101.909 169.15 81.6643 166.479 72.8708C164.922 67.7413 160.309 52.332 160.309 52.332C159.113 48.3554 161.151 44.1208 164.999 42.5852L200.295 126.947L212.313 155.675C208.107 160.751 202.341 165.742 195.434 169.965C189.86 173.374 184.183 175.894 178.822 177.488L156.576 152.479V152.48Z" fill="#F9604C"/>
<path d="M113.442 81.8602L123.453 70.7607V99.5886L113.512 88.9949C112.597 88.0196 112.086 86.7291 112.086 85.3893C112.086 84.0845 112.57 82.8265 113.441 81.8602H113.442Z" fill="#6369D2"/>
<path d="M115.355 85.4905C115.355 87.4567 115.865 89.349 116.782 90.7808L120.182 96.0971L123.459 99.5886V70.7607L120.708 73.8099L116.712 80.3116C115.839 81.7305 115.357 83.5761 115.357 85.4905H115.355Z" fill="#6369D2"/>
<path d="M172.198 68.7863C172.414 72.5112 172.512 78.1491 171.917 83.9116C173.428 87.2396 175.142 90.4716 177.029 93.5999C180.546 99.4324 184.634 104.928 189.264 109.92L177.86 39C173.76 39.5862 170.787 43.2203 171.016 47.3681C171.016 47.3681 171.886 63.4324 172.198 68.7863Z" fill="#F9604C"/>
<path d="M161.417 103.15C171.179 93.3575 171.179 77.4804 161.417 67.6878C151.654 57.8951 135.826 57.8951 126.063 67.6878C116.301 77.4804 116.301 93.3575 126.063 103.15C135.826 112.943 151.654 112.943 161.417 103.15Z" fill="#6369D2"/>
<path d="M143.739 110.803C129.786 110.803 118.434 99.4168 118.434 85.4199C118.434 71.423 129.785 60.0369 143.739 60.0369C157.693 60.0369 169.044 71.423 169.044 85.4199C169.044 99.4168 157.693 110.803 143.739 110.803ZM143.739 60.6503C130.124 60.6503 119.045 71.7615 119.045 85.4199C119.045 99.0783 130.122 110.189 143.739 110.189C157.355 110.189 168.432 99.0783 168.432 85.4199C168.432 71.7615 157.355 60.6503 143.739 60.6503Z" fill="#6369D2"/>
<path d="M159.796 101.522C168.661 92.6287 168.661 78.2101 159.796 69.317C150.93 60.4239 136.555 60.4239 127.69 69.317C118.824 78.2101 118.824 92.6287 127.69 101.522C136.555 110.415 150.93 110.415 159.796 101.522Z" fill="#272623"/>
<path d="M143.741 107.448C131.633 107.448 121.781 97.5668 121.781 85.4207C121.781 73.2745 131.633 63.3916 143.741 63.3916C155.85 63.3916 165.703 73.2732 165.703 85.4207C165.703 97.5681 155.852 107.448 143.741 107.448ZM143.741 64.0064C131.97 64.0064 122.393 73.613 122.393 85.4207C122.393 97.2283 131.97 106.835 143.741 106.835C155.513 106.835 165.09 97.2283 165.09 85.4207C165.09 73.613 155.513 64.0064 143.741 64.0064Z" fill="#272623"/>
<path d="M159.058 100.78C167.515 92.2971 167.515 78.5437 159.058 70.0609C150.601 61.578 136.89 61.578 128.433 70.0609C119.977 78.5437 119.977 92.2971 128.433 100.78C136.89 109.263 150.601 109.263 159.058 100.78Z" fill="#272623"/>
<mask id="mask2_363_881" style="mask-type:luminance" maskUnits="userSpaceOnUse" x="122" y="63" width="44" height="45">
<path d="M159.062 100.78C167.519 92.2976 167.519 78.5442 159.062 70.0614C150.605 61.5785 136.894 61.5785 128.437 70.0613C119.981 78.5442 119.981 92.2976 128.437 100.78C136.894 109.263 150.605 109.263 159.062 100.78Z" fill="white"/>
</mask>
<g mask="url(#mask2_363_881)">
<path d="M174.926 84.6232C174.926 84.6232 161.381 96.4827 144.67 96.4827C127.959 96.4827 114.414 84.6232 114.414 84.6232C114.414 84.6232 127.959 72.7637 144.67 72.7637C161.381 72.7637 174.926 84.6232 174.926 84.6232Z" fill="#272623"/>
<path d="M174.926 84.6232C174.926 84.6232 161.381 96.4827 144.67 96.4827C127.959 96.4827 114.414 84.6232 114.414 84.6232C114.414 84.6232 127.959 72.7637 144.67 72.7637C161.381 72.7637 174.926 84.6232 174.926 84.6232Z" fill="white"/>
<mask id="mask3_363_881" style="mask-type:luminance" maskUnits="userSpaceOnUse" x="114" y="72" width="61" height="25">
<path d="M174.934 84.6239C174.934 84.6239 161.388 96.4834 144.678 96.4834C127.967 96.4834 114.422 84.6239 114.422 84.6239C114.422 84.6239 127.967 72.7644 144.678 72.7644C161.388 72.7644 174.934 84.6239 174.934 84.6239Z" fill="white"/>
</mask>
<g mask="url(#mask3_363_881)">
<path d="M143.745 97.7379C150.966 97.7379 156.819 91.8667 156.819 84.6242C156.819 77.3817 150.966 71.5105 143.745 71.5105C136.525 71.5105 130.672 77.3817 130.672 84.6242C130.672 91.8667 136.525 97.7379 143.745 97.7379Z" fill="#272623"/>
<path d="M150.525 87.4421C152.077 83.6833 150.298 79.3739 146.551 77.8169C142.803 76.26 138.507 78.0449 136.955 81.8038C135.403 85.5627 137.182 89.872 140.93 91.429C144.677 92.986 148.973 91.201 150.525 87.4421Z" fill="#272623"/>
</g>
</g>
<path d="M156.574 152.48C150.728 160.287 148.678 168.097 151.94 173.464C155.877 179.941 166.517 181.146 178.817 177.487L156.574 152.48Z" fill="#6369D2"/>
<path d="M212.311 155.676C219.291 147.252 221.978 138.589 218.449 132.785C215.483 127.905 208.712 126.019 200.293 126.949L212.31 155.676H212.311Z" fill="#6369D2"/>
<path d="M116.713 83.2817H102.633V87.0702H116.713V83.2817Z" fill="#6369D2"/>
</svg>
