<svg width="220" height="220" viewBox="0 0 220 220" fill="none" xmlns="http://www.w3.org/2000/svg">
<g clip-path="url(#clip0_399_396)">
<mask id="mask0_399_396" style="mask-type:luminance" maskUnits="userSpaceOnUse" x="15" y="13" width="190" height="192">
<path d="M205 13H15V204.56H205V13Z" fill="white"/>
</mask>
<g mask="url(#mask0_399_396)">
<path d="M85 27.7901C85 38.1801 94.16 45.8901 104.34 44.8001C108.64 44.3401 112.35 42.3701 115.62 39.7701C120.27 36.0701 124.95 27.2301 123.33 26.4601C122.58 26.1101 120.82 30.0701 119.99 29.5501C119.37 29.1601 123.04 23.2401 122.03 22.7901C121.15 22.4001 119.69 27.1101 119.04 26.8801C118.4 26.6401 121.23 21.5901 120.29 21.2801C119.36 20.9801 117.57 26.1501 117.05 26.0001C116.5 25.8201 119.1 21.4201 118.27 21.0001C117.47 20.5901 115.88 25.4001 115.24 25.2001C114.69 25.0301 116.68 22.0301 115.86 21.7101C115.2 21.4501 113.58 23.0901 113.35 23.4601C111.25 26.9301 110.58 29.4901 106.7 31.1701C103.29 32.6501 102.98 24.6601 104.53 24.1201C105.62 23.7301 107.25 21.6801 107.74 20.7201C108.34 19.5601 107.81 17.8701 108.73 16.9501C103.45 11.6701 94.94 11.7201 89.6 16.9501C86.37 20.1001 85.02 23.9801 85.02 27.8001H85V27.7901Z" fill="#5F788A"/>
<path d="M105.11 31.1902C105.56 31.5602 102.03 36.6002 103.06 37.0302C104.37 37.5802 106.33 31.1602 107.35 31.8702C107.83 32.2002 105.61 36.3302 106.63 36.7502C107.58 37.1402 107.5 36.4802 109.47 32.3102C112.32 26.2602 114.82 21.3002 115.84 21.7002C116.67 22.0302 114.67 25.0202 115.22 25.1902C115.86 25.3902 117.45 20.5802 118.26 20.9902C119.09 21.4102 116.49 25.8102 117.04 25.9902C117.57 26.1502 119.35 20.9702 120.28 21.2702C121.23 21.5702 118.39 26.6302 119.03 26.8702C119.69 27.1102 121.14 22.3902 122.02 22.7802C123.03 23.2402 119.37 29.1502 119.98 29.5402C120.81 30.0702 122.57 26.1002 123.32 26.4502C124.94 27.2102 119.5 35.4902 114.85 39.1902C111.58 41.7902 106.64 45.3602 97.6602 44.0902L98.3002 44.7702C113.76 57.2602 143.32 32.2102 127.83 16.9202C122.51 11.6802 114.16 11.8202 108.7 16.9202C105.47 19.9302 98.0502 30.0002 98.4802 30.5602C99.2002 31.4902 101.46 27.7202 102.14 28.3702C102.72 28.9302 98.2602 32.8902 98.9702 33.6402C99.6302 34.3402 103.52 29.4502 103.48 30.1502C103.43 30.8302 99.3002 35.8402 100.17 36.5402C100.93 37.1602 104.66 30.8202 105.1 31.1702V31.1902H105.11Z" fill="#5F788A"/>
<path d="M15 122.54C15 164.37 51.89 195.39 92.83 191.01C110.12 189.16 125.08 181.23 138.25 170.76C156.97 155.85 175.79 120.26 169.29 117.2C166.28 115.77 159.19 131.74 155.86 129.63C153.37 128.04 168.13 104.25 164.06 102.4C160.52 100.81 154.65 119.8 152 118.84C149.41 117.89 160.83 97.5299 157.02 96.3199C153.27 95.0999 146.07 115.94 143.96 115.3C141.74 114.56 152.21 96.8499 148.88 95.1499C145.66 93.5099 139.26 112.86 136.67 112.07C134.45 111.38 142.49 99.3299 139.16 98.0099C136.51 96.9599 129.97 103.56 129.06 105.05C120.59 119 117.9 129.31 102.29 136.08C88.56 142.03 87.33 109.87 93.57 107.71C97.96 106.12 104.52 97.8999 106.48 94.0399C108.91 89.3899 106.75 82.5699 110.45 78.8699C89.2 57.6099 54.93 57.8299 33.47 78.8699C20.45 91.5499 15 107.15 15 122.54Z" fill="#C3CCD3"/>
<path d="M95.9483 136.23C97.7583 137.71 83.5483 157.99 87.7083 159.74C92.9983 161.97 100.868 136.1 104.988 138.95C106.898 140.27 97.9883 156.89 102.098 158.58C105.928 160.15 105.598 157.5 113.518 140.7C125.008 116.35 135.048 96.3599 139.168 97.9999C142.498 99.3199 134.458 111.38 136.678 112.06C139.268 112.85 145.668 93.4999 148.888 95.1399C152.218 96.8299 141.748 114.54 143.968 115.29C146.088 115.92 153.278 95.0899 157.028 96.3099C160.838 97.5299 149.418 117.88 152.008 118.84C154.648 119.79 160.518 100.81 164.068 102.4C168.138 104.25 153.388 128.04 155.868 129.63C159.198 131.75 166.288 115.78 169.298 117.2C175.798 120.27 153.908 153.58 135.198 168.49C122.028 178.96 102.178 193.34 65.9883 188.22L68.5783 190.96C130.808 241.24 249.778 140.41 187.438 78.8599C166.018 57.7599 132.428 58.3499 110.448 78.8599C97.4483 90.9899 67.5583 131.51 69.3083 133.77C72.2183 137.52 81.2983 122.35 84.0383 124.97C86.3683 127.21 68.4183 143.16 71.2783 146.17C73.9483 148.99 89.6083 129.3 89.4283 132.1C89.2383 134.85 72.6083 154.99 76.0983 157.84C79.1483 160.34 94.1883 134.8 95.9283 136.22H95.9483V136.23Z" fill="#3C5A70"/>
</g>
</g>
<defs>
<clipPath id="clip0_399_396">
<rect width="190" height="191.56" fill="white" transform="translate(15 13)"/>
</clipPath>
</defs>
</svg>
