<svg width="220" height="220" viewBox="0 0 220 220" fill="none" xmlns="http://www.w3.org/2000/svg">
<g clip-path="url(#clip0_399_323)">
<mask id="mask0_399_323" style="mask-type:luminance" maskUnits="userSpaceOnUse" x="15" y="19" width="190" height="182">
<path d="M205 19H15V201H205V19Z" fill="white"/>
</mask>
<g mask="url(#mask0_399_323)">
<path d="M164.14 144.69C177.19 163.74 192.43 181.37 205 200.75L15 201C15.11 200.89 15.21 200.78 15.26 200.65C19.53 189.82 48 157.87 56.62 145.22L58.39 145.94C64.9 147.48 73.47 144.22 78.09 139.51C82.28 135.24 86.22 121.33 94.73 126.83C105.37 133.72 88.55 174.62 110.05 173.45C127.86 172.48 117.96 142 120.91 131.64C121.95 127.99 125.02 125.37 128.88 125.96C134.66 126.84 135.52 132.63 138.69 136.37C144.28 142.95 153.37 147.74 162.14 145.38L164.15 144.72V144.69H164.14Z" fill="#3C5A70"/>
<path d="M164.139 144.69L162.129 145.35C153.369 147.71 144.269 142.92 138.679 136.34C135.509 132.6 134.669 126.8 128.869 125.93C124.999 125.34 121.939 127.97 120.899 131.61C117.949 141.97 127.859 172.45 110.039 173.42C88.5394 174.59 105.359 133.69 94.7194 126.81C86.2194 121.3 82.2694 135.21 78.0794 139.49C73.4594 144.21 64.8894 147.47 58.3794 145.92L56.6094 145.2C67.6394 129.01 81.4094 110.08 91.2094 93.1299L132.709 93.8299C142.979 110.94 152.829 128.19 164.119 144.68H164.139V144.69Z" fill="#AFBBC4"/>
<path d="M100.571 65.39C101.421 71.78 102.531 79.11 102.991 85.46C103.041 86.04 103.401 88.11 102.511 88.11L93.2813 59.58C71.3713 64.3 70.2713 31.11 92.3313 33.76C97.7913 14.27 125.331 13.86 130.201 33.91C153.071 31.92 151.261 64.67 128.721 60.09L119.961 85.69C119.541 86.08 119.381 85.76 119.471 84.73C120.541 79.28 121.301 73.74 122.381 68.29C122.391 67.18 122.231 66.86 121.891 67.33L114.131 90.06L111.221 59.59L108.791 86.91L107.831 89.57C105.721 80.99 103.301 72.48 101.041 63.95C100.671 63.95 100.501 64.43 100.551 65.4H100.571V65.39Z" fill="#637B8D"/>
</g>
</g>
<defs>
<clipPath id="clip0_399_323">
<rect width="190" height="182" fill="white" transform="translate(15 19)"/>
</clipPath>
</defs>
</svg>
