<svg width="220" height="220" viewBox="0 0 220 220" fill="none" xmlns="http://www.w3.org/2000/svg">
<g clip-path="url(#clip0_482_213)">
<path d="M143.879 86.1701C140.416 101.832 128.199 121.967 111.701 125.958L113.416 129.533L110.931 130.928C110.114 129.694 109.761 130.623 109.681 130.623C102.37 129.822 109.2 127.289 107.661 125.654C107.532 125.51 104.518 124.997 103.925 124.724C73.3501 110.248 59.9946 50.4856 99.4197 37.0518L91.9644 44.3618C59.0326 82.6754 123.405 157.876 142.949 86.9395C143.045 86.6029 143.286 85.5449 143.879 86.1701Z" fill="#3C5A70"/>
<path d="M110.933 130.928C112.648 133.525 113.691 144.314 113.418 147.552C112.841 154.589 106.251 163.07 107.518 169.306C108.031 171.839 111.767 173.329 112.488 175.83C113.498 179.293 112.36 183.445 108.913 185L108.752 184.23C116.721 177.594 109.009 175.093 107.197 170.861C104.488 164.528 110.404 157.459 111.863 151.592C113.626 144.522 112.36 137.26 109.682 130.607C109.763 130.607 110.115 129.678 110.933 130.912V130.928Z" fill="#3C5A70"/>
<path d="M143.878 86.1703C143.284 85.5451 143.044 86.6192 142.948 86.9398C123.403 157.876 59.0311 82.6756 91.9628 44.3621L99.4181 37.052C130.137 26.5839 150.066 58.1004 143.878 86.1543V86.1703Z" fill="#3C5A70"/>
</g>
<defs>
<clipPath id="clip0_482_213">
<rect width="70" height="150" fill="white" transform="translate(75 35)"/>
</clipPath>
</defs>
</svg>
