<svg width="220" height="220" viewBox="0 0 220 220" fill="none" xmlns="http://www.w3.org/2000/svg">
<mask id="mask0_476_414" style="mask-type:luminance" maskUnits="userSpaceOnUse" x="50" y="63" width="120" height="94">
<path d="M170 63H50V157H170V63Z" fill="white"/>
</mask>
<g mask="url(#mask0_476_414)">
<path d="M118.02 69.18C115.57 66.91 113.03 64.61 110.04 63C102.28 68.08 95.8497 74.81 92.1997 83.43C89.9697 88.69 88.2797 95.68 87.5897 101.35C87.4497 102.5 87.0397 105.28 87.5897 106.08C87.9597 106.63 93.6197 109.47 94.9497 110.42C99.1097 113.39 102.34 117.46 104.84 121.87C106.99 125.66 108.2 129.87 110.37 133.64C111.61 130.37 112.79 127.11 114.4 124C118.04 116.96 122.8 110.97 130.08 107.46C131.4 106.82 133.13 107.32 133.17 105.3C132.06 101.05 131.92 96.59 130.92 92.32C128.82 83.36 124.77 75.43 118.03 69.17L118.02 69.18ZM58.7397 78.27C58.0297 78.51 58.1297 79.02 58.0597 79.6C57.8097 81.64 58.2797 88.14 58.4897 90.47C58.5697 91.41 59.4597 96.31 59.8797 96.72C65.3297 97.83 70.7597 99.48 75.8397 101.74C76.6997 102.12 79.7197 104.22 80.3097 103.76C81.5597 101.56 81.4897 98.81 82.0097 96.6C82.4397 94.78 84.5397 88.96 83.5597 87.63C82.6797 86.45 76.6997 83.54 75.0397 82.85C71.4897 81.38 64.6997 79.05 61.0197 78.31C60.3497 78.18 59.3797 78.06 58.7497 78.27H58.7397ZM162.27 78.21C161.61 77.56 150.27 81.01 148.54 81.63C146.16 82.48 138.48 85.77 137.05 87.48C135.85 88.92 137.18 90.88 137.52 92.59C137.83 94.11 139.45 103.77 140.26 103.93C146.72 100.52 153.65 97.97 160.86 96.71C162.04 90.59 162.51 84.44 162.26 78.2L162.27 78.21ZM113 149.14C112.77 151.15 113 153.85 113 155.97C113 156.07 112.52 156.29 112.77 156.58C113.1 157.01 113.53 156.99 114.01 157.01C114.72 157.04 118.18 156.28 119.16 156.07C144.76 150.59 166.75 132.73 169.84 105.64C169.93 104.85 170.34 101.4 169.35 101.23C150.11 104.98 128.79 111.94 119.06 130.26C116.45 135.18 113.63 143.65 113 149.14Z" fill="white"/>
<path d="M50 101.92C53.84 101.1 59.2 102.85 63.1 103.95C84.95 110.09 101.93 121.78 106.44 145.21L107.7 156.34C107.53 156.81 107.17 156.91 106.73 156.99C105.79 157.14 97.88 155.29 96.35 154.86C70.86 147.81 53.05 130.36 50.42 103.69L50 102.72V101.92Z" fill="#5F788A"/>
<path d="M118.022 69.1798C124.762 75.4298 128.812 83.3698 130.912 92.3298C131.912 96.5998 132.052 101.06 133.162 105.31C133.122 107.34 131.402 106.83 130.072 107.47C122.792 110.98 118.042 116.98 114.392 124.01C112.772 127.13 111.602 130.38 110.362 133.65C108.202 129.88 106.992 125.66 104.842 121.88C102.332 117.46 99.1119 113.4 94.9519 110.43C93.6119 109.47 87.9619 106.64 87.5919 106.09C87.0519 105.29 87.4619 102.51 87.5919 101.36C88.2819 95.6898 89.9719 88.6898 92.2019 83.4398C95.8519 74.8098 102.282 68.0798 110.042 63.0098C113.032 64.6098 115.572 66.9098 118.022 69.1898V69.1798Z" fill="#3C5A70"/>
<path d="M113.001 149.14C113.631 143.64 116.451 135.18 119.061 130.26C128.791 111.94 150.111 104.98 169.351 101.23C170.341 101.4 169.921 104.85 169.841 105.64C166.751 132.74 144.751 150.6 119.161 156.07C118.171 156.28 114.721 157.03 114.011 157.01C113.521 156.99 113.101 157.01 112.771 156.58C112.531 156.29 113.001 156.07 113.001 155.97C113.001 153.85 112.771 151.15 113.001 149.14Z" fill="#5F788A"/>
<path d="M162.27 78.2098C162.52 84.4398 162.05 90.5998 160.87 96.7198C153.66 97.9798 146.73 100.53 140.27 103.94C139.46 103.78 137.83 94.1098 137.53 92.5998C137.18 90.8998 135.86 88.9398 137.06 87.4898C138.49 85.7798 146.16 82.4898 148.55 81.6398C150.28 81.0198 161.62 77.5698 162.28 78.2198L162.27 78.2098Z" fill="#5F788A"/>
<path d="M58.7381 78.2703C59.3681 78.0603 60.3381 78.1703 61.0081 78.3103C64.6781 79.0503 71.4781 81.3703 75.0281 82.8503C76.6881 83.5403 82.6681 86.4603 83.5481 87.6303C84.5381 88.9603 82.4281 94.7703 81.9981 96.6003C81.4781 98.8103 81.5581 101.56 80.2981 103.76C79.7081 104.22 76.6881 102.12 75.8281 101.74C70.7481 99.4803 65.3181 97.8303 59.8681 96.7203C59.4481 96.3103 58.5581 91.4203 58.4781 90.4703C58.2681 88.1403 57.8081 81.6503 58.0481 79.6003C58.1181 79.0203 58.0181 78.5103 58.7281 78.2703H58.7381Z" fill="#5F788A"/>
</g>
</svg>
