<svg width="210" height="259" viewBox="0 0 210 259" fill="none" xmlns="http://www.w3.org/2000/svg">
<path d="M177.264 41.8891C178.494 47.4491 179 52 176.584 62.6991C176.974 62.9491 183.764 60.9091 185.634 60.8891C203.544 60.6491 215.624 77.7091 206.674 94.1491C196.704 112.459 166.234 103.969 149.654 107.499C149.654 102.969 148.434 97.7791 148.294 93.0191L175.904 92.7891C175.014 91.8291 174.894 87.4391 174.324 87.1291C171.854 85.7991 152.694 87.7491 148.754 86.6791C146.494 86.0591 193.3 79.11 189 84L178.624 96.5C177.584 90.01 167 96.8788 48.7339 93.5C48.5 91.5 105.47 86.1891 107 92.7891C107.85 96.4691 63.2039 92.3691 67.2939 93.0191C67.0339 97.4891 66.9039 101.739 65.9339 106.139H48.7339C38.2639 106.139 25.2139 107.639 16.3739 101.159C0.463929 89.4791 4.67393 62.7691 21.3539 53.6391C24.2839 52.0291 34.2339 50.2391 34.9339 49.5691C37.4039 47.1891 33.5039 47.5891 33.3539 45.7191C33.3139 45.2791 36.4639 38.3691 36.9739 37.5691C45.3439 24.5591 65.6939 22.8791 73.4039 37.3391C74.1139 36.8691 74.6139 36.5791 74.9839 35.7591C92.9039 -4.15093 151.324 -5.87093 172.284 33.9491C173.584 36.4191 173.794 42.5091 177.264 41.8691V41.8891Z" fill="#FED4B0"/>
<path d="M177.262 41.8891C173.792 42.5291 173.582 36.4391 172.282 33.9691C151.322 -5.85093 92.902 -4.13093 74.982 35.7791C74.612 36.5991 74.112 36.8991 73.402 37.3591C65.692 22.8991 45.342 24.5791 36.972 37.5891C36.462 38.3891 33.312 45.2891 33.352 45.7391C33.502 47.6091 37.402 47.2091 34.932 49.5891C34.232 50.2591 24.292 52.0591 21.352 53.6591C4.67198 62.7891 0.461979 89.4991 16.372 101.179C25.202 107.659 38.252 106.159 48.732 106.159C48.592 107.089 49.292 107.899 48.052 108.419C46.902 108.909 31.082 107.799 31.082 108.649C37.322 109.199 43.612 108.699 49.862 108.879C50.692 108.899 52.092 108.429 51.902 109.789C36.182 110.009 16.812 112.199 6.19198 98.2491C-8.81802 78.5291 5.21198 48.7091 29.502 47.3391C29.992 24.9291 56.622 12.9591 72.492 29.6891C95.692 -14.8109 166.212 -8.11093 177.262 41.9091V41.8891Z" fill="#FED4B0"/>
<path d="M140.612 106.609C140.572 107.349 140.612 108.129 140.612 108.869L63.4991 110C63.1191 109.11 62.65 87.9 62.5 87L159 88C160.57 92.61 155.25 105.15 152.5 107C154.23 106.65 138.792 109.339 139.492 108.869C140.152 108.429 138.982 106.369 140.622 106.609H140.612Z" fill="#FED4B0"/>
<path d="M65.932 106.159C65.812 106.689 66.082 107.579 65.932 107.969C65.752 108.439 66.212 109.279 65.252 109.779C60.802 109.829 56.342 109.719 51.902 109.779C52.102 108.419 50.692 108.899 49.862 108.869C43.612 108.689 37.322 109.189 31.082 108.639C31.082 107.789 46.902 108.899 48.052 108.409C49.292 107.879 48.582 107.079 48.732 106.149H65.932V106.159Z" fill="#FED4B0"/>
<path d="M141.963 93.0291C141.603 97.5491 140.843 102.069 140.603 106.609C138.963 106.369 140.132 108.429 139.472 108.869C138.772 109.339 129.443 108.519 127.703 108.869C130.453 107.029 140.583 110.759 139.013 106.149H74.9725C74.2425 101.799 74.5025 96.9491 74.0625 92.5691L141.942 93.0191L141.963 93.0291Z" fill="#FED4B0"/>
<path d="M61.8623 242.379C61.3923 242.559 60.5323 242.659 60.0523 242.829L58.0123 223.369L53.2623 245.549C52.8423 245.639 52.43 245.95 52 246C52.4 242.87 57.1223 220.1 58.0123 219C58.5923 218.28 59.6023 218.749 60.0523 219.979L61.8623 242.379Z" fill="#FEB696"/>
<path d="M71.0362 91.4837C70.9662 91.4237 69.5462 91.0837 69.2262 91.0337C69.3862 90.0837 67.8962 83.5837 71.7162 84.6937C74.6662 85.5537 71.8962 89.8937 71.0362 91.4837Z" fill="#EE705D"/>
<path d="M146 90.5C146 92 137.33 156.067 136 199.132" stroke="#EE705D" stroke-width="2"/>
<path d="M146 91C146 92.4336 156.047 182.007 156.937 217M155 242.5C155 241.127 156.978 218.622 156.937 217M156.937 217L163 246.5" stroke="#EE705D" stroke-width="2"/>
<path d="M147.149 91.0996L144.889 91.5495C144.789 90.4595 141.179 86.2496 144.209 85.2096C148.179 83.8596 146.839 89.4095 147.149 91.0895V91.0996Z" fill="#6369D2"/>
<path d="M70 90.5C70 92 78.6696 156.067 80 199.132" stroke="#EE705D" stroke-width="2"/>
<path d="M70 91C70 92.4336 59.953 182.007 59.0628 217M61 242.5C61 241.127 59.0216 218.622 59.0628 217M59.0628 217L53 246.5" stroke="#EE705D" stroke-width="2"/>
<path d="M68.8514 91.0996L71.1114 91.5495C71.2114 90.4595 74.8214 86.2496 71.7914 85.2096C67.8214 83.8596 69.1614 89.4095 68.8514 91.0895V91.0996Z" fill="#6369D2"/>
<path d="M143.774 237.849C135.744 236.529 79.8939 236.309 72.2739 237.849C73.6539 229.719 70.0639 208.859 73.1839 202.319C73.2839 202.099 76.3539 199.009 76.5739 198.929L138.124 198.479C139.054 198.679 141.914 201.019 142.424 201.869C146.044 207.949 142.494 229.869 143.784 237.849H143.774Z" fill="#FED267"/>
<path d="M164.142 247.809C164.272 249.819 164.702 257.559 163.012 258.219H52.5925C49.9025 257.309 51.2825 250.029 51.4625 247.809H164.152H164.142Z" fill="#FED267"/>
<path d="M143.771 237.849C145.801 238.179 152.071 241.389 154.631 242.379C154.761 242.429 154.951 242.329 155.081 242.379C157.341 243.239 160.361 245.099 162.771 245.099L164 246C164.09 246.78 164.061 246.669 164.131 247.819H51.4414C51.5714 246.239 51.94 246.52 52 246C52.43 245.95 52.8314 245.649 53.2514 245.559C54.4414 245.299 58.3514 243.459 60.0414 242.839C60.5214 242.669 61.3814 242.559 61.8514 242.389C64.4714 241.399 70.1214 238.299 72.2614 237.859C79.8914 236.319 135.731 236.539 143.761 237.859L143.771 237.849Z" fill="#FED4B0"/>
</svg>
