<svg width="220" height="220" viewBox="0 0 220 220" fill="none" xmlns="http://www.w3.org/2000/svg">
<g clip-path="url(#clip0_476_477)">
<path d="M102.982 50.0503C130.762 48.7603 152.872 71.9903 150.502 99.5603C149.392 112.51 142.142 124.42 131.782 132.04C132.502 132.77 127.422 124.85 131.782 132.04L124.422 136.25C93.6417 150.13 58.8017 127.23 60.0317 93.4303C60.8717 70.4503 79.9017 51.1203 102.982 50.0503Z" fill="#96A6B2"/>
<path d="M139.63 75.98L126.62 85.81C122.33 82.96 116.47 80.15 111.4 79.12C96.0803 76 81.2803 85.94 71.7403 97C80.2003 107.4 95.2303 117.21 109.26 115.31C110.86 115.09 113.2 114.51 114.76 114.03L92.4603 132.27C66.5603 123.5 57.5103 91.29 75.0403 70.21C92.6103 49.08 126.16 52.1 139.63 75.98Z" fill="#3C5A70"/>
<path d="M139.629 75.9797C157.409 107.47 126.689 143.81 92.4688 132.25L114.769 114.01C123.949 111.18 132.719 104.44 138.919 97.2697C135.679 92.9097 131.149 88.8097 126.629 85.7997L139.639 75.9697L139.629 75.9797Z" fill="#3C5A70"/>
<path d="M126.63 85.8096C131.15 88.8196 135.68 92.9196 138.92 97.2796C132.72 104.46 123.95 111.19 114.77 114.02C113.21 114.5 110.87 115.09 109.27 115.3C95.24 117.2 80.22 107.39 71.75 96.9896C81.29 85.9296 96.08 75.9896 111.41 79.1096C116.48 80.1396 122.34 82.9496 126.63 85.7996V85.8096Z" fill="#CAD2D8"/>
<path d="M104.33 80.5797C126.42 79.0197 128.14 111.57 107.62 113.49C84.8098 115.62 83.0098 82.0797 104.33 80.5797Z" fill="#3C5A70"/>
<path d="M128.2 129.65L132.61 126.77C134.23 125.71 136.39 126.17 137.45 127.79L158.55 160.22C159.6 161.84 159.15 164.01 157.53 165.07L153.12 167.95C151.5 169.01 149.34 168.55 148.28 166.93L127.18 134.5C126.13 132.88 126.58 130.71 128.2 129.65Z" fill="#96A6B2"/>
</g>
<defs>
<clipPath id="clip0_476_477">
<rect width="99.12" height="118.52" fill="white" transform="translate(60 50)"/>
</clipPath>
</defs>
</svg>
