<svg width="220" height="220" viewBox="0 0 220 220" fill="none" xmlns="http://www.w3.org/2000/svg">
<path d="M156.151 145.786C170.354 166.694 186.919 186.147 205 203.789C201.79 207.234 199.701 209.177 196.156 212.24H25.0013C21.4209 209.141 18.1985 206.137 15 202.633C32.1382 184.204 49.3003 165.526 63.4667 144.63C64.0992 150.602 65.4001 158.016 72.8951 153.081C79.2085 148.921 78.8744 137.74 84.054 134.259C88.3028 131.398 93.2915 133.198 94.2462 138.288C96.4303 149.97 85.1878 154.535 83.8631 164.405C82.8844 171.712 85.9874 181.391 94.8191 176.123C107.255 168.708 99.9391 141.721 110.585 139.623C122.639 137.263 117.149 151.019 116.934 155.954C116.015 176.48 140.481 174.084 136.161 155.191C134.932 149.791 123.51 135.976 133.273 130.802C142.176 126.082 140.016 141.161 141.925 146.358C145.661 156.55 155.244 159.124 156.151 145.786Z" fill="#6369D2"/>
<path d="M93.4569 106.986C95.629 106.914 97.825 107.022 99.9971 106.986C101.023 106.974 102.05 106.986 103.076 106.986C104.735 106.962 106.418 106.998 108.077 106.986C108.709 106.986 109.366 106.986 109.998 106.986C111.275 106.986 112.564 106.974 113.841 106.986C114.605 106.986 115.381 106.986 116.145 106.986C119.713 107.034 123.365 106.831 126.91 106.986C128.676 107.057 132.555 106.497 133.832 107.558C140.205 120.909 147.843 133.568 156.138 145.786C155.231 159.124 145.635 156.55 141.912 146.358C140.002 141.161 142.162 126.082 133.259 130.802C123.496 135.987 134.906 149.803 136.147 155.191C140.468 174.084 116.001 176.48 116.92 155.954C117.135 151.019 122.625 137.263 110.571 139.623C99.9136 141.709 107.241 168.696 94.8055 176.123C85.9739 181.391 82.8589 171.712 83.8495 164.405C85.1742 154.523 96.4167 149.97 94.2326 138.288C93.2779 133.198 88.2892 131.398 84.0404 134.259C78.8608 137.74 79.195 148.921 72.8815 153.081C65.3985 158.016 64.0976 150.602 63.4531 144.63C71.6045 132.59 78.4669 119.55 85.5681 106.986C88.1937 106.926 90.8313 107.081 93.4569 106.986Z" fill="#FEB696"/>
<path d="M126.922 106.986C123.377 106.831 119.725 107.033 116.157 106.986C116.885 98.2841 119.809 85.6488 125.382 78.747C128.76 74.575 128.139 77.2451 131.732 76.2557C135.324 75.2664 138.499 73.7644 141.16 71.0705C130.753 75.4928 115.882 73.5856 117.505 59.353C113.567 64.7647 103.47 65.7422 98.8516 60.8907C97.6462 59.6272 96.7511 57.1478 96.1543 55.5147C95.9872 55.0498 96.4288 53.9532 95.9634 53.5956C93.3258 57.1001 88.4326 57.2551 85.5802 53.977C85.2938 54.2035 85.1386 56.8378 85.0073 57.4339C84.8164 58.2683 83.8258 61.6297 83.8497 61.8562C83.8974 62.333 88.2058 68.5792 88.8503 69.9261C94.4119 81.6675 98.5174 94.0167 100.009 106.998C97.8371 107.033 95.6411 106.926 93.469 106.998C91.106 94.3862 85.3892 82.6568 76.7366 73.1923C62.5582 91.5612 34.5595 72.5128 46.5419 52.642C47.5563 50.9493 52.6166 46.9203 52.7002 46.4912C52.7837 46.0382 50.8861 41.8304 50.7787 40.7338C49.6688 29.9699 56.5789 18.7173 67.893 17.4895C69.9338 17.263 75.5789 18.3597 75.9728 18.2524C76.3666 18.1451 79.8754 12.936 81.3553 11.7202C90.3302 4.38931 103.709 5.73629 110.965 14.7956C121.492 6.59454 137.222 7.64351 146.161 17.6802C147.271 18.9319 150.553 25.0111 150.97 25.1661C151.937 25.5356 156.568 25.1065 158.668 25.5475C169.457 27.86 173.718 38.8385 173.085 48.7918C173.026 49.6977 171.462 52.3797 171.546 53.4049C171.581 53.834 173.61 57.2074 173.849 58.3994C177.668 76.7683 156.222 89.2606 142.115 77.0305C134.656 85.2673 127.495 95.5544 126.922 106.998V106.986Z" fill="#EE705D"/>
<path d="M94.9953 59.3529C95.1504 63.8111 98.5876 71.9644 99.614 76.8278C101.094 83.8369 102.12 91.0128 102.884 98.1529C102.944 90.7744 102.454 82.4661 101.535 74.9087C100.975 70.2598 100.02 65.4322 98.8382 60.8906C103.457 65.7421 113.554 64.7647 117.492 59.3529C115.869 73.5856 130.74 75.4928 141.147 71.0704C138.497 73.7644 135.311 75.2663 131.718 76.2557C128.126 77.245 128.758 74.5749 125.369 78.747C119.784 85.6368 116.872 98.2841 116.144 106.986C115.38 106.986 114.604 106.986 113.84 106.986C112.85 97.7357 114.52 89.0698 117.301 80.2847C117.695 79.0331 120.488 74.1339 120.38 73.371C120.309 72.8704 114.652 67.101 115.189 64.7289C114.485 66.7434 108.672 66.9222 108.458 67.2202C107.372 68.746 109.353 90.0353 109.615 93.5398L109.042 92.777C107.753 95.6497 108.505 93.4564 106.93 92.777C106.644 91.1439 106.429 89.5228 105.772 87.9731C103.779 93.8498 104.615 100.787 103.075 106.986C102.049 106.986 101.022 106.974 99.9959 106.986C98.516 94.0047 94.3985 81.6555 88.837 69.9142C88.1925 68.5672 83.8841 62.321 83.8364 61.8442C83.8125 61.6178 84.8031 58.2682 84.994 57.4219C88.2999 60.1397 91.0807 59.1026 94.9953 59.341V59.3529Z" fill="#FED267"/>
<path d="M98.839 60.8906C100.009 65.4322 100.963 70.2598 101.536 74.9087C102.455 82.4541 102.945 90.7744 102.885 98.1529C102.121 91.0128 101.095 83.8488 99.6148 76.8278C98.5884 71.9644 95.1512 63.7991 94.996 59.3529C94.9483 57.9225 94.996 56.5517 96.1537 55.5146C96.7504 57.1477 97.6455 59.6271 98.8509 60.8906H98.839Z" fill="#F9604C"/>
<path d="M96.155 55.5146C95.0093 56.5516 94.9496 57.9225 94.9973 59.3529C91.0828 59.1145 88.302 60.1515 84.9961 57.4337C85.1274 56.8377 85.2825 54.2034 85.569 53.9769C88.4213 57.243 93.3146 57.0881 95.9521 53.5955C96.4176 53.9531 95.976 55.0497 96.1431 55.5146H96.155Z" fill="#FED267"/>
<path d="M113.841 106.986C112.564 106.974 111.275 106.986 109.998 106.986C110.165 102.48 109.951 98.0338 109.616 93.5399C109.354 90.0473 107.385 68.758 108.459 67.2203C108.674 66.9223 114.486 66.7435 115.19 64.729C114.653 67.1011 120.31 72.8704 120.381 73.3711C120.489 74.134 117.696 79.0331 117.302 80.2848C114.522 89.0699 112.851 97.7239 113.841 106.986Z" fill="#F9604C"/>
<path d="M106.921 92.777C107.757 97.4377 107.768 102.277 108.079 106.986C106.42 106.998 104.737 106.962 103.078 106.986C104.606 100.775 103.77 93.8378 105.775 87.9731C106.42 89.5108 106.635 91.1439 106.933 92.777H106.921Z" fill="#F9604C"/>
<path d="M109.615 93.54C109.949 98.0339 110.164 102.468 109.997 106.986C109.365 106.986 108.708 106.986 108.076 106.986C107.765 102.266 107.753 97.4379 106.918 92.7771C108.493 93.4565 107.741 95.6498 109.03 92.7771L109.603 93.54H109.615Z" fill="#F9604C"/>
</svg>
