<svg width="220" height="220" viewBox="0 0 220 220" fill="none" xmlns="http://www.w3.org/2000/svg">
<path d="M85.0005 27.7915C85.0005 38.1836 94.1655 45.8907 104.337 44.8024C108.632 44.3429 112.349 42.3726 115.62 39.7715C120.27 36.0672 124.946 27.2268 123.331 26.4647C122.582 26.11 120.822 30.0771 119.994 29.5518C119.377 29.1576 123.042 23.2467 122.03 22.7869C121.15 22.3926 119.692 27.1083 119.035 26.872C118.392 26.6357 121.229 21.5781 120.283 21.2761C119.351 20.9741 117.564 26.1495 117.039 25.992C116.487 25.808 119.088 21.4076 118.26 20.9871C117.459 20.5799 115.869 25.3877 115.226 25.1905C114.674 25.0199 116.671 22.0249 115.843 21.6964C115.186 21.435 113.559 23.0741 113.334 23.4443C111.23 26.9106 110.561 29.4721 106.683 31.153C103.271 32.632 102.967 24.6426 104.517 24.1041C105.608 23.7098 107.238 21.6678 107.724 20.7088C108.328 19.5528 107.791 17.8606 108.71 16.9408C103.43 11.6602 94.9175 11.7127 89.5844 16.9408C86.353 20.0936 85 23.9687 85 27.7911L85.0005 27.7915Z" fill="#F9604C"/>
<path d="M105.107 31.1926C105.558 31.5609 102.027 36.5984 103.06 37.0332C104.374 37.5864 106.33 31.1607 107.354 31.8695C107.829 32.1982 105.615 36.3265 106.637 36.7456C107.587 37.1353 107.505 36.4783 109.474 32.3041C112.328 26.2542 114.822 21.2891 115.847 21.6963C116.674 22.0248 114.678 25.0197 115.229 25.1904C115.873 25.3876 117.462 20.5798 118.264 20.987C119.091 21.4075 116.49 25.8077 117.042 25.9919C117.568 26.1494 119.354 20.974 120.286 21.2761C121.232 21.5781 118.395 26.6357 119.038 26.8719C119.695 27.1082 121.153 22.3928 122.033 22.7868C123.045 23.2464 119.38 29.1575 119.997 29.5517C120.825 30.077 122.585 26.1099 123.334 26.4647C124.95 27.2267 119.512 35.5024 114.862 39.2067C111.591 41.8075 106.657 45.3797 97.668 44.1082L98.3104 44.7894C113.771 57.2812 143.327 32.2316 127.84 16.9412C122.52 11.7001 114.174 11.8462 108.714 16.9412C105.485 19.955 98.0595 30.0215 98.4944 30.582C99.2176 31.5141 101.473 27.744 102.154 28.3966C102.734 28.9525 98.2747 32.915 98.9836 33.6631C99.6467 34.3633 103.537 29.4721 103.493 30.1686C103.445 30.8527 99.315 35.8539 100.181 36.5628C100.94 37.1837 104.674 30.8379 105.107 31.1924V31.1926Z" fill="#F9604C"/>
<path d="M15.0018 122.539C15.0018 164.37 51.8934 195.392 92.8344 191.012C110.124 189.162 125.087 181.231 138.252 170.762C156.97 155.851 175.794 120.266 169.291 117.199C166.277 115.771 159.191 131.739 155.86 129.625C153.375 128.038 168.127 104.245 164.056 102.394C160.512 100.808 154.643 119.789 152 118.838C149.409 117.887 160.829 97.5289 157.022 96.3132C153.269 95.0976 146.077 115.93 143.962 115.296C141.742 114.555 152.211 96.8425 148.879 95.1499C145.655 93.5106 139.257 112.863 136.665 112.069C134.444 111.383 142.481 99.3272 139.15 98.0049C136.504 96.9528 129.955 103.55 129.05 105.041C120.582 118.993 117.887 129.304 102.28 136.07C88.546 142.023 87.322 109.864 93.5622 107.696C97.9508 106.11 104.513 97.8901 106.469 94.0298C108.901 89.3766 106.737 82.5648 110.438 78.8626C89.1837 57.6069 54.9202 57.8183 33.4531 78.8626C20.4462 91.5534 15 107.152 15 122.537L15.0018 122.539Z" fill="#FED267"/>
<path d="M95.9457 136.229C97.7577 137.712 83.5471 157.989 87.7042 159.739C92.9924 161.966 100.867 136.101 104.988 138.954C106.901 140.277 97.9874 156.894 102.101 158.581C105.926 160.15 105.596 157.505 113.521 140.703C125.008 116.351 135.049 96.3652 139.173 98.0045C142.504 99.3268 134.467 111.382 136.688 112.069C139.28 112.863 145.677 93.5102 148.902 95.1495C152.233 96.8421 141.764 114.554 143.984 115.295C146.1 115.929 153.29 95.0971 157.044 96.3128C160.851 97.5285 149.43 117.886 152.021 118.838C154.664 119.789 160.534 100.808 164.077 102.394C168.148 104.244 153.395 128.037 155.881 129.624C159.213 131.739 166.298 115.77 169.312 117.198C175.815 120.265 153.926 153.577 135.208 168.488C122.042 178.957 102.183 193.335 66 188.217L68.5858 190.959C130.819 241.242 249.787 140.411 187.449 78.864C166.034 57.7673 132.44 58.3554 110.463 78.864C97.4637 90.9952 67.5759 131.515 69.3264 133.771C72.2374 137.523 81.3169 122.348 84.058 124.975C86.392 127.212 68.4424 143.162 71.2956 146.174C73.9649 148.992 89.6246 129.304 89.4473 132.107C89.2552 134.861 72.6298 154.992 76.117 157.845C79.1713 160.345 94.2025 134.801 95.9457 136.228V136.229Z" fill="#6369D2"/>
</svg>
