<svg width="220" height="220" viewBox="0 0 220 220" fill="none" xmlns="http://www.w3.org/2000/svg">
<mask id="mask0_399_458" style="mask-type:luminance" maskUnits="userSpaceOnUse" x="28" y="8" width="165" height="203">
<path d="M192.3 8H28V210.31H192.3V8Z" fill="white"/>
</mask>
<g mask="url(#mask0_399_458)">
<path d="M166.884 40.8198C167.844 45.1798 168.244 48.7398 166.354 57.1198C166.664 57.3198 171.974 55.7198 173.444 55.6998C187.474 55.5098 196.944 68.8798 189.934 81.7598C182.124 96.1098 158.254 89.4498 145.264 92.2198C145.264 88.6698 144.304 84.5998 144.194 80.8698L165.824 80.6898C165.124 79.9398 165.034 76.4998 164.584 76.2598C162.654 75.2198 147.634 76.7498 144.554 75.9098C142.784 75.4198 179.454 69.9798 176.084 73.8098L167.954 83.5998C167.134 78.5198 158.844 83.8998 66.1836 81.2498C66.0036 79.6798 110.634 75.5198 111.834 80.6898C112.504 83.5698 77.5236 80.3598 80.7236 80.8698C80.5236 84.3698 80.4136 87.6998 79.6536 91.1498H66.1735C57.9735 91.1498 47.7436 92.3298 40.8236 87.2498C28.3536 78.0998 31.6536 57.1698 44.7236 50.0198C47.0236 48.7598 54.8136 47.3598 55.3636 46.8298C57.3036 44.9698 54.2436 45.2798 54.1236 43.8098C54.0936 43.4698 56.5636 38.0498 56.9636 37.4198C63.5236 27.2298 79.4636 25.9098 85.5036 37.2398C86.0636 36.8698 86.4536 36.6398 86.7436 35.9998C100.784 4.72981 146.554 3.37981 162.974 34.5798C163.994 36.5198 164.154 41.2898 166.874 40.7898V40.8098H166.884V40.8198Z" fill="#D0D7DD"/>
<path d="M166.882 40.8199C164.162 41.3199 164.002 36.5499 162.982 34.6099C146.562 3.40987 100.792 4.75987 86.7517 36.0299C86.4617 36.6699 86.0717 36.9099 85.5117 37.2699C79.4717 25.9399 63.5217 27.2599 56.9717 37.4499C56.5717 38.0799 54.1017 43.4799 54.1317 43.8399C54.2517 45.3099 57.3017 44.9899 55.3717 46.8599C54.8217 47.3799 47.0317 48.7999 44.7317 50.0499C31.6617 57.1999 28.3617 78.1299 40.8317 87.2799C47.7517 92.3599 57.9717 91.1799 66.1817 91.1799C66.0717 91.9099 66.6217 92.5399 65.6517 92.9499C64.7517 93.3299 52.3517 92.4599 52.3517 93.1299C57.2417 93.5599 62.1717 93.1699 67.0617 93.3099C67.7117 93.3299 68.8117 92.9599 68.6617 94.0199C56.3417 94.1899 41.1717 95.9099 32.8517 84.9799C21.0917 69.5299 32.0817 46.1699 51.1117 45.0899C51.4917 27.5299 72.3617 18.1499 84.7917 31.2599C102.972 -3.61013 158.222 1.63987 166.882 40.8299V40.8099V40.8199Z" fill="#D0D7DD"/>
<path d="M138.173 91.5299C138.143 92.1099 138.173 92.7199 138.173 93.2999L77.7527 94.1899C77.4527 93.4899 77.0827 76.8699 76.9727 76.1699L152.583 76.9499C153.813 80.5599 149.643 90.3899 147.493 91.8399C148.853 91.5699 136.753 93.6699 137.303 93.2999C137.823 92.9599 136.903 91.3399 138.183 91.5299H138.173Z" fill="#D0D7DD"/>
<path d="M79.6633 91.1797C79.5733 91.5997 79.7833 92.2897 79.6633 92.5997C79.5233 92.9697 79.8833 93.6297 79.1333 94.0197C75.6433 94.0597 72.1533 93.9697 68.6733 94.0197C68.8333 92.9497 67.7233 93.3297 67.0733 93.3097C62.1733 93.1697 57.2433 93.5597 52.3633 93.1297C52.3633 92.4597 64.7533 93.3297 65.6633 92.9497C66.6333 92.5297 66.0833 91.9097 66.1933 91.1797H79.6733H79.6633Z" fill="#D0D7DD"/>
<path d="M139.231 80.8898C138.951 84.4298 138.351 87.9698 138.161 91.5298C136.881 91.3398 137.791 92.9598 137.281 93.2998C136.731 93.6698 129.421 93.0298 128.061 93.2998C130.211 91.8598 138.151 94.7798 136.921 91.1698H86.7413C86.1713 87.7598 86.3713 83.9598 86.0312 80.5298L139.211 80.8798H139.231V80.8898Z" fill="#D0D7DD"/>
<path d="M76.4722 197.9C76.1022 198.04 75.4322 198.12 75.0522 198.25L73.4522 183L69.7322 200.38C69.4022 200.45 69.0822 200.69 68.7422 200.73C69.0522 198.28 72.7522 180.44 73.4522 179.58C73.9022 179.02 74.7022 179.38 75.0522 180.35L76.4722 197.9Z" fill="#B3BFC7"/>
<path d="M83.6607 79.6798C83.6107 79.6298 82.4907 79.3698 82.2407 79.3298C82.3707 78.5898 81.2007 73.4898 84.1907 74.3598C86.5007 75.0298 84.3307 78.4298 83.6607 79.6798Z" fill="#698091"/>
<path d="M142.391 78.9097C142.391 80.0897 135.601 130.28 134.551 164.02" stroke="#698091" stroke-width="1.57"/>
<path d="M142.391 79.2998C142.391 80.4198 150.261 150.6 150.961 178.02M150.961 178.02C150.991 179.29 149.441 196.92 149.441 198M150.961 178.02L155.711 201.13" stroke="#698091" stroke-width="1.57"/>
<path d="M143.293 79.38L141.523 79.73C141.443 78.88 138.613 75.58 140.993 74.76C144.103 73.7 143.053 78.05 143.293 79.37V79.38Z" fill="#3C5A70"/>
<path d="M82.8398 78.9097C82.8398 80.0897 89.6298 130.28 90.6698 164.02" stroke="#698091" stroke-width="1.57"/>
<path d="M82.8512 79.2998C82.8512 80.4198 74.9812 150.6 74.2812 178.02M74.2812 178.02C74.2513 179.29 75.8013 196.92 75.8013 198M74.2812 178.02L69.5312 201.13" stroke="#698091" stroke-width="1.57"/>
<path d="M81.9414 79.38L83.7114 79.73C83.7914 78.88 86.6214 75.58 84.2414 74.76C81.1314 73.7 82.1814 78.05 81.9414 79.37V79.38Z" fill="#3C5A70"/>
<path d="M140.64 194.35C134.35 193.32 90.59 193.14 84.62 194.35C85.7 187.98 82.89 171.64 85.33 166.51C85.41 166.34 87.81 163.92 87.99 163.85L136.21 163.5C136.94 163.66 139.18 165.49 139.58 166.16C142.42 170.92 139.64 188.1 140.65 194.35H140.64Z" fill="#5F788A"/>
<path d="M156.602 202.16C156.702 203.73 157.042 209.8 155.712 210.32H69.2121C67.1021 209.61 68.1821 203.9 68.3221 202.16H156.612H156.602Z" fill="#5F788A"/>
<path d="M140.651 194.35C142.241 194.61 147.151 197.12 149.161 197.9C149.261 197.94 149.411 197.86 149.511 197.9C151.281 198.57 153.651 200.03 155.541 200.03L156.501 200.74C156.571 201.35 156.551 201.26 156.601 202.16H68.3008C68.4008 200.92 68.6908 201.14 68.7408 200.74C69.0808 200.7 69.3908 200.46 69.7208 200.39C70.6508 200.19 73.7208 198.74 75.0408 198.26C75.4208 198.13 76.0908 198.04 76.4608 197.91C78.5108 197.13 82.9408 194.71 84.6208 194.36C90.6008 193.15 134.351 193.33 140.641 194.36H140.651V194.35Z" fill="#698091"/>
</g>
</svg>
