<svg width="220" height="220" viewBox="0 0 220 220" fill="none" xmlns="http://www.w3.org/2000/svg">
<path d="M153.84 39C154.402 39.3031 154.63 39.6704 155 40.16V42.0459L152.712 79.4618C151.325 81.5575 149.654 79.7358 148.183 78.8293L147.824 79.0742C126.276 111.83 104.926 144.719 83.2897 177.413C82.4328 178.71 81.5905 180.159 80.5295 181.258H79.658C79.0896 180.861 78.8273 180.474 78.9381 179.745L105.199 139.522L89.3115 129.143C88.9238 129.143 88.5012 129.962 88.2301 130.236C82.9924 135.509 75.2743 137.286 68.3432 134.293C67.1919 133.795 65.6791 133.095 65 132.049V131.032C66.2796 129.09 67.9118 130.845 69.4012 131.492C74.4349 133.672 80.1069 132.97 84.4381 129.641C84.7587 129.393 86.8573 127.586 86.627 127.26C85.2047 126.33 83.3801 125.392 82.0801 124.328C80.8501 123.322 80.4741 122.2 81.1503 120.69L120.443 60.6999C119.091 59.5952 116.506 58.8811 117.98 56.6747L152.823 39H153.84ZM137.395 93.1026C137.71 92.8403 138.748 91.1585 138.377 90.6805L113.39 74.1512C112.341 73.3672 110.455 76.381 111.527 77.031L136.081 93.123C136.428 93.3591 137.069 93.3766 137.398 93.1026H137.395ZM104.587 86.2093C104.235 86.3143 102.591 88.579 103.48 88.9987L127.579 104.82C128.164 105.111 128.625 105.674 129.295 105.26C129.782 104.957 131.132 103.036 130.313 102.52L105.138 86.1685C104.952 86.1598 104.765 86.1569 104.587 86.2093ZM95.9628 99.1418C95.5081 99.5062 94.2169 101.509 95.205 101.92L120.248 118.259C121.175 118.391 123.02 115.796 121.603 115.149C113.6 110.375 105.96 104.278 97.9419 99.6169C97.3677 99.2818 96.6245 98.6114 95.9628 99.1418Z" fill="#3C5A70"/>
<path d="M95.9649 99.1419C96.6236 98.6143 97.3669 99.2847 97.944 99.617C105.962 104.275 113.602 110.375 121.605 115.149C123.019 115.796 121.174 118.393 120.25 118.259L95.2071 101.92C94.219 101.509 95.5102 99.5062 95.9649 99.1419Z" fill="#A7B5BF"/>
<path d="M104.587 86.2092C104.767 86.1567 104.954 86.1567 105.138 86.1684L130.312 102.52C131.131 103.033 129.781 104.957 129.295 105.26C128.624 105.676 128.164 105.111 127.578 104.82L103.479 88.9986C102.59 88.5788 104.234 86.3141 104.587 86.2092Z" fill="#A7B5BF"/>
<path d="M137.393 93.1022C137.064 93.3733 136.426 93.3587 136.076 93.1226L111.523 77.0306C110.45 76.3806 112.336 73.3697 113.385 74.1509L138.373 90.6801C138.743 91.1581 137.708 92.8428 137.391 93.1022H137.393Z" fill="#A7B5BF"/>
</svg>
