<svg width="291" height="300" viewBox="0 0 291 300" fill="none" xmlns="http://www.w3.org/2000/svg">
<path d="M35.1049 21V5.6H39.2629C40.8029 5.6 42.1816 5.87867 43.3989 6.436C44.6163 6.97867 45.5843 7.81467 46.3029 8.944C47.0216 10.0733 47.3809 11.4887 47.3809 13.19C47.3809 15.0673 47.0143 16.5927 46.2809 17.766C45.5476 18.9247 44.5943 19.7533 43.4209 20.252C42.2623 20.7507 41.0009 21 39.6369 21H35.1049ZM39.8349 18.866C41.2136 18.866 42.4016 18.4407 43.3989 17.59C44.4109 16.7393 44.9169 15.28 44.9169 13.212C44.9169 11.5693 44.4549 10.2493 43.5309 9.252C42.6216 8.24 41.2356 7.734 39.3729 7.734H37.5029V18.866H39.8349ZM49.3044 9.934H52.5824V21H50.2504V11.694H49.3044V9.934ZM52.4504 7.976H49.8764V5.556H52.4504V7.976ZM65.6401 16.028H57.5661C57.6248 17.172 57.9254 18.03 58.4681 18.602C59.0108 19.1593 59.7221 19.438 60.6021 19.438C61.3354 19.438 61.9148 19.2767 62.3401 18.954C62.7654 18.6313 63.0661 18.2133 63.2421 17.7H65.5521C65.2588 18.8587 64.6648 19.7607 63.7701 20.406C62.8754 21.0367 61.8048 21.352 60.5581 21.352C59.4581 21.352 58.5048 21.11 57.6981 20.626C56.8914 20.1273 56.2754 19.438 55.8501 18.558C55.4248 17.6633 55.2121 16.6367 55.2121 15.478C55.2121 14.378 55.4101 13.388 55.8061 12.508C56.2168 11.6133 56.8181 10.902 57.6101 10.374C58.4168 9.846 59.3848 9.582 60.5141 9.582C62.1861 9.582 63.4548 10.1247 64.3201 11.21C65.2001 12.2953 65.6401 13.7253 65.6401 15.5V16.028ZM63.1981 14.29C63.1394 13.3953 62.8901 12.6987 62.4501 12.2C62.0101 11.6867 61.3648 11.43 60.5141 11.43C59.6634 11.43 58.9961 11.6793 58.5121 12.178C58.0281 12.662 57.7274 13.366 57.6101 14.29H63.1981ZM81.6229 5.6L87.0129 21H84.4829L83.1629 16.952H77.1129L75.7929 21H73.2849L78.6749 5.6H81.6229ZM77.7729 14.906H82.5029L80.1489 7.8L77.7729 14.906ZM92.7267 21.352C91.5387 21.352 90.5707 20.978 89.8227 20.23C89.0747 19.482 88.7007 18.404 88.7007 16.996V9.934H91.0327V16.776C91.0327 18.492 91.7661 19.35 93.2327 19.35C93.9661 19.35 94.5674 19.1153 95.0367 18.646C95.5207 18.162 95.7627 17.502 95.7627 16.666V9.934H98.0947V21H95.8507V19.812C95.5721 20.2813 95.1614 20.6553 94.6187 20.934C94.0907 21.2127 93.4601 21.352 92.7267 21.352ZM105.379 21.352C104.045 21.352 102.945 21.0587 102.079 20.472C101.229 19.8707 100.752 18.9613 100.649 17.744H102.959C103.033 18.3307 103.26 18.7633 103.641 19.042C104.037 19.3207 104.617 19.46 105.379 19.46C106.113 19.46 106.685 19.328 107.095 19.064C107.506 18.8 107.711 18.4333 107.711 17.964C107.711 17.5533 107.579 17.2453 107.315 17.04C107.066 16.8347 106.589 16.6293 105.885 16.424L104.125 15.896C103.099 15.588 102.336 15.2067 101.837 14.752C101.339 14.2827 101.089 13.63 101.089 12.794C101.089 12.1927 101.258 11.65 101.595 11.166C101.947 10.6673 102.453 10.2787 103.113 10C103.773 9.72133 104.543 9.582 105.423 9.582C106.743 9.582 107.799 9.846 108.591 10.374C109.398 10.8873 109.853 11.6793 109.955 12.75H107.623C107.403 11.87 106.67 11.43 105.423 11.43C104.778 11.43 104.279 11.5473 103.927 11.782C103.59 12.002 103.421 12.31 103.421 12.706C103.421 13.014 103.539 13.2707 103.773 13.476C104.023 13.6667 104.441 13.85 105.027 14.026L106.963 14.62C107.99 14.928 108.76 15.3167 109.273 15.786C109.801 16.2407 110.065 16.9447 110.065 17.898C110.065 18.9687 109.655 19.812 108.833 20.428C108.027 21.044 106.875 21.352 105.379 21.352ZM118.334 21.352C116.75 21.352 115.613 20.802 114.924 19.702V21H112.68V5.6H115.012V11.188C115.349 10.7187 115.789 10.3373 116.332 10.044C116.889 9.736 117.535 9.582 118.268 9.582C119.295 9.582 120.197 9.83867 120.974 10.352C121.766 10.8507 122.375 11.5473 122.8 12.442C123.24 13.3367 123.46 14.3487 123.46 15.478C123.46 16.5927 123.24 17.5973 122.8 18.492C122.375 19.3867 121.773 20.0907 120.996 20.604C120.219 21.1027 119.331 21.352 118.334 21.352ZM118.026 19.372C119.009 19.372 119.764 19.0273 120.292 18.338C120.82 17.634 121.084 16.6807 121.084 15.478C121.084 14.2753 120.813 13.322 120.27 12.618C119.742 11.914 118.994 11.562 118.026 11.562C117.029 11.562 116.259 11.9067 115.716 12.596C115.173 13.2707 114.902 14.2313 114.902 15.478C114.902 16.7247 115.173 17.6853 115.716 18.36C116.259 19.0347 117.029 19.372 118.026 19.372ZM126.108 21V9.934H128.352V11.782C128.63 11.0047 129.026 10.4473 129.54 10.11C130.053 9.758 130.713 9.582 131.52 9.582C131.784 9.582 132.055 9.604 132.334 9.648V11.892C131.982 11.848 131.681 11.826 131.432 11.826C130.493 11.826 129.76 12.1413 129.232 12.772C128.704 13.4027 128.44 14.3487 128.44 15.61V21H126.108ZM143.886 16.028H135.812C135.871 17.172 136.172 18.03 136.714 18.602C137.257 19.1593 137.968 19.438 138.848 19.438C139.582 19.438 140.161 19.2767 140.586 18.954C141.012 18.6313 141.312 18.2133 141.488 17.7H143.798C143.505 18.8587 142.911 19.7607 142.016 20.406C141.122 21.0367 140.051 21.352 138.804 21.352C137.704 21.352 136.751 21.11 135.944 20.626C135.138 20.1273 134.522 19.438 134.096 18.558C133.671 17.6633 133.458 16.6367 133.458 15.478C133.458 14.378 133.656 13.388 134.052 12.508C134.463 11.6133 135.064 10.902 135.856 10.374C136.663 9.846 137.631 9.582 138.76 9.582C140.432 9.582 141.701 10.1247 142.566 11.21C143.446 12.2953 143.886 13.7253 143.886 15.5V16.028ZM141.444 14.29C141.386 13.3953 141.136 12.6987 140.696 12.2C140.256 11.6867 139.611 11.43 138.76 11.43C137.91 11.43 137.242 11.6793 136.758 12.178C136.274 12.662 135.974 13.366 135.856 14.29H141.444ZM151.073 21.352C149.929 21.352 148.947 21.0953 148.125 20.582C147.319 20.054 146.703 19.35 146.277 18.47C145.867 17.5753 145.661 16.578 145.661 15.478C145.661 14.378 145.874 13.3807 146.299 12.486C146.725 11.5913 147.348 10.8873 148.169 10.374C149.005 9.846 150.003 9.582 151.161 9.582C152.364 9.582 153.427 9.89 154.351 10.506C155.275 11.1073 155.833 12.0167 156.023 13.234H153.669C153.508 12.662 153.2 12.244 152.745 11.98C152.291 11.7013 151.763 11.562 151.161 11.562C150.149 11.562 149.372 11.9067 148.829 12.596C148.301 13.2707 148.037 14.2313 148.037 15.478C148.037 16.7247 148.294 17.6853 148.807 18.36C149.321 19.0347 150.076 19.372 151.073 19.372C152.423 19.372 153.303 18.778 153.713 17.59H156.089C155.855 18.8073 155.268 19.7387 154.329 20.384C153.391 21.0293 152.305 21.352 151.073 21.352ZM158.549 21V5.6H160.881V11.078C161.189 10.6087 161.6 10.242 162.113 9.978C162.626 9.714 163.213 9.582 163.873 9.582C165.061 9.582 166.036 9.97067 166.799 10.748C167.562 11.5253 167.943 12.618 167.943 14.026V21H165.611V14.246C165.611 13.366 165.42 12.706 165.039 12.266C164.658 11.8113 164.115 11.584 163.411 11.584C162.678 11.584 162.069 11.826 161.585 12.31C161.116 12.7793 160.881 13.432 160.881 14.268V21H158.549ZM180.904 16.028H172.83C172.888 17.172 173.189 18.03 173.732 18.602C174.274 19.1593 174.986 19.438 175.866 19.438C176.599 19.438 177.178 19.2767 177.604 18.954C178.029 18.6313 178.33 18.2133 178.506 17.7H180.816C180.522 18.8587 179.928 19.7607 179.034 20.406C178.139 21.0367 177.068 21.352 175.822 21.352C174.722 21.352 173.768 21.11 172.962 20.626C172.155 20.1273 171.539 19.438 171.114 18.558C170.688 17.6633 170.476 16.6367 170.476 15.478C170.476 14.378 170.674 13.388 171.07 12.508C171.48 11.6133 172.082 10.902 172.874 10.374C173.68 9.846 174.648 9.582 175.778 9.582C177.45 9.582 178.718 10.1247 179.584 11.21C180.464 12.2953 180.904 13.7253 180.904 15.5V16.028ZM178.462 14.29C178.403 13.3953 178.154 12.6987 177.714 12.2C177.274 11.6867 176.628 11.43 175.778 11.43C174.927 11.43 174.26 11.6793 173.776 12.178C173.292 12.662 172.991 13.366 172.874 14.29H178.462ZM183.471 21V9.934H185.715V11.782C185.994 11.0047 186.39 10.4473 186.903 10.11C187.416 9.758 188.076 9.582 188.883 9.582C189.147 9.582 189.418 9.604 189.697 9.648V11.892C189.345 11.848 189.044 11.826 188.795 11.826C187.856 11.826 187.123 12.1413 186.595 12.772C186.067 13.4027 185.803 14.3487 185.803 15.61V21H183.471ZM196.064 11.54L194.238 14.84L192.368 13.696L194.876 10.594L191.224 9.912L191.906 7.91L195.294 9.318L194.92 5.6H197.12L196.768 9.318L200.156 7.91L200.838 9.912L197.252 10.594L199.738 13.652L197.89 14.84L196.064 11.54ZM202.488 9.934H205.766V21H203.434V11.694H202.488V9.934ZM205.634 7.976H203.06V5.556H205.634V7.976ZM209.188 21V9.934H211.432V11.144C211.71 10.6747 212.114 10.3007 212.642 10.022C213.17 9.72867 213.793 9.582 214.512 9.582C215.7 9.582 216.675 9.97067 217.438 10.748C218.2 11.5253 218.582 12.618 218.582 14.026V21H216.25V14.246C216.25 13.366 216.059 12.706 215.678 12.266C215.296 11.8113 214.754 11.584 214.05 11.584C213.316 11.584 212.708 11.826 212.224 12.31C211.754 12.7793 211.52 13.432 211.52 14.268V21H209.188ZM221.906 21V9.934H224.15V11.144C224.429 10.6747 224.832 10.3007 225.36 10.022C225.888 9.72867 226.512 9.582 227.23 9.582C228.418 9.582 229.394 9.97067 230.156 10.748C230.919 11.5253 231.3 12.618 231.3 14.026V21H228.968V14.246C228.968 13.366 228.778 12.706 228.396 12.266C228.015 11.8113 227.472 11.584 226.768 11.584C226.035 11.584 225.426 11.826 224.942 12.31C224.473 12.7793 224.238 13.432 224.238 14.268V21H221.906ZM244.261 16.028H236.187C236.246 17.172 236.547 18.03 237.089 18.602C237.632 19.1593 238.343 19.438 239.223 19.438C239.957 19.438 240.536 19.2767 240.961 18.954C241.387 18.6313 241.687 18.2133 241.863 17.7H244.173C243.88 18.8587 243.286 19.7607 242.391 20.406C241.497 21.0367 240.426 21.352 239.179 21.352C238.079 21.352 237.126 21.11 236.319 20.626C235.513 20.1273 234.897 19.438 234.471 18.558C234.046 17.6633 233.833 16.6367 233.833 15.478C233.833 14.378 234.031 13.388 234.427 12.508C234.838 11.6133 235.439 10.902 236.231 10.374C237.038 9.846 238.006 9.582 239.135 9.582C240.807 9.582 242.076 10.1247 242.941 11.21C243.821 12.2953 244.261 13.7253 244.261 15.5V16.028ZM241.819 14.29C241.761 13.3953 241.511 12.6987 241.071 12.2C240.631 11.6867 239.986 11.43 239.135 11.43C238.285 11.43 237.617 11.6793 237.133 12.178C236.649 12.662 236.349 13.366 236.231 14.29H241.819ZM246.828 21V9.934H249.072V11.144C249.351 10.6747 249.754 10.3007 250.282 10.022C250.81 9.72867 251.434 9.582 252.152 9.582C253.34 9.582 254.316 9.97067 255.078 10.748C255.841 11.5253 256.222 12.618 256.222 14.026V21H253.89V14.246C253.89 13.366 253.7 12.706 253.318 12.266C252.937 11.8113 252.394 11.584 251.69 11.584C250.957 11.584 250.348 11.826 249.864 12.31C249.395 12.7793 249.16 13.432 249.16 14.268V21H246.828Z" fill="#272623"/>
<g clip-path="url(#clip0_339_1585)">
<path d="M191.651 204.786C205.854 225.694 222.419 245.148 240.5 262.789C237.29 266.234 235.201 268.177 231.656 271.241H60.5013C56.9209 268.142 53.6985 265.138 50.5 261.633C67.6382 243.205 84.8003 224.526 98.9667 203.63C99.5992 209.602 100.9 217.016 108.395 212.081C114.709 207.921 114.374 196.74 119.554 193.259C123.803 190.398 128.791 192.198 129.746 197.288C131.93 208.97 120.688 213.535 119.363 223.405C118.384 230.712 121.487 240.391 130.319 235.123C142.755 227.708 135.439 200.721 146.085 198.623C158.139 196.263 152.649 210.019 152.434 214.954C151.515 235.48 175.981 233.084 171.661 214.191C170.432 208.791 159.01 194.976 168.773 189.802C177.676 185.082 175.516 200.161 177.425 205.358C181.161 215.55 190.744 218.125 191.651 204.786Z" fill="#6369D2"/>
<path d="M128.957 165.986C131.129 165.915 133.325 166.022 135.497 165.986C136.523 165.974 137.55 165.986 138.576 165.986C140.235 165.962 141.918 165.998 143.577 165.986C144.209 165.986 144.866 165.986 145.498 165.986C146.775 165.986 148.064 165.974 149.341 165.986C150.105 165.986 150.881 165.986 151.645 165.986C155.213 166.034 158.865 165.831 162.41 165.986C164.176 166.058 168.055 165.497 169.332 166.558C175.705 179.909 183.343 192.568 191.638 204.786C190.731 218.125 181.135 215.55 177.412 205.358C175.502 200.161 177.662 185.082 168.759 189.802C158.996 194.988 170.406 208.803 171.647 214.191C175.968 233.084 151.501 235.48 152.42 214.954C152.635 210.019 158.125 196.263 146.071 198.623C135.414 200.709 142.741 227.697 130.306 235.123C121.474 240.391 118.359 230.712 119.349 223.405C120.674 213.524 131.917 208.97 129.733 197.288C128.778 192.198 123.789 190.398 119.54 193.259C114.361 196.74 114.695 207.921 108.382 212.081C100.898 217.016 99.5976 209.602 98.9531 203.63C107.105 191.59 113.967 178.55 121.068 165.986C123.694 165.926 126.331 166.081 128.957 165.986Z" fill="#FEB696"/>
<path d="M162.422 165.986C158.877 165.831 155.225 166.034 151.657 165.986C152.385 157.284 155.309 144.649 160.882 137.747C164.26 133.575 163.639 136.245 167.232 135.256C170.824 134.267 173.999 132.765 176.66 130.071C166.253 134.493 151.382 132.586 153.005 118.353C149.067 123.765 138.97 124.742 134.352 119.891C133.146 118.627 132.251 116.148 131.654 114.515C131.487 114.05 131.929 112.953 131.463 112.596C128.826 116.1 123.933 116.255 121.08 112.977C120.794 113.204 120.639 115.838 120.507 116.434C120.316 117.269 119.326 120.63 119.35 120.856C119.397 121.333 123.706 127.579 124.35 128.926C129.912 140.668 134.017 153.017 135.509 165.998C133.337 166.034 131.141 165.926 128.969 165.998C126.606 153.386 120.889 141.657 112.237 132.192C98.0582 150.561 70.0595 131.513 82.0419 111.642C83.0563 109.95 88.1166 105.921 88.2002 105.491C88.2837 105.038 86.3861 100.831 86.2787 99.734C85.1688 88.9701 92.0789 77.7175 103.393 76.4898C105.434 76.2633 111.079 77.3599 111.473 77.2527C111.867 77.1454 115.375 71.9363 116.855 70.7204C125.83 63.3896 139.209 64.7365 146.465 73.7958C156.992 65.5948 172.722 66.6438 181.661 76.6805C182.771 77.9321 186.053 84.0114 186.47 84.1663C187.437 84.5359 192.068 84.1067 194.168 84.5478C204.957 86.8603 209.218 97.8387 208.585 107.792C208.526 108.698 206.962 111.38 207.046 112.405C207.081 112.834 209.11 116.208 209.349 117.4C213.168 135.769 191.722 148.261 177.615 136.031C170.156 144.268 162.995 154.555 162.422 165.998V165.986Z" fill="#EE705D"/>
<path d="M130.495 118.353C130.65 122.811 134.088 130.965 135.114 135.828C136.594 142.837 137.62 150.013 138.384 157.153C138.444 149.775 137.954 141.466 137.035 133.909C136.475 129.26 135.52 124.432 134.338 119.891C138.957 124.742 149.054 123.765 152.992 118.353C151.369 132.586 166.24 134.493 176.647 130.071C173.997 132.765 170.811 134.267 167.218 135.256C163.626 136.245 164.258 133.575 160.869 137.747C155.284 144.637 152.372 157.284 151.644 165.986C150.88 165.986 150.104 165.986 149.34 165.986C148.35 156.736 150.02 148.07 152.801 139.285C153.195 138.033 155.988 133.134 155.88 132.371C155.809 131.871 150.152 126.101 150.689 123.729C149.985 125.744 144.172 125.922 143.958 126.22C142.872 127.746 144.853 149.036 145.115 152.54L144.542 151.777C143.253 154.65 144.005 152.457 142.43 151.777C142.144 150.144 141.929 148.523 141.272 146.973C139.279 152.85 140.115 159.788 138.575 165.986C137.549 165.986 136.522 165.974 135.496 165.986C134.016 153.005 129.899 140.656 124.337 128.914C123.693 127.567 119.384 121.321 119.336 120.844C119.312 120.618 120.303 117.268 120.494 116.422C123.8 119.14 126.581 118.103 130.495 118.341V118.353Z" fill="#FED267"/>
<path d="M134.339 119.891C135.509 124.432 136.463 129.26 137.036 133.909C137.955 141.454 138.445 149.775 138.385 157.153C137.621 150.013 136.595 142.849 135.115 135.828C134.088 130.965 130.651 122.799 130.496 118.353C130.448 116.923 130.496 115.552 131.654 114.515C132.25 116.148 133.146 118.627 134.351 119.891H134.339Z" fill="#F9604C"/>
<path d="M131.655 114.515C130.509 115.552 130.45 116.923 130.497 118.353C126.583 118.115 123.802 119.152 120.496 116.434C120.627 115.838 120.783 113.204 121.069 112.977C123.921 116.243 128.815 116.088 131.452 112.596C131.918 112.953 131.476 114.05 131.643 114.515H131.655Z" fill="#FED267"/>
<path d="M149.341 165.986C148.064 165.974 146.775 165.986 145.498 165.986C145.665 161.48 145.451 157.034 145.116 152.54C144.854 149.048 142.885 127.758 143.959 126.221C144.174 125.923 149.986 125.744 150.69 123.729C150.153 126.101 155.81 131.871 155.881 132.371C155.989 133.134 153.196 138.033 152.802 139.285C150.022 148.07 148.351 156.724 149.341 165.986Z" fill="#F9604C"/>
<path d="M142.421 151.777C143.257 156.438 143.268 161.278 143.579 165.986C141.92 165.998 140.237 165.962 138.578 165.986C140.106 159.776 139.27 152.838 141.275 146.973C141.92 148.511 142.135 150.144 142.433 151.777H142.421Z" fill="#F9604C"/>
<path d="M145.115 152.54C145.449 157.034 145.664 161.468 145.497 165.986C144.865 165.986 144.208 165.986 143.576 165.986C143.265 161.266 143.253 156.438 142.418 151.777C143.993 152.457 143.241 154.65 144.53 151.777L145.103 152.54H145.115Z" fill="#F9604C"/>
</g>
<defs>
<clipPath id="clip0_339_1585">
<rect width="190" height="205.241" fill="white" transform="translate(50.5 66)"/>
</clipPath>
</defs>
</svg>
