<svg width="220" height="220" viewBox="0 0 220 220" fill="none" xmlns="http://www.w3.org/2000/svg">
<g clip-path="url(#clip0_476_471)">
<path d="M48 103.11C48 130.59 72.23 150.97 99.13 148.09C110.49 146.88 120.32 141.67 128.97 134.79C141.27 124.99 153.63 101.61 149.36 99.6003C147.38 98.6603 142.72 109.15 140.54 107.77C138.9 106.73 148.6 91.1003 145.93 89.8803C143.6 88.8403 139.75 101.31 138.01 100.68C136.31 100.06 143.81 86.6803 141.31 85.8903C138.85 85.0903 134.12 98.7804 132.73 98.3604C131.27 97.8704 138.15 86.2403 135.96 85.1203C133.85 84.0403 129.64 96.7504 127.94 96.2404C126.48 95.7904 131.76 87.8703 129.58 87.0003C127.84 86.3103 123.54 90.6503 122.94 91.6203C117.37 100.78 115.61 107.56 105.35 112.01C96.33 115.92 95.52 94.7903 99.62 93.3703C102.5 92.3303 106.81 86.9303 108.1 84.3903C109.7 81.3403 108.28 76.8503 110.71 74.4203C96.75 60.4503 74.23 60.6003 60.13 74.4203C51.58 82.7503 48 93.0004 48 103.11Z" fill="#A7B5BF"/>
<path d="M101.18 112.1C102.37 113.07 93.0305 126.4 95.7705 127.54C99.2505 129.01 104.42 112.01 107.12 113.88C108.38 114.75 102.52 125.67 105.22 126.78C107.74 127.81 107.52 126.07 112.72 115.03C120.27 99.0297 126.86 85.8997 129.57 86.9797C131.76 87.8497 126.47 95.7697 127.93 96.2197C129.63 96.7397 133.84 84.0297 135.95 85.0997C138.14 86.2097 131.26 97.8397 132.72 98.3397C134.11 98.7497 138.84 85.0697 141.3 85.8697C143.8 86.6697 136.3 100.04 138 100.67C139.73 101.29 143.59 88.8297 145.92 89.8697C148.59 91.0897 138.9 106.71 140.53 107.76C142.72 109.15 147.38 98.6597 149.35 99.5897C153.62 101.61 139.24 123.49 126.95 133.28C118.3 140.16 105.26 149.6 81.4805 146.24L83.1805 148.04C124.06 181.07 202.22 114.83 161.26 74.3997C147.19 60.5397 125.12 60.9297 110.68 74.3997C102.14 82.3697 82.5005 108.99 83.6505 110.47C85.5605 112.93 91.5305 102.97 93.3305 104.69C94.8605 106.16 83.0705 116.64 84.9505 118.62C86.7005 120.47 96.9905 107.54 96.8705 109.38C96.7505 111.19 85.8205 124.42 88.1105 126.29C90.1105 127.93 99.9905 111.15 101.14 112.09H101.15L101.18 112.1Z" fill="#3C5A70"/>
</g>
<defs>
<clipPath id="clip0_476_471">
<rect width="124.81" height="92.99" fill="white" transform="translate(48 64)"/>
</clipPath>
</defs>
</svg>
