<svg width="291" height="300" viewBox="0 0 291 300" fill="none" xmlns="http://www.w3.org/2000/svg">
<path d="M58.8237 21V5.6H62.9817C64.5217 5.6 65.9004 5.87867 67.1177 6.436C68.335 6.97867 69.303 7.81467 70.0217 8.944C70.7404 10.0733 71.0997 11.4887 71.0997 13.19C71.0997 15.0673 70.733 16.5927 69.9997 17.766C69.2664 18.9247 68.313 19.7533 67.1397 20.252C65.981 20.7507 64.7197 21 63.3557 21H58.8237ZM63.5537 18.866C64.9324 18.866 66.1204 18.4407 67.1177 17.59C68.1297 16.7393 68.6357 15.28 68.6357 13.212C68.6357 11.5693 68.1737 10.2493 67.2497 9.252C66.3404 8.24 64.9544 7.734 63.0917 7.734H61.2217V18.866H63.5537ZM73.0231 9.934H76.3011V21H73.9691V11.694H73.0231V9.934ZM76.1691 7.976H73.5951V5.556H76.1691V7.976ZM89.3588 16.028H81.2848C81.3435 17.172 81.6442 18.03 82.1868 18.602C82.7295 19.1593 83.4408 19.438 84.3208 19.438C85.0542 19.438 85.6335 19.2767 86.0588 18.954C86.4842 18.6313 86.7848 18.2133 86.9608 17.7H89.2708C88.9775 18.8587 88.3835 19.7607 87.4888 20.406C86.5942 21.0367 85.5235 21.352 84.2768 21.352C83.1768 21.352 82.2235 21.11 81.4168 20.626C80.6102 20.1273 79.9942 19.438 79.5688 18.558C79.1435 17.6633 78.9308 16.6367 78.9308 15.478C78.9308 14.378 79.1288 13.388 79.5248 12.508C79.9355 11.6133 80.5368 10.902 81.3288 10.374C82.1355 9.846 83.1035 9.582 84.2328 9.582C85.9048 9.582 87.1735 10.1247 88.0388 11.21C88.9188 12.2953 89.3588 13.7253 89.3588 15.5V16.028ZM86.9168 14.29C86.8582 13.3953 86.6088 12.6987 86.1688 12.2C85.7288 11.6867 85.0835 11.43 84.2328 11.43C83.3822 11.43 82.7148 11.6793 82.2308 12.178C81.7468 12.662 81.4462 13.366 81.3288 14.29H86.9168ZM108.268 21H98.7417V5.6H108.268V7.69H101.14V12.112H107.432V14.18H101.14V18.91H108.268V21ZM109.976 9.934H113.254V21H110.922V11.694H109.976V9.934ZM113.122 7.976H110.548V5.556H113.122V7.976ZM116.676 21V9.934H118.92V11.144C119.199 10.6747 119.602 10.3007 120.13 10.022C120.658 9.72867 121.281 9.582 122 9.582C123.188 9.582 124.163 9.97067 124.926 10.748C125.689 11.5253 126.07 12.618 126.07 14.026V21H123.738V14.246C123.738 13.366 123.547 12.706 123.166 12.266C122.785 11.8113 122.242 11.584 121.538 11.584C120.805 11.584 120.196 11.826 119.712 12.31C119.243 12.7793 119.008 13.432 119.008 14.268V21H116.676ZM130.033 21V11.694H128.317V9.934H130.033V8.614C130.033 7.54333 130.363 6.71467 131.023 6.128C131.697 5.54133 132.658 5.248 133.905 5.248C134.389 5.248 134.917 5.29933 135.489 5.402V7.294C135.019 7.22067 134.565 7.184 134.125 7.184C133.509 7.184 133.061 7.316 132.783 7.58C132.504 7.844 132.365 8.26933 132.365 8.856V9.934H135.401V11.694H132.365V21H130.033ZM141.131 21.352C139.943 21.352 138.975 20.978 138.227 20.23C137.479 19.482 137.105 18.404 137.105 16.996V9.934H139.437V16.776C139.437 18.492 140.17 19.35 141.637 19.35C142.37 19.35 142.972 19.1153 143.441 18.646C143.925 18.162 144.167 17.502 144.167 16.666V9.934H146.499V21H144.255V19.812C143.976 20.2813 143.566 20.6553 143.023 20.934C142.495 21.2127 141.864 21.352 141.131 21.352ZM140.823 8.152H138.293V5.732H140.823V8.152ZM145.421 8.152H142.891V5.732H145.421V8.152ZM149.934 21V5.6H152.266V11.078C152.574 10.6087 152.984 10.242 153.498 9.978C154.011 9.714 154.598 9.582 155.258 9.582C156.446 9.582 157.421 9.97067 158.184 10.748C158.946 11.5253 159.328 12.618 159.328 14.026V21H156.996V14.246C156.996 13.366 156.805 12.706 156.424 12.266C156.042 11.8113 155.5 11.584 154.796 11.584C154.062 11.584 153.454 11.826 152.97 12.31C152.5 12.7793 152.266 13.432 152.266 14.268V21H149.934ZM165.557 21.264C163.621 21.264 162.653 20.2813 162.653 18.316V5.6H164.985V18.228C164.985 18.9467 165.329 19.306 166.019 19.306C166.209 19.306 166.437 19.2913 166.701 19.262V21.11C166.393 21.2127 166.011 21.264 165.557 21.264ZM172.411 21.352C171.076 21.352 169.976 21.0587 169.111 20.472C168.26 19.8707 167.783 18.9613 167.681 17.744H169.991C170.064 18.3307 170.291 18.7633 170.673 19.042C171.069 19.3207 171.648 19.46 172.411 19.46C173.144 19.46 173.716 19.328 174.127 19.064C174.537 18.8 174.743 18.4333 174.743 17.964C174.743 17.5533 174.611 17.2453 174.347 17.04C174.097 16.8347 173.621 16.6293 172.917 16.424L171.157 15.896C170.13 15.588 169.367 15.2067 168.869 14.752C168.37 14.2827 168.121 13.63 168.121 12.794C168.121 12.1927 168.289 11.65 168.627 11.166C168.979 10.6673 169.485 10.2787 170.145 10C170.805 9.72133 171.575 9.582 172.455 9.582C173.775 9.582 174.831 9.846 175.623 10.374C176.429 10.8873 176.884 11.6793 176.987 12.75H174.655C174.435 11.87 173.701 11.43 172.455 11.43C171.809 11.43 171.311 11.5473 170.959 11.782C170.621 12.002 170.453 12.31 170.453 12.706C170.453 13.014 170.57 13.2707 170.805 13.476C171.054 13.6667 171.472 13.85 172.059 14.026L173.995 14.62C175.021 14.928 175.791 15.3167 176.305 15.786C176.833 16.2407 177.097 16.9447 177.097 17.898C177.097 18.9687 176.686 19.812 175.865 20.428C175.058 21.044 173.907 21.352 172.411 21.352ZM184.114 9.582C185.551 9.582 186.658 9.912 187.436 10.572C188.213 11.232 188.602 12.2073 188.602 13.498V21H186.512V19.284C185.705 20.6627 184.429 21.352 182.684 21.352C181.95 21.352 181.29 21.2053 180.704 20.912C180.132 20.6187 179.684 20.2227 179.362 19.724C179.039 19.2107 178.878 18.6607 178.878 18.074C178.878 16.9447 179.23 16.1087 179.934 15.566C180.652 15.0087 181.76 14.5907 183.256 14.312L184.444 14.092C185.177 13.9453 185.668 13.784 185.918 13.608C186.167 13.432 186.292 13.146 186.292 12.75C186.292 12.3393 186.108 12.002 185.742 11.738C185.39 11.4593 184.847 11.32 184.114 11.32C182.588 11.32 181.76 11.892 181.628 13.036H179.406C179.567 11.8773 180.08 11.012 180.946 10.44C181.826 9.868 182.882 9.582 184.114 9.582ZM186.27 15.082C186.152 15.214 185.947 15.3313 185.654 15.434C185.375 15.5367 184.972 15.6393 184.444 15.742L183.3 15.962C181.921 16.226 181.232 16.864 181.232 17.876C181.232 18.3453 181.408 18.7193 181.76 18.998C182.126 19.2767 182.618 19.416 183.234 19.416C184.114 19.416 184.84 19.1593 185.412 18.646C185.984 18.1327 186.27 17.37 186.27 16.358V15.082ZM203.709 9.582C204.853 9.582 205.784 9.97067 206.503 10.748C207.221 11.5107 207.581 12.5813 207.581 13.96V21H205.249V14.18C205.249 13.3293 205.08 12.684 204.743 12.244C204.42 11.804 203.936 11.584 203.291 11.584C202.601 11.584 202.022 11.826 201.553 12.31C201.083 12.7793 200.849 13.432 200.849 14.268V21H198.539V14.18C198.539 13.3293 198.37 12.684 198.033 12.244C197.71 11.804 197.219 11.584 196.559 11.584C195.869 11.584 195.29 11.826 194.821 12.31C194.366 12.7793 194.139 13.432 194.139 14.268V21H191.807V9.934H194.051V11.144C194.329 10.66 194.718 10.2787 195.217 10C195.715 9.72133 196.317 9.582 197.021 9.582C197.739 9.582 198.385 9.75067 198.957 10.088C199.543 10.4253 199.998 10.902 200.321 11.518C200.673 10.8727 201.142 10.3887 201.729 10.066C202.315 9.74333 202.975 9.582 203.709 9.582ZM220.542 16.028H212.468C212.527 17.172 212.828 18.03 213.37 18.602C213.913 19.1593 214.624 19.438 215.504 19.438C216.238 19.438 216.817 19.2767 217.242 18.954C217.668 18.6313 217.968 18.2133 218.144 17.7H220.454C220.161 18.8587 219.567 19.7607 218.672 20.406C217.778 21.0367 216.707 21.352 215.46 21.352C214.36 21.352 213.407 21.11 212.6 20.626C211.794 20.1273 211.178 19.438 210.752 18.558C210.327 17.6633 210.114 16.6367 210.114 15.478C210.114 14.378 210.312 13.388 210.708 12.508C211.119 11.6133 211.72 10.902 212.512 10.374C213.319 9.846 214.287 9.582 215.416 9.582C217.088 9.582 218.357 10.1247 219.222 11.21C220.102 12.2953 220.542 13.7253 220.542 15.5V16.028ZM218.1 14.29C218.042 13.3953 217.792 12.6987 217.352 12.2C216.912 11.6867 216.267 11.43 215.416 11.43C214.566 11.43 213.898 11.6793 213.414 12.178C212.93 12.662 212.63 13.366 212.512 14.29H218.1ZM223.11 21V9.934H225.354V11.144C225.632 10.6747 226.036 10.3007 226.564 10.022C227.092 9.72867 227.715 9.582 228.434 9.582C229.622 9.582 230.597 9.97067 231.36 10.748C232.122 11.5253 232.504 12.618 232.504 14.026V21H230.172V14.246C230.172 13.366 229.981 12.706 229.6 12.266C229.218 11.8113 228.676 11.584 227.972 11.584C227.238 11.584 226.63 11.826 226.146 12.31C225.676 12.7793 225.442 13.432 225.442 14.268V21H223.11Z" fill="#272623"/>
<path d="M120.5 80.7915C120.5 91.1836 129.666 98.8907 139.837 97.8024C144.132 97.3429 147.849 95.3726 151.12 92.7715C155.77 89.0672 160.446 80.2268 158.831 79.4647C158.082 79.11 156.322 83.0771 155.494 82.5518C154.877 82.1576 158.542 76.2467 157.53 75.7869C156.65 75.3926 155.192 80.1083 154.535 79.872C153.892 79.6357 156.729 74.5781 155.783 74.2761C154.851 73.9741 153.064 79.1495 152.539 78.992C151.987 78.808 154.588 74.4076 153.76 73.9871C152.959 73.5799 151.369 78.3877 150.726 78.1905C150.174 78.0199 152.171 75.0249 151.343 74.6964C150.686 74.435 149.059 76.0741 148.834 76.4443C146.73 79.9106 146.061 82.4721 142.183 84.153C138.771 85.632 138.467 77.6426 140.017 77.1041C141.108 76.7098 142.738 74.6678 143.224 73.7088C143.828 72.5528 143.291 70.8606 144.21 69.9408C138.93 64.6602 130.417 64.7127 125.084 69.9408C121.853 73.0936 120.5 76.9687 120.5 80.7911L120.5 80.7915Z" fill="#F9604C"/>
<path d="M140.607 84.1926C141.058 84.5609 137.527 89.5984 138.56 90.0332C139.874 90.5864 141.83 84.1607 142.854 84.8695C143.329 85.1982 141.115 89.3265 142.137 89.7456C143.087 90.1353 143.005 89.4783 144.974 85.3041C147.828 79.2542 150.322 74.2891 151.347 74.6963C152.174 75.0248 150.178 78.0197 150.729 78.1904C151.373 78.3876 152.962 73.5798 153.764 73.987C154.591 74.4075 151.99 78.8077 152.542 78.9919C153.068 79.1494 154.854 73.974 155.786 74.2761C156.732 74.5781 153.895 79.6357 154.538 79.8719C155.195 80.1082 156.653 75.3928 157.533 75.7868C158.545 76.2464 154.88 82.1575 155.497 82.5517C156.325 83.077 158.085 79.1099 158.834 79.4647C160.45 80.2267 155.012 88.5024 150.362 92.2067C147.091 94.8075 142.157 98.3797 133.168 97.1082L133.81 97.7894C149.271 110.281 178.827 85.2316 163.34 69.9412C158.02 64.7001 149.674 64.8462 144.214 69.9412C140.985 72.955 133.559 83.0215 133.994 83.582C134.718 84.5141 136.973 80.744 137.654 81.3966C138.234 81.9525 133.775 85.915 134.484 86.6631C135.147 87.3633 139.037 82.4721 138.993 83.1686C138.945 83.8527 134.815 88.8539 135.681 89.5628C136.44 90.1837 140.174 83.8379 140.607 84.1924V84.1926Z" fill="#F9604C"/>
<path d="M50.5018 175.539C50.5018 217.37 87.3934 248.392 128.334 244.012C145.624 242.162 160.587 234.231 173.752 223.762C192.47 208.851 211.294 173.266 204.791 170.199C201.777 168.771 194.691 184.739 191.36 182.625C188.875 181.038 203.627 157.245 199.556 155.394C196.012 153.808 190.143 172.789 187.5 171.838C184.909 170.887 196.329 150.529 192.522 149.313C188.769 148.098 181.577 168.93 179.462 168.296C177.242 167.555 187.711 149.843 184.379 148.15C181.155 146.511 174.757 165.863 172.165 165.069C169.944 164.383 177.981 152.327 174.65 151.005C172.004 149.953 165.455 156.55 164.55 158.041C156.082 171.993 153.387 182.304 137.78 189.07C124.046 195.023 122.822 162.864 129.062 160.696C133.451 159.11 140.013 150.89 141.969 147.03C144.401 142.377 142.237 135.565 145.938 131.863C124.684 110.607 90.4202 110.818 68.9531 131.863C55.9462 144.553 50.5 160.152 50.5 175.537L50.5018 175.539Z" fill="#FED267"/>
<path d="M131.446 189.229C133.258 190.712 119.047 210.989 123.204 212.739C128.492 214.966 136.367 189.101 140.488 191.954C142.401 193.277 133.487 209.894 137.601 211.581C141.426 213.15 141.096 210.505 149.021 193.703C160.508 169.351 170.549 149.365 174.673 151.004C178.004 152.327 169.967 164.382 172.188 165.069C174.78 165.863 181.177 146.51 184.402 148.15C187.733 149.842 177.264 167.554 179.484 168.295C181.6 168.929 188.79 148.097 192.544 149.313C196.351 150.529 184.93 170.886 187.521 171.838C190.164 172.789 196.034 153.808 199.577 155.394C203.648 157.244 188.895 181.037 191.381 182.624C194.713 184.739 201.798 168.77 204.812 170.198C211.315 173.265 189.426 206.577 170.708 221.488C157.542 231.957 137.683 246.335 101.5 241.217L104.086 243.959C166.319 294.242 285.287 193.411 222.949 131.864C201.534 110.767 167.94 111.355 145.963 131.864C132.964 143.995 103.076 184.515 104.826 186.771C107.737 190.523 116.817 175.348 119.558 177.975C121.892 180.212 103.942 196.162 106.796 199.174C109.465 201.992 125.125 182.304 124.947 185.107C124.755 187.861 108.13 207.992 111.617 210.845C114.671 213.345 129.703 187.801 131.446 189.228V189.229Z" fill="#6369D2"/>
</svg>
