<svg width="220" height="220" viewBox="0 0 220 220" fill="none" xmlns="http://www.w3.org/2000/svg">
<g clip-path="url(#clip0_476_497)">
<path d="M128.019 90.63L127.809 90.42C128.019 89.87 128.539 90.49 128.019 90.63Z" fill="#8295A3"/>
<path d="M60.6312 141.17C60.6312 141.17 44.1912 148.12 37.7912 149.23C35.7612 149.58 33.8112 148.81 35.9012 147.11C38.6412 144.88 49.8012 143.57 55.3612 141.6C86.0412 130.67 113.021 115.47 140.351 97.9801C143.151 96.1901 147.331 93.7901 149.821 91.8401C149.901 91.7801 150.651 91.2001 150.031 91.2001C123.431 107.07 96.3812 122.68 67.2512 133.45C71.3712 129.93 73.1412 124.67 76.5112 120.53C81.6312 114.24 88.9612 110.05 96.1812 106.66C94.1512 110.67 91.5912 114.58 90.9212 119.15C93.2412 115.67 95.2512 111.87 97.9712 108.67C105.751 99.5301 117.281 95.2701 127.841 90.3501L128.051 90.5601L118.691 103.9C122.331 100.47 125.451 96.4001 129.211 93.1001C137.781 85.5701 148.661 81.2001 158.451 75.5201L147.611 86.8501C147.681 87.0001 148.011 87.0001 148.141 86.9501C148.661 86.7901 154.621 80.3801 155.921 79.3301C163.671 73.1001 175.791 67.7301 185.691 70.9701C186.931 73.5001 180.941 83.9601 178.961 86.0101C175.981 89.0801 168.161 91.2601 163.921 91.6201C161.881 91.7901 159.741 91.3801 157.711 91.7201L165.601 91.8201L176.651 88.7501C174.141 90.8001 169.721 96.8701 166.871 97.9601C165.181 98.6101 159.641 99.2401 157.611 99.4401C153.791 99.8201 149.881 99.8201 146.041 99.8601L163.401 101.03C157.981 104.85 152.131 109.69 146.041 112.36C141.121 114.52 129.361 118.11 124.161 118.5C121.471 118.7 118.651 118.42 115.951 118.29C124.581 120.3 133.331 118.69 141.721 116.49C133.401 121.73 123.501 130.44 113.421 131.42C107.451 132 100.221 130.89 94.7012 128.67C94.9212 129.4 96.6712 130.03 97.4412 130.36C102.711 132.69 108.741 134.01 114.481 133.12C115.311 133.59 97.6712 138.98 96.6012 139.26C90.0012 140.98 82.8512 142.44 75.9812 142.02C70.9412 141.71 60.6212 141.17 60.6212 141.17H60.6312Z" fill="#3C5A70"/>
</g>
<defs>
<clipPath id="clip0_476_497">
<rect width="150.86" height="79.31" fill="white" transform="translate(35 70)"/>
</clipPath>
</defs>
</svg>
