<svg width="220" height="220" viewBox="0 0 220 220" fill="none" xmlns="http://www.w3.org/2000/svg">
<path d="M166.885 40.8201C167.849 45.1763 168.246 48.742 166.353 57.1247C166.658 57.3205 171.978 55.7222 173.443 55.7065C187.476 55.5185 196.94 68.885 189.928 81.7657C182.116 96.1115 158.243 89.4596 145.253 92.2254C145.253 88.6761 144.297 84.6098 144.187 80.8803L165.82 80.7001C165.122 79.948 165.028 76.5084 164.582 76.2655C162.647 75.2235 147.635 76.7513 144.548 75.9129C142.777 75.4272 179.45 69.9826 176.08 73.8139L167.951 83.6076C167.136 78.5227 158.844 83.9044 66.1823 81.2571C65.999 79.6901 110.635 75.529 111.834 80.7001C112.5 83.5834 77.5195 80.371 80.724 80.8803C80.5203 84.3826 80.4185 87.7124 79.6585 91.1598H66.1823C57.9791 91.1598 47.7545 92.3351 40.8283 87.258C28.3629 78.1067 31.6614 57.1795 44.7302 50.0262C47.0258 48.7648 54.8216 47.3623 55.3701 46.8373C57.3053 44.9726 54.2497 45.286 54.1321 43.8209C54.1008 43.4761 56.5688 38.0622 56.9684 37.4354C63.5263 27.2421 79.4705 25.9258 85.5112 37.2552C86.0675 36.8869 86.4592 36.6597 86.7491 36.0172C100.789 4.74784 146.561 3.40023 162.983 34.5991C164.002 36.5343 164.167 41.3059 166.885 40.8044V40.8201Z" fill="#FED4B0"/>
<path d="M166.884 40.82C164.166 41.3214 164.001 36.5499 162.983 34.6147C146.56 3.41581 100.788 4.76342 86.7482 36.0328C86.4583 36.6753 86.0666 36.9103 85.5103 37.2707C79.4695 25.9414 63.5253 27.2576 56.9675 37.451C56.5679 38.0778 54.0999 43.4839 54.1312 43.8365C54.2487 45.3016 57.3044 44.9882 55.3691 46.8529C54.8207 47.3779 47.0327 48.7882 44.7292 50.0418C31.6605 57.1951 28.362 78.1223 40.8274 87.2736C47.7457 92.3506 57.9703 91.1754 66.1814 91.1754C66.0717 91.904 66.6202 92.5387 65.6486 92.9461C64.7476 93.33 52.3527 92.4603 52.3527 93.1263C57.2417 93.5572 62.1699 93.1655 67.0668 93.3065C67.7171 93.3222 68.814 92.9539 68.6651 94.0195C56.3485 94.1919 41.1721 95.9077 32.8514 84.9779C21.0911 69.5274 32.0836 46.1634 51.1147 45.0901C51.4987 27.5319 72.3632 18.1534 84.7973 31.2613C102.974 -3.60433 158.227 1.6451 166.884 40.8357V40.82Z" fill="#FED4B0"/>
<path d="M138.169 91.528C138.138 92.1078 138.169 92.719 138.169 93.2987L77.7516 94.1848C77.4538 93.4874 77.0863 76.8695 76.9688 76.1643L152.576 76.9478C153.806 80.5597 149.638 90.3848 147.484 91.8343C148.839 91.56 136.743 93.667 137.292 93.2987C137.809 92.954 136.892 91.34 138.177 91.528H138.169Z" fill="#FED4B0"/>
<path d="M79.6565 91.1753C79.5624 91.5906 79.774 92.2879 79.6565 92.5934C79.5154 92.9617 79.8758 93.6198 79.1237 94.0116C75.6371 94.0508 72.1427 93.9646 68.664 94.0116C68.8207 92.946 67.716 93.3221 67.0657 93.2986C62.1688 93.1576 57.2406 93.5493 52.3516 93.1184C52.3516 92.4524 64.7465 93.3221 65.6475 92.9382C66.6191 92.5229 66.0628 91.8961 66.1803 91.1675H79.6565V91.1753Z" fill="#FED4B0"/>
<path d="M139.227 80.888C138.945 84.4294 138.349 87.9708 138.161 91.5279C136.876 91.3399 137.793 92.9539 137.276 93.2986C136.727 93.6668 129.417 93.0244 128.054 93.2986C130.209 91.857 138.146 94.7794 136.916 91.1675H86.7403C86.1684 87.7593 86.3721 83.9593 86.0273 80.5276L139.211 80.8802L139.227 80.888Z" fill="#FED4B0"/>
<path d="M76.4693 197.903C76.1011 198.044 75.4273 198.123 75.0512 198.256L73.4528 183.009L69.7312 200.387C69.4022 200.458 69.0791 200.701 68.7422 200.74C69.0556 198.288 72.7555 180.448 73.4528 179.586C73.9073 179.022 74.6986 179.389 75.0512 180.353L76.4693 197.903Z" fill="#FEB696"/>
<path d="M83.6575 79.6773C83.6026 79.6303 82.4901 79.3639 82.2394 79.3248C82.3647 78.5804 81.1973 73.4877 84.1903 74.3574C86.5016 75.0312 84.3313 78.4316 83.6575 79.6773Z" fill="#EE705D"/>
<path d="M142.39 78.9065C142.39 80.0817 135.597 130.278 134.555 164.019" stroke="#EE705D" stroke-width="1.567"/>
<path d="M142.391 79.2983C142.391 80.4215 150.262 150.602 150.96 178.019M149.442 197.998C149.442 196.922 150.992 179.29 150.96 178.019M150.96 178.019L155.71 201.132" stroke="#EE705D" stroke-width="1.567"/>
<path d="M143.289 79.3764L141.519 79.729C141.44 78.875 138.612 75.5764 140.986 74.7616C144.096 73.7039 143.047 78.0523 143.289 79.3686V79.3764Z" fill="#6369D2"/>
<path d="M82.8447 78.9065C82.8447 80.0817 89.6373 130.278 90.6797 164.019" stroke="#EE705D" stroke-width="1.567"/>
<path d="M82.8477 79.2983C82.8477 80.4215 74.9758 150.602 74.2784 178.019M75.7962 197.998C75.7962 196.922 74.2461 179.29 74.2784 178.019M74.2784 178.019L69.5282 201.132" stroke="#EE705D" stroke-width="1.567"/>
<path d="M81.9449 79.3764L83.7156 79.729C83.794 78.875 86.6224 75.5764 84.2484 74.7616C81.1379 73.7039 82.1878 78.0523 81.9449 79.3686V79.3764Z" fill="#6369D2"/>
<path d="M140.643 194.354C134.352 193.32 90.5936 193.147 84.6234 194.354C85.7046 187.984 82.8918 171.64 85.3363 166.516C85.4147 166.344 87.82 163.923 87.9924 163.86L136.217 163.508C136.945 163.664 139.186 165.498 139.586 166.164C142.422 170.927 139.641 188.102 140.651 194.354H140.643Z" fill="#F9604C"/>
<path d="M156.605 202.157C156.706 203.732 157.043 209.797 155.719 210.314H69.2054C67.0978 209.601 68.1791 203.897 68.3201 202.157H156.612H156.605Z" fill="#F9604C"/>
<path d="M140.645 194.354C142.236 194.613 147.148 197.128 149.154 197.903C149.256 197.942 149.405 197.864 149.506 197.903C151.277 198.577 153.643 200.034 155.532 200.034L156.494 200.74C156.565 201.351 156.542 201.264 156.597 202.165H68.3047C68.4065 200.928 68.6953 201.148 68.7423 200.74C69.0792 200.701 69.3938 200.465 69.7228 200.395C70.6552 200.191 73.7187 198.749 75.0428 198.264C75.4189 198.13 76.0927 198.044 76.4609 197.911C78.5137 197.135 82.9404 194.707 84.6171 194.362C90.5952 193.155 134.346 193.328 140.637 194.362L140.645 194.354Z" fill="#EE705D"/>
</svg>
