<svg width="220" height="220" viewBox="0 0 220 220" fill="none" xmlns="http://www.w3.org/2000/svg">
<g clip-path="url(#clip0_476_456)">
<path fill-rule="evenodd" clip-rule="evenodd" d="M57.2695 57C90.5895 70.74 129.099 70.69 162.469 57.17C163.829 91.9 164.749 131.41 131.979 153.23C127.619 156.14 114.919 162.1 109.809 161.99C102.529 161.83 88.3095 154.03 82.7195 149.4C55.9495 127.24 56.5795 93.47 57.1795 61.99C57.2095 60.32 57.2395 58.66 57.2695 57ZM95.6395 124.34C93.1395 123.61 90.6595 122.89 89.6695 122.9C89.5795 122.9 89.4895 122.86 89.3895 122.81C89.4395 122.91 89.4895 123 89.4895 123.1C89.5495 124.06 91.7495 129.95 92.2995 130.95C102.249 148.94 127.839 143.25 129.799 123.11C120.399 126 110.819 127.3 101.059 125.75C99.8095 125.55 97.7195 124.94 95.6495 124.34H95.6395ZM85.1695 85.68C94.0595 84.53 101.909 91.43 102.319 100.39L71.1795 100.57C72.7895 92.81 76.7895 86.77 85.1695 85.68ZM148.229 100.39C147.769 91.57 140.069 84.5 131.149 85.68C123.199 86.74 118.159 92.76 117.389 100.57L148.239 100.39H148.229Z" fill="#3C5A70"/>
<path d="M89.6611 122.9C91.4711 122.88 98.2711 125.32 101.041 125.75C110.801 127.3 120.381 126 129.781 123.11C127.821 143.25 102.241 148.94 92.2811 130.95C91.7311 129.95 89.5411 124.05 89.4711 123.1C89.4711 123 89.4211 122.91 89.3711 122.81C89.4711 122.86 89.5611 122.89 89.6511 122.89L89.6611 122.9Z" fill="#CAD2D8"/>
<path d="M85.1697 85.6802C94.0597 84.5302 101.91 91.4302 102.32 100.39L71.1797 100.57C72.7897 92.8102 76.7897 86.7702 85.1697 85.6802Z" fill="#CAD2D8"/>
<path d="M131.149 85.6797C140.079 84.4997 147.769 91.5797 148.229 100.39L117.379 100.57C118.149 92.7597 123.189 86.7297 131.129 85.6797H131.149Z" fill="#CAD2D8"/>
</g>
<defs>
<clipPath id="clip0_476_456">
<rect width="105.97" height="105" fill="white" transform="translate(57 57)"/>
</clipPath>
</defs>
</svg>
