<svg width="220" height="220" viewBox="0 0 220 220" fill="none" xmlns="http://www.w3.org/2000/svg">
<g clip-path="url(#clip0_399_333)">
<mask id="mask0_399_333" style="mask-type:luminance" maskUnits="userSpaceOnUse" x="0" y="39" width="220" height="141">
<path d="M220 39H0V179.53H220V39Z" fill="white"/>
</mask>
<g mask="url(#mask0_399_333)">
<path d="M63.4197 152.48L106.85 103.65C105.21 101.89 102.96 100.97 100.69 100.97C99.1397 100.97 97.5797 101.4 96.1997 102.27C96.1997 102.27 85.5397 109.07 81.9497 111.28C75.9897 114.94 62.6597 118.07 54.0497 109.63C46.1697 101.9 50.8597 81.6601 53.5297 72.8701C55.0897 67.7401 59.6997 52.3301 59.6997 52.3301C60.8997 48.3501 58.8597 44.1201 55.0097 42.5801L19.6997 126.95L7.67969 155.68C11.8897 160.76 17.6497 165.75 24.5597 169.97C30.1297 173.38 35.8097 175.9 41.1697 177.49L63.4197 152.48Z" fill="#98A8B3"/>
<path d="M106.541 81.8598L96.5312 70.7598V99.5898L106.471 88.9998C107.391 88.0198 107.901 86.7298 107.901 85.3898C107.901 84.0498 107.421 82.8298 106.541 81.8598Z" fill="#8094A2"/>
<path d="M104.63 85.4898C104.63 87.4598 104.12 89.3498 103.2 90.7798L99.7995 96.0998L96.5195 99.5898V70.7598L99.2695 73.8098L103.27 80.3098C104.14 81.7298 104.63 83.5698 104.63 85.4898Z" fill="#8094A2"/>
<path d="M45.2497 71.6301C45.0297 75.3601 44.9397 80.9901 45.5297 86.7601C44.0197 90.0901 42.3097 93.3201 40.4197 96.4501C36.8997 102.28 32.8097 107.78 28.1797 112.77L39.5897 41.8501C43.6897 42.4401 46.6597 46.0701 46.4297 50.2201C46.4297 50.2201 45.5597 66.2801 45.2497 71.6401V71.6301Z" fill="#98A8B3"/>
<path d="M93.9317 103.15C103.692 93.3602 103.692 77.4802 93.9317 67.6902C84.1717 57.9002 68.3417 57.9002 58.5817 67.6902C48.8217 77.4802 48.8217 93.3602 58.5817 103.15C68.3417 112.94 84.1717 112.94 93.9317 103.15Z" fill="#8094A2"/>
<path d="M76.2592 110.8C62.3092 110.8 50.9492 99.41 50.9492 85.42C50.9492 71.43 62.2992 60.04 76.2592 60.04C90.2192 60.04 101.559 71.43 101.559 85.42C101.559 99.41 90.2092 110.8 76.2592 110.8ZM76.2592 60.65C62.6392 60.65 51.5692 71.76 51.5692 85.42C51.5692 99.08 62.6492 110.19 76.2592 110.19C89.8692 110.19 100.949 99.08 100.949 85.42C100.949 71.76 89.8692 60.65 76.2592 60.65Z" fill="#8094A2"/>
<path d="M92.3094 101.52C101.179 92.6298 101.179 78.2098 92.3094 69.3198C83.4394 60.4298 69.0694 60.4298 60.1994 69.3198C51.3294 78.2098 51.3294 92.6298 60.1994 101.52C69.0694 110.41 83.4394 110.41 92.3094 101.52Z" fill="#3C5A70"/>
<path d="M76.2608 107.45C64.1508 107.45 54.3008 97.5701 54.3008 85.4201C54.3008 73.2701 64.1508 63.3901 76.2608 63.3901C88.3708 63.3901 98.2208 73.2701 98.2208 85.4201C98.2208 97.5701 88.3708 107.45 76.2608 107.45ZM76.2608 64.0101C64.4908 64.0101 54.9108 73.6201 54.9108 85.4201C54.9108 97.2201 64.4908 106.83 76.2608 106.83C88.0308 106.83 97.6108 97.2201 97.6108 85.4201C97.6108 73.6201 88.0308 64.0101 76.2608 64.0101Z" fill="#3C5A70"/>
<path d="M91.5705 100.78C100.03 92.3002 100.03 78.5402 91.5705 70.0602C83.1105 61.5802 69.4005 61.5802 60.9505 70.0602C52.4905 78.5402 52.4905 92.3002 60.9505 100.78C69.4105 109.26 83.1205 109.26 91.5705 100.78Z" fill="#3C5A70"/>
<path d="M45.0781 84.6198C45.0781 84.6198 58.6281 96.4798 75.3381 96.4798C92.0481 96.4798 105.598 84.6198 105.598 84.6198C105.598 84.6198 92.0481 72.7598 75.3381 72.7598C58.6281 72.7598 45.0781 84.6198 45.0781 84.6198Z" fill="#8094A2"/>
<path d="M45.0781 84.6198C45.0781 84.6198 58.6281 96.4798 75.3381 96.4798C92.0481 96.4798 105.598 84.6198 105.598 84.6198C105.598 84.6198 92.0481 72.7598 75.3381 72.7598C58.6281 72.7598 45.0781 84.6198 45.0781 84.6198Z" fill="white"/>
<path d="M76.2692 97.74C83.4892 97.74 89.3392 91.87 89.3392 84.63C89.3392 77.39 83.4892 71.52 76.2692 71.52C69.0492 71.52 63.1992 77.39 63.1992 84.63C63.1992 91.87 69.0492 97.74 76.2692 97.74Z" fill="#3C5A70"/>
<path d="M78.4005 91.6802C82.2805 90.5002 84.4805 86.3902 83.3005 82.4902C82.1205 78.6002 78.0305 76.3902 74.1405 77.5702C70.2605 78.7502 68.0605 82.8602 69.2405 86.7602C70.4205 90.6502 74.5105 92.8602 78.4005 91.6802Z" fill="#3C5A70"/>
<path d="M63.4219 152.48C69.2719 160.29 71.3219 168.1 68.0519 173.46C64.1119 179.94 53.4719 181.14 41.1719 177.48L63.4119 152.47H63.4219V152.48Z" fill="#8094A2"/>
<path d="M7.68982 155.68C0.709816 147.25 -1.98018 138.59 1.54982 132.79C4.51982 127.91 11.2898 126.02 19.7098 126.95L7.68982 155.68Z" fill="#8094A2"/>
<path d="M156.578 152.48L113.148 103.65C114.788 101.89 117.038 100.97 119.308 100.97C120.858 100.97 122.418 101.4 123.798 102.27C123.798 102.27 134.458 109.07 138.048 111.28C144.008 114.94 157.338 118.07 165.948 109.63C173.828 101.9 169.138 81.6601 166.468 72.8701C164.908 67.7401 160.298 52.3301 160.298 52.3301C159.098 48.3501 161.138 44.1201 164.988 42.5801L200.288 126.94L212.308 155.67C208.098 160.75 202.338 165.74 195.428 169.96C189.858 173.37 184.178 175.89 178.818 177.48L156.568 152.47H156.578V152.48Z" fill="#98A8B3"/>
<path d="M113.438 81.8598L123.448 70.7598V99.5898L113.508 88.9998C112.588 88.0198 112.078 86.7298 112.078 85.3898C112.078 84.0498 112.558 82.8298 113.438 81.8598Z" fill="#8094A2"/>
<path d="M115.359 85.4898C115.359 87.4598 115.869 89.3498 116.789 90.7798L120.189 96.0998L123.469 99.5898V70.7598L120.719 73.8098L116.719 80.3098C115.849 81.7298 115.369 83.5698 115.369 85.4898H115.359Z" fill="#8094A2"/>
<path d="M172.2 68.79C172.42 72.51 172.51 78.15 171.92 83.92C173.43 87.25 175.14 90.48 177.03 93.61C180.55 99.44 184.63 104.94 189.27 109.93L177.86 39C173.76 39.59 170.79 43.22 171.02 47.37C171.02 47.37 171.89 63.43 172.2 68.79Z" fill="#98A8B3"/>
<path d="M161.42 103.15C171.18 93.3602 171.18 77.4802 161.42 67.6902C151.66 57.9002 135.83 57.9002 126.07 67.6902C116.31 77.4802 116.31 93.3602 126.07 103.15C135.83 112.94 151.66 112.94 161.42 103.15Z" fill="#8094A2"/>
<path d="M143.74 110.8C129.79 110.8 118.43 99.41 118.43 85.42C118.43 71.43 129.78 60.04 143.74 60.04C157.7 60.04 169.05 71.43 169.05 85.42C169.05 99.41 157.7 110.8 143.74 110.8ZM143.74 60.65C130.12 60.65 119.05 71.76 119.05 85.42C119.05 99.08 130.13 110.19 143.74 110.19C157.35 110.19 168.43 99.08 168.43 85.42C168.43 71.76 157.35 60.65 143.74 60.65Z" fill="#8094A2"/>
<path d="M159.802 101.52C168.662 92.6301 168.662 78.2101 159.802 69.3101C150.932 60.4201 136.562 60.4201 127.692 69.3101C118.822 78.2001 118.822 92.6201 127.692 101.52C136.552 110.41 150.932 110.41 159.802 101.52Z" fill="#3C5A70"/>
<path d="M143.741 107.45C131.631 107.45 121.781 97.5701 121.781 85.4201C121.781 73.2701 131.631 63.3901 143.741 63.3901C155.851 63.3901 165.701 73.2701 165.701 85.4201C165.701 97.5701 155.851 107.45 143.741 107.45ZM143.741 64.0101C131.971 64.0101 122.391 73.6201 122.391 85.4201C122.391 97.2201 131.971 106.83 143.741 106.83C155.511 106.83 165.091 97.2201 165.091 85.4201C165.091 73.6201 155.511 64.0101 143.741 64.0101Z" fill="#3C5A70"/>
<path d="M159.059 100.78C167.519 92.3002 167.519 78.5402 159.059 70.0602C150.599 61.5802 136.889 61.5802 128.439 70.0602C119.979 78.5402 119.979 92.3002 128.439 100.78C136.899 109.26 150.609 109.26 159.059 100.78Z" fill="#3C5A70"/>
<path d="M174.93 84.6198C174.93 84.6198 161.39 96.4798 144.67 96.4798C127.95 96.4798 114.41 84.6198 114.41 84.6198C114.41 84.6198 127.95 72.7598 144.67 72.7598C161.39 72.7598 174.93 84.6198 174.93 84.6198Z" fill="#3C5A70"/>
<path d="M174.93 84.6198C174.93 84.6198 161.39 96.4798 144.67 96.4798C127.95 96.4798 114.41 84.6198 114.41 84.6198C114.41 84.6198 127.95 72.7598 144.67 72.7598C161.39 72.7598 174.93 84.6198 174.93 84.6198Z" fill="white"/>
<path d="M143.742 97.74C150.962 97.74 156.812 91.87 156.812 84.63C156.812 77.39 150.962 71.52 143.742 71.52C136.522 71.52 130.672 77.39 130.672 84.63C130.672 91.87 136.522 97.74 143.742 97.74Z" fill="#3C5A70"/>
<path d="M150.52 87.4402C152.07 83.6802 150.29 79.3702 146.55 77.8102C142.8 76.2502 138.51 78.0402 136.95 81.8002C135.4 85.5602 137.18 89.8702 140.92 91.4302C144.67 92.9902 148.96 91.2002 150.52 87.4402Z" fill="#3C5A70"/>
<path d="M156.571 152.48C150.721 160.29 148.671 168.1 151.941 173.46C155.881 179.94 166.521 181.14 178.821 177.48L156.581 152.47L156.571 152.48Z" fill="#8094A2"/>
<path d="M212.309 155.68C219.289 147.26 221.979 138.59 218.449 132.79C215.479 127.91 208.709 126.02 200.289 126.95L212.309 155.68Z" fill="#8094A2"/>
<path d="M116.709 83.2798H102.629V87.0698H116.709V83.2798Z" fill="#8094A2"/>
</g>
</g>
<defs>
<clipPath id="clip0_399_333">
<rect width="220" height="140.53" fill="white" transform="translate(0 39)"/>
</clipPath>
</defs>
</svg>
