<svg width="291" height="300" viewBox="0 0 291 300" fill="none" xmlns="http://www.w3.org/2000/svg">
<path d="M65.2153 21V5.6H69.3733C70.9133 5.6 72.292 5.87867 73.5093 6.436C74.7266 6.97867 75.6946 7.81467 76.4133 8.944C77.132 10.0733 77.4913 11.4887 77.4913 13.19C77.4913 15.0673 77.1246 16.5927 76.3913 17.766C75.658 18.9247 74.7046 19.7533 73.5313 20.252C72.3726 20.7507 71.1113 21 69.7473 21H65.2153ZM69.9453 18.866C71.324 18.866 72.512 18.4407 73.5093 17.59C74.5213 16.7393 75.0273 15.28 75.0273 13.212C75.0273 11.5693 74.5653 10.2493 73.6413 9.252C72.732 8.24 71.346 7.734 69.4833 7.734H67.6133V18.866H69.9453ZM79.4148 9.934H82.6928V21H80.3608V11.694H79.4148V9.934ZM82.5608 7.976H79.9868V5.556H82.5608V7.976ZM95.7504 16.028H87.6764C87.7351 17.172 88.0358 18.03 88.5784 18.602C89.1211 19.1593 89.8324 19.438 90.7124 19.438C91.4458 19.438 92.0251 19.2767 92.4504 18.954C92.8758 18.6313 93.1764 18.2133 93.3524 17.7H95.6624C95.3691 18.8587 94.7751 19.7607 93.8804 20.406C92.9858 21.0367 91.9151 21.352 90.6684 21.352C89.5684 21.352 88.6151 21.11 87.8084 20.626C87.0018 20.1273 86.3858 19.438 85.9604 18.558C85.5351 17.6633 85.3224 16.6367 85.3224 15.478C85.3224 14.378 85.5204 13.388 85.9164 12.508C86.3271 11.6133 86.9284 10.902 87.7204 10.374C88.5271 9.846 89.4951 9.582 90.6244 9.582C92.2964 9.582 93.5651 10.1247 94.4304 11.21C95.3104 12.2953 95.7504 13.7253 95.7504 15.5V16.028ZM93.3084 14.29C93.2498 13.3953 93.0004 12.6987 92.5604 12.2C92.1204 11.6867 91.4751 11.43 90.6244 11.43C89.7738 11.43 89.1064 11.6793 88.6224 12.178C88.1384 12.662 87.8378 13.366 87.7204 14.29H93.3084ZM107.399 21H105.133V5.6H107.421L114.615 17.502V5.6H116.881V21H114.219L107.399 9.648V21ZM129.954 16.028H121.88C121.938 17.172 122.239 18.03 122.782 18.602C123.324 19.1593 124.036 19.438 124.916 19.438C125.649 19.438 126.228 19.2767 126.654 18.954C127.079 18.6313 127.38 18.2133 127.556 17.7H129.866C129.572 18.8587 128.978 19.7607 128.084 20.406C127.189 21.0367 126.118 21.352 124.872 21.352C123.772 21.352 122.818 21.11 122.012 20.626C121.205 20.1273 120.589 19.438 120.164 18.558C119.738 17.6633 119.526 16.6367 119.526 15.478C119.526 14.378 119.724 13.388 120.12 12.508C120.53 11.6133 121.132 10.902 121.924 10.374C122.73 9.846 123.698 9.582 124.828 9.582C126.5 9.582 127.768 10.1247 128.634 11.21C129.514 12.2953 129.954 13.7253 129.954 15.5V16.028ZM127.512 14.29C127.453 13.3953 127.204 12.6987 126.764 12.2C126.324 11.6867 125.678 11.43 124.828 11.43C123.977 11.43 123.31 11.6793 122.826 12.178C122.342 12.662 122.041 13.366 121.924 14.29H127.512ZM136.437 21.352C135.249 21.352 134.281 20.978 133.533 20.23C132.785 19.482 132.411 18.404 132.411 16.996V9.934H134.743V16.776C134.743 18.492 135.476 19.35 136.943 19.35C137.676 19.35 138.277 19.1153 138.747 18.646C139.231 18.162 139.473 17.502 139.473 16.666V9.934H141.805V21H139.561V19.812C139.282 20.2813 138.871 20.6553 138.329 20.934C137.801 21.2127 137.17 21.352 136.437 21.352ZM152.983 9.934H155.227V20.538C155.227 22.0487 154.751 23.2293 153.797 24.08C152.859 24.9307 151.568 25.356 149.925 25.356C148.444 25.356 147.271 25.0407 146.405 24.41C145.54 23.794 145.049 22.9287 144.931 21.814H147.219C147.322 22.342 147.593 22.7527 148.033 23.046C148.488 23.354 149.119 23.508 149.925 23.508C150.893 23.508 151.627 23.2733 152.125 22.804C152.639 22.3347 152.895 21.6527 152.895 20.758V19.086C152.177 20.142 151.084 20.67 149.617 20.67C148.62 20.67 147.74 20.428 146.977 19.944C146.229 19.4453 145.65 18.7707 145.239 17.92C144.829 17.0693 144.623 16.1307 144.623 15.104C144.623 14.092 144.829 13.168 145.239 12.332C145.65 11.4813 146.237 10.814 146.999 10.33C147.777 9.83133 148.671 9.582 149.683 9.582C151.194 9.582 152.294 10.132 152.983 11.232V9.934ZM149.991 18.69C150.989 18.69 151.737 18.3747 152.235 17.744C152.749 17.1133 153.005 16.2333 153.005 15.104C153.005 14.0187 152.749 13.1607 152.235 12.53C151.722 11.8847 150.974 11.562 149.991 11.562C149.023 11.562 148.283 11.892 147.769 12.552C147.256 13.1973 146.999 14.048 146.999 15.104C146.999 16.1893 147.249 17.062 147.747 17.722C148.261 18.3673 149.009 18.69 149.991 18.69ZM157.897 9.934H161.175V21H158.843V11.694H157.897V9.934ZM161.043 7.976H158.469V5.556H161.043V7.976ZM174.233 16.028H166.159C166.218 17.172 166.518 18.03 167.061 18.602C167.604 19.1593 168.315 19.438 169.195 19.438C169.928 19.438 170.508 19.2767 170.933 18.954C171.358 18.6313 171.659 18.2133 171.835 17.7H174.145C173.852 18.8587 173.258 19.7607 172.363 20.406C171.468 21.0367 170.398 21.352 169.151 21.352C168.051 21.352 167.098 21.11 166.291 20.626C165.484 20.1273 164.868 19.438 164.443 18.558C164.018 17.6633 163.805 16.6367 163.805 15.478C163.805 14.378 164.003 13.388 164.399 12.508C164.81 11.6133 165.411 10.902 166.203 10.374C167.01 9.846 167.978 9.582 169.107 9.582C170.779 9.582 172.048 10.1247 172.913 11.21C173.793 12.2953 174.233 13.7253 174.233 15.5V16.028ZM171.791 14.29C171.732 13.3953 171.483 12.6987 171.043 12.2C170.603 11.6867 169.958 11.43 169.107 11.43C168.256 11.43 167.589 11.6793 167.105 12.178C166.621 12.662 166.32 13.366 166.203 14.29H171.791ZM176.8 21V9.934H179.044V11.782C179.323 11.0047 179.719 10.4473 180.232 10.11C180.745 9.758 181.405 9.582 182.212 9.582C182.476 9.582 182.747 9.604 183.026 9.648V11.892C182.674 11.848 182.373 11.826 182.124 11.826C181.185 11.826 180.452 12.1413 179.924 12.772C179.396 13.4027 179.132 14.3487 179.132 15.61V21H176.8ZM184.387 9.934H187.665V21H185.333V11.694H184.387V9.934ZM187.533 7.976H184.959V5.556H187.533V7.976ZM198.831 9.934H201.075V20.538C201.075 22.0487 200.598 23.2293 199.645 24.08C198.706 24.9307 197.416 25.356 195.773 25.356C194.292 25.356 193.118 25.0407 192.253 24.41C191.388 23.794 190.896 22.9287 190.779 21.814H193.067C193.17 22.342 193.441 22.7527 193.881 23.046C194.336 23.354 194.966 23.508 195.773 23.508C196.741 23.508 197.474 23.2733 197.973 22.804C198.486 22.3347 198.743 21.6527 198.743 20.758V19.086C198.024 20.142 196.932 20.67 195.465 20.67C194.468 20.67 193.588 20.428 192.825 19.944C192.077 19.4453 191.498 18.7707 191.087 17.92C190.676 17.0693 190.471 16.1307 190.471 15.104C190.471 14.092 190.676 13.168 191.087 12.332C191.498 11.4813 192.084 10.814 192.847 10.33C193.624 9.83133 194.519 9.582 195.531 9.582C197.042 9.582 198.142 10.132 198.831 11.232V9.934ZM195.839 18.69C196.836 18.69 197.584 18.3747 198.083 17.744C198.596 17.1133 198.853 16.2333 198.853 15.104C198.853 14.0187 198.596 13.1607 198.083 12.53C197.57 11.8847 196.822 11.562 195.839 11.562C194.871 11.562 194.13 11.892 193.617 12.552C193.104 13.1973 192.847 14.048 192.847 15.104C192.847 16.1893 193.096 17.062 193.595 17.722C194.108 18.3673 194.856 18.69 195.839 18.69ZM214.151 16.028H206.077C206.135 17.172 206.436 18.03 206.979 18.602C207.521 19.1593 208.233 19.438 209.113 19.438C209.846 19.438 210.425 19.2767 210.851 18.954C211.276 18.6313 211.577 18.2133 211.753 17.7H214.063C213.769 18.8587 213.175 19.7607 212.281 20.406C211.386 21.0367 210.315 21.352 209.069 21.352C207.969 21.352 207.015 21.11 206.209 20.626C205.402 20.1273 204.786 19.438 204.361 18.558C203.935 17.6633 203.723 16.6367 203.723 15.478C203.723 14.378 203.921 13.388 204.317 12.508C204.727 11.6133 205.329 10.902 206.121 10.374C206.927 9.846 207.895 9.582 209.025 9.582C210.697 9.582 211.965 10.1247 212.831 11.21C213.711 12.2953 214.151 13.7253 214.151 15.5V16.028ZM211.709 14.29C211.65 13.3953 211.401 12.6987 210.961 12.2C210.521 11.6867 209.875 11.43 209.025 11.43C208.174 11.43 207.507 11.6793 207.023 12.178C206.539 12.662 206.238 13.366 206.121 14.29H211.709ZM216.718 21V9.934H218.962V11.144C219.241 10.6747 219.644 10.3007 220.172 10.022C220.7 9.72867 221.323 9.582 222.042 9.582C223.23 9.582 224.205 9.97067 224.968 10.748C225.731 11.5253 226.112 12.618 226.112 14.026V21H223.78V14.246C223.78 13.366 223.589 12.706 223.208 12.266C222.827 11.8113 222.284 11.584 221.58 11.584C220.847 11.584 220.238 11.826 219.754 12.31C219.285 12.7793 219.05 13.432 219.05 14.268V21H216.718Z" fill="#272623"/>
<path d="M98.9205 179.48L142.348 130.652C140.703 128.892 138.458 127.975 136.186 127.975C134.638 127.975 133.08 128.402 131.694 129.277C131.694 129.277 121.036 136.081 117.443 138.286C111.481 141.943 98.1512 145.074 89.5386 136.635C81.6565 128.909 86.3462 108.664 89.0175 99.8708C90.5742 94.7413 95.1876 79.332 95.1876 79.332C96.3836 75.3554 94.3459 71.1208 90.498 69.5852L55.2019 153.947L43.1836 182.675C47.3897 187.751 53.1551 192.742 60.0623 196.965C65.6364 200.374 71.3139 202.894 76.6746 204.488L98.9205 179.479V179.48Z" fill="#F9604C"/>
<path d="M142.042 108.859L132.031 97.7598V126.588L141.972 115.994C142.887 115.019 143.398 113.728 143.398 112.388C143.398 111.084 142.914 109.826 142.043 108.859H142.042Z" fill="#6369D2"/>
<path d="M140.134 112.489C140.134 114.456 139.625 116.348 138.708 117.78L135.308 123.096L132.031 126.588V97.7598L134.781 100.809L138.778 107.311C139.651 108.73 140.133 110.575 140.133 112.489H140.134Z" fill="#6369D2"/>
<path d="M80.7498 98.6329C80.5338 102.358 80.4356 107.996 81.0303 113.758C79.5201 117.086 77.8056 120.318 75.9192 123.447C72.4022 129.279 68.3138 134.774 63.6836 139.766L75.0878 68.8467C79.1878 69.4329 82.1604 73.067 81.9316 77.2147C81.9316 77.2147 81.0614 93.279 80.7498 98.6329Z" fill="#F9604C"/>
<path d="M129.433 130.152C139.195 120.359 139.195 104.482 129.433 94.6895C119.67 84.8968 103.842 84.8968 94.0791 94.6895C84.3165 104.482 84.3165 120.359 94.0791 130.152C103.842 139.944 119.67 139.944 129.433 130.152Z" fill="#6369D2"/>
<path d="M111.758 137.804C97.8056 137.804 86.4531 126.418 86.4531 112.421C86.4531 98.4237 97.8043 87.0376 111.758 87.0376C125.712 87.0376 137.063 98.4237 137.063 112.421C137.063 126.418 125.712 137.804 111.758 137.804ZM111.758 87.6511C98.143 87.6511 87.0647 98.7622 87.0647 112.421C87.0647 126.079 98.1417 137.19 111.758 137.19C125.375 137.19 136.452 126.079 136.452 112.421C136.452 98.7622 125.375 87.6511 111.758 87.6511Z" fill="#6369D2"/>
<path d="M127.811 128.523C136.677 119.63 136.677 105.211 127.811 96.3183C118.945 87.4251 104.571 87.4251 95.7053 96.3183C86.8395 105.211 86.8395 119.63 95.7053 128.523C104.571 137.416 118.945 137.416 127.811 128.523Z" fill="#272623"/>
<path d="M111.757 134.447C99.6482 134.447 89.7969 124.566 89.7969 112.42C89.7969 100.274 99.6482 90.3906 111.757 90.3906C123.866 90.3906 133.718 100.272 133.718 112.42C133.718 124.567 123.867 134.447 111.757 134.447ZM111.757 91.0054C99.9856 91.0054 90.4085 100.612 90.4085 112.42C90.4085 124.227 99.9856 133.834 111.757 133.834C123.528 133.834 133.106 124.227 133.106 112.42C133.106 100.612 123.528 91.0054 111.757 91.0054Z" fill="#272623"/>
<path d="M127.07 127.78C135.527 119.298 135.527 105.544 127.07 97.0613C118.613 88.5785 104.902 88.5785 96.4452 97.0613C87.9884 105.544 87.9884 119.298 96.4452 127.78C104.902 136.263 118.613 136.263 127.07 127.78Z" fill="#272623"/>
<mask id="mask0_339_1944" style="mask-type:luminance" maskUnits="userSpaceOnUse" x="90" y="90" width="44" height="45">
<path d="M127.078 127.78C135.535 119.297 135.535 105.544 127.078 97.0609C118.621 88.578 104.91 88.578 96.453 97.0609C87.9962 105.544 87.9962 119.297 96.453 127.78C104.91 136.263 118.621 136.263 127.078 127.78Z" fill="white"/>
</mask>
<g mask="url(#mask0_339_1944)">
<path d="M80.582 111.621C80.582 111.621 94.1274 123.481 110.838 123.481C127.549 123.481 141.094 111.621 141.094 111.621C141.094 111.621 127.549 99.762 110.838 99.762C94.1274 99.762 80.582 111.621 80.582 111.621Z" fill="#6369D2"/>
<path d="M80.582 111.622C80.582 111.622 94.1274 123.481 110.838 123.481C127.549 123.481 141.094 111.622 141.094 111.622C141.094 111.622 127.549 99.7622 110.838 99.7622C94.1274 99.7622 80.582 111.622 80.582 111.622Z" fill="white"/>
<mask id="mask1_339_1944" style="mask-type:luminance" maskUnits="userSpaceOnUse" x="80" y="99" width="62" height="25">
<path d="M80.5859 111.622C80.5859 111.622 94.1313 123.481 110.842 123.481C127.552 123.481 141.098 111.622 141.098 111.622C141.098 111.622 127.552 99.7622 110.842 99.7622C94.1313 99.7622 80.5859 111.622 80.5859 111.622Z" fill="white"/>
</mask>
<g mask="url(#mask1_339_1944)">
<path d="M111.769 124.735C118.989 124.735 124.842 118.864 124.842 111.622C124.842 104.379 118.989 98.5081 111.769 98.5081C104.548 98.5081 98.6953 104.379 98.6953 111.622C98.6953 118.864 104.548 124.735 111.769 124.735Z" fill="#272623"/>
<path d="M113.898 118.683C117.78 117.505 119.974 113.392 118.799 109.498C117.624 105.604 113.525 103.403 109.643 104.581C105.76 105.76 103.566 109.872 104.741 113.766C105.916 117.661 110.016 119.862 113.898 118.683Z" fill="#272623"/>
</g>
</g>
<path d="M98.923 179.48C104.769 187.286 106.819 195.097 103.557 200.464C99.6199 206.941 88.9799 208.146 76.6797 204.487L98.923 179.48Z" fill="#6369D2"/>
<path d="M43.1874 182.676C36.2078 174.252 33.521 165.589 37.0496 159.785C40.0157 154.905 46.7871 153.019 55.2057 153.949L43.1887 182.676H43.1874Z" fill="#6369D2"/>
<path d="M192.076 179.48L148.648 130.652C150.293 128.892 152.539 127.975 154.811 127.975C156.359 127.975 157.917 128.402 159.303 129.277C159.303 129.277 169.961 136.081 173.554 138.286C179.516 141.943 192.845 145.074 201.458 136.635C209.34 128.909 204.65 108.664 201.979 99.8708C200.422 94.7413 195.809 79.332 195.809 79.332C194.613 75.3554 196.651 71.1208 200.499 69.5852L235.795 153.947L247.813 182.675C243.607 187.751 237.841 192.742 230.934 196.965C225.36 200.374 219.683 202.894 214.322 204.488L192.076 179.479V179.48Z" fill="#F9604C"/>
<path d="M148.942 108.86L158.953 97.7607V126.589L149.012 115.995C148.097 115.02 147.586 113.729 147.586 112.389C147.586 111.085 148.07 109.826 148.941 108.86H148.942Z" fill="#6369D2"/>
<path d="M150.855 112.49C150.855 114.457 151.365 116.349 152.282 117.781L155.682 123.097L158.959 126.589V97.7607L156.208 100.81L152.212 107.312C151.339 108.731 150.857 110.576 150.857 112.49H150.855Z" fill="#6369D2"/>
<path d="M207.698 95.7863C207.914 99.5112 208.012 105.149 207.417 110.912C208.928 114.24 210.642 117.472 212.529 120.6C216.046 126.432 220.134 131.928 224.764 136.92L213.36 66C209.26 66.5862 206.287 70.2203 206.516 74.3681C206.516 74.3681 207.386 90.4324 207.698 95.7863Z" fill="#F9604C"/>
<path d="M196.917 130.15C206.679 120.357 206.679 104.48 196.917 94.6878C187.154 84.8951 171.326 84.8951 161.563 94.6878C151.801 104.48 151.801 120.357 161.563 130.15C171.326 139.943 187.154 139.943 196.917 130.15Z" fill="#6369D2"/>
<path d="M179.239 137.803C165.286 137.803 153.934 126.417 153.934 112.42C153.934 98.423 165.285 87.0369 179.239 87.0369C193.193 87.0369 204.544 98.423 204.544 112.42C204.544 126.417 193.193 137.803 179.239 137.803ZM179.239 87.6503C165.624 87.6503 154.545 98.7615 154.545 112.42C154.545 126.078 165.622 137.189 179.239 137.189C192.855 137.189 203.932 126.078 203.932 112.42C203.932 98.7615 192.855 87.6503 179.239 87.6503Z" fill="#6369D2"/>
<path d="M195.296 128.522C204.161 119.629 204.161 105.21 195.296 96.317C186.43 87.4239 172.055 87.4239 163.19 96.317C154.324 105.21 154.324 119.629 163.19 128.522C172.055 137.415 186.43 137.415 195.296 128.522Z" fill="#272623"/>
<path d="M179.241 134.448C167.133 134.448 157.281 124.567 157.281 112.421C157.281 100.275 167.133 90.3916 179.241 90.3916C191.35 90.3916 201.203 100.273 201.203 112.421C201.203 124.568 191.352 134.448 179.241 134.448ZM179.241 91.0064C167.47 91.0064 157.893 100.613 157.893 112.421C157.893 124.228 167.47 133.835 179.241 133.835C191.013 133.835 200.59 124.228 200.59 112.421C200.59 100.613 191.013 91.0064 179.241 91.0064Z" fill="#272623"/>
<path d="M194.558 127.78C203.015 119.297 203.015 105.544 194.558 97.0609C186.101 88.578 172.39 88.578 163.933 97.0609C155.477 105.544 155.477 119.297 163.933 127.78C172.39 136.263 186.101 136.263 194.558 127.78Z" fill="#272623"/>
<mask id="mask2_339_1944" style="mask-type:luminance" maskUnits="userSpaceOnUse" x="157" y="90" width="44" height="45">
<path d="M194.562 127.78C203.019 119.298 203.019 105.544 194.562 97.0614C186.105 88.5785 172.394 88.5785 163.937 97.0613C155.481 105.544 155.481 119.298 163.937 127.78C172.394 136.263 186.105 136.263 194.562 127.78Z" fill="white"/>
</mask>
<g mask="url(#mask2_339_1944)">
<path d="M210.426 111.623C210.426 111.623 196.881 123.483 180.17 123.483C163.459 123.483 149.914 111.623 149.914 111.623C149.914 111.623 163.459 99.7637 180.17 99.7637C196.881 99.7637 210.426 111.623 210.426 111.623Z" fill="#272623"/>
<path d="M210.426 111.623C210.426 111.623 196.881 123.483 180.17 123.483C163.459 123.483 149.914 111.623 149.914 111.623C149.914 111.623 163.459 99.7637 180.17 99.7637C196.881 99.7637 210.426 111.623 210.426 111.623Z" fill="white"/>
<mask id="mask3_339_1944" style="mask-type:luminance" maskUnits="userSpaceOnUse" x="149" y="99" width="62" height="25">
<path d="M210.434 111.624C210.434 111.624 196.888 123.483 180.178 123.483C163.467 123.483 149.922 111.624 149.922 111.624C149.922 111.624 163.467 99.7644 180.178 99.7644C196.888 99.7644 210.434 111.624 210.434 111.624Z" fill="white"/>
</mask>
<g mask="url(#mask3_339_1944)">
<path d="M179.245 124.738C186.466 124.738 192.319 118.867 192.319 111.624C192.319 104.382 186.466 98.5105 179.245 98.5105C172.025 98.5105 166.172 104.382 166.172 111.624C166.172 118.867 172.025 124.738 179.245 124.738Z" fill="#272623"/>
<path d="M186.025 114.442C187.577 110.683 185.798 106.374 182.051 104.817C178.303 103.26 174.007 105.045 172.455 108.804C170.903 112.563 172.682 116.872 176.43 118.429C180.177 119.986 184.473 118.201 186.025 114.442Z" fill="#272623"/>
</g>
</g>
<path d="M192.074 179.48C186.228 187.287 184.178 195.097 187.44 200.464C191.377 206.941 202.017 208.146 214.317 204.487L192.074 179.48Z" fill="#6369D2"/>
<path d="M247.811 182.676C254.791 174.252 257.478 165.589 253.949 159.785C250.983 154.905 244.212 153.019 235.793 153.949L247.81 182.676H247.811Z" fill="#6369D2"/>
<path d="M152.213 110.282H138.133V114.07H152.213V110.282Z" fill="#6369D2"/>
</svg>
