<svg width="220" height="220" viewBox="0 0 220 220" fill="none" xmlns="http://www.w3.org/2000/svg">
<path d="M193.782 55.332H29.7227V129.649H193.782V55.332Z" fill="#FED267"/>
<path d="M178.276 104.231C182.364 111.85 185.063 120.874 186.335 129.398C184.909 129.995 183.27 129.687 181.727 129.745C179.163 105.981 162.216 84.2772 139.949 75.5224C98.3433 59.1673 51.9181 85.5279 46.1343 129.745C45.3631 129.725 42.0277 129.995 41.7578 129.398C43.493 115.737 49.3925 102.326 58.3382 91.8391C58.4925 91.6659 58.7817 91.4158 59.0323 91.1464C92.2895 53.3564 154.466 59.6868 178.276 104.25V104.231Z" fill="#E13922"/>
<path d="M181.726 129.725C180.357 129.783 178.95 129.725 177.581 129.725C174.67 107.655 159.458 88.0101 138.79 79.6401C100.077 63.9776 56.2931 88.2217 50.5093 129.494C49.1019 129.494 47.5981 129.764 46.1328 129.725C51.9167 85.5087 98.3418 59.148 139.947 75.5032C162.215 84.258 179.181 105.962 181.726 129.725Z" fill="#F77432"/>
<path d="M177.583 129.725C176.118 129.745 174.614 129.475 173.207 129.494C170.411 109.291 156.125 91.1849 137.173 83.5461C101.332 69.0958 60.4597 91.2811 54.8686 129.494C53.4227 129.494 51.9574 129.494 50.4922 129.494C56.2761 88.2217 100.06 63.9776 138.773 79.6401C159.441 88.0101 174.653 107.656 177.564 129.725H177.583Z" fill="#FAA62E"/>
<path d="M173.205 129.494C171.74 129.494 170.294 129.494 168.829 129.494C166.207 111.6 153.482 95.3217 136.94 88.1447C103.567 73.656 65.1625 93.8017 59.0123 129.494C57.6242 129.494 56.2553 129.494 54.8672 129.494C60.439 91.2811 101.331 69.0958 137.172 83.546C156.123 91.1849 170.39 109.291 173.205 129.494Z" fill="#FEE227"/>
<path d="M168.828 129.495C167.363 129.495 165.936 129.495 164.452 129.495C161.328 112.832 149.606 97.9002 133.72 91.5891C103.528 79.6017 69.5191 97.6501 63.6195 129.495C62.0579 129.495 60.5734 129.495 59.0117 129.495C65.1619 93.8018 103.567 73.6561 136.94 88.1449C153.482 95.3219 166.206 111.619 168.828 129.495Z" fill="#71BD31"/>
<path d="M164.453 129.494C163.065 129.494 161.522 129.745 160.076 129.725C154.119 99.0546 120.245 83.1227 92.2703 97.3228C79.5843 103.769 70.8507 115.968 67.7467 129.725C66.3778 129.745 64.9126 129.475 63.6016 129.494C69.5011 97.6307 103.51 79.5823 133.702 91.5889C149.588 97.9001 161.31 112.831 164.434 129.494H164.453Z" fill="#1FBDBD"/>
<path d="M160.076 129.725C158.534 129.706 156.991 129.533 155.468 129.494C145.501 85.7781 82.5914 85.932 72.5853 129.494C70.9851 129.533 69.3656 129.706 67.7461 129.725C70.8501 115.968 79.5837 103.769 92.2697 97.3229C120.244 83.1228 154.099 99.0546 160.076 129.725Z" fill="#18B5E4"/>
<path d="M155.488 129.494C153.965 129.456 152.404 129.552 150.88 129.494C141.202 91.6467 87.0266 91.8391 77.2133 129.494C75.6902 129.552 74.1286 129.456 72.6055 129.494C82.5923 85.932 145.521 85.7781 155.488 129.494Z" fill="#296BAF"/>
<path d="M150.882 129.494C150.13 129.456 146.814 129.648 146.506 129.379C143.517 118.565 134.706 109.926 124.064 106.52C123.601 106.366 122.078 105.924 121.654 106.289C120.343 105.5 118.685 105.654 118.087 105.366C116.584 104.654 115.292 102.903 113.248 102.614C110.183 102.172 107.233 103.557 105.768 106.289C94.3544 108.983 84.811 118.065 81.5913 129.379C81.2443 129.648 77.986 129.456 77.2148 129.494C87.0281 91.839 141.204 91.6466 150.882 129.494Z" fill="#8A59A3"/>
<path d="M33.1039 53.3755H191.62C193.683 53.7988 195.631 55.3573 195.997 57.5316C197.385 65.9209 195.958 83.1419 195.997 92.5317C196.035 107.251 196.498 122.394 195.361 136.902C194.859 137.903 193.143 139.153 192.064 139.346C187.687 140.116 176.814 139.519 171.705 139.558C168.678 139.558 165.574 139.558 162.528 139.558H139.932C139.836 138.48 139.662 137.441 139.508 136.363L188.227 136.152C192.951 134.536 192.006 131.861 192.179 128.07C192.295 125.3 192.179 122.721 192.179 119.989C192.179 117.257 192.179 114.448 192.179 111.696C192.179 108.945 192.179 106.155 192.179 103.403C192.179 100.652 192.392 98.1501 192.392 95.5333C192.392 92.9165 192.392 90.1457 192.392 87.4519C192.392 84.7581 192.411 82.0644 192.392 79.3706C192.353 74.0599 192.604 68.7109 192.179 63.4195C191.871 59.6867 192.257 58.1666 188.227 56.3964H36.42C32.4099 57.9164 32.2556 59.6097 32.0435 63.4195C31.8893 66.4404 32.1592 69.5382 32.0435 72.5784C31.7351 74.0407 32.0821 77.4272 32.0435 79.1781C32.0435 79.2551 32.0435 79.3128 32.0435 79.3898C32.005 82.0836 32.0435 84.7774 32.0435 87.4712C32.0435 90.165 32.2749 92.8972 32.2556 95.5525C32.2363 98.2079 32.2556 100.805 32.2556 103.422C32.2556 106.039 32.0243 108.964 32.0435 111.715C32.0628 114.467 32.2171 117.257 32.2556 120.008C32.2942 122.76 31.9471 125.396 32.0435 128.09C32.1785 132.034 31.6194 134.401 35.9958 136.171H84.0791C83.8477 137.326 83.5971 138.403 83.4428 139.577H61.6955C58.7264 139.577 55.6995 139.577 52.7498 139.577C47.4672 139.538 36.9984 140.135 32.3906 139.365C30.0385 138.98 28.5347 136.825 28.2262 134.574C27.2237 127.108 28.2647 115.025 28.2262 107.02C28.1683 94.9753 28.0912 82.8917 28.2262 70.8466C28.284 65.5745 26.0669 54.1451 33.1232 53.3947L33.1039 53.3755Z" fill="#6369D2"/>
<path d="M195.995 92.5318C195.956 83.142 197.383 65.921 195.995 57.5318C195.628 55.3767 193.7 53.7989 191.618 53.3756H33.1016C35.3573 52.5098 40.9291 53.8182 42.7992 53.164C43.2619 53.01 48.2167 47.0067 49.4121 45.9292C79.546 18.7797 113.921 51.7401 145.578 43.7934C159.479 40.3108 167.557 32.4988 183.309 37.8286C206.521 45.6791 210.628 71.7319 197.922 90.7039C197.498 91.3388 196.824 92.6088 195.995 92.5126V92.5318Z" fill="#FED4B0"/>
<path d="M28.2058 107.001C10.4686 99.3431 10.7385 78.5624 28.2058 70.8274C28.0708 82.8725 28.1479 94.956 28.2058 107.001Z" fill="#FED4B0"/>
<path d="M193.078 128.071C192.904 131.861 193.849 134.536 189.125 136.152L139.487 136.364C139.062 133.651 138.368 130.899 137.559 128.282L192.139 128.071H193.078Z" fill="#6369D2"/>
<path d="M86.4111 128.071C85.5242 130.745 84.6373 133.909 84.0589 136.66H35.9757C31.5993 134.89 32.1777 132.015 32.0234 128.071H86.3918H86.4111Z" fill="#6369D2"/>
<path d="M141.415 147.427C145.926 149.005 150.688 150.39 154.641 153.18C160.598 157.375 167.809 172.364 168.715 179.464C168.753 179.83 169.062 180.676 168.599 180.85H56.6621C56.1994 180.676 57.6261 175.712 57.8381 175C59.8818 167.958 63.8919 157.548 69.9843 153.18C73.3775 150.756 78.5251 148.967 82.5545 147.87C82.7666 147.812 82.8052 147.658 82.9787 147.658C85.5621 178.425 136.094 180.83 139.911 147.235C140.412 147.427 140.875 147.427 141.396 147.447L141.415 147.427Z" fill="#FED267"/>
<path d="M121.366 87.856C124.258 89.53 126.456 92.4932 127.767 95.514C128.827 97.9769 129.444 100.786 130.119 103.384C130.832 106.135 131.102 109.137 131.815 111.888C132.529 114.64 133.454 117.199 134.38 119.97C135.305 122.741 136.712 125.434 137.58 128.263C138.37 130.88 139.084 133.65 139.508 136.344C139.681 137.402 139.855 138.461 139.932 139.538C140.144 142.174 140.241 144.56 139.932 147.196C136.115 180.792 85.583 178.387 82.9995 147.62C82.7874 145.022 83.0959 142.117 83.4237 139.538C83.5779 138.365 83.8285 137.287 84.0599 136.133C84.6383 133.381 85.5251 130.706 86.412 128.051C87.2988 125.396 88.4942 122.702 89.4003 119.97C90.3643 117.045 91.1355 114.698 91.9645 111.677C92.7164 108.925 93.1598 106.116 93.8925 103.384C94.6251 100.651 95.1456 98.0154 96.2446 95.514C97.5748 92.4739 99.3293 90.011 102.221 88.2793C107.504 85.1237 116.006 84.7196 121.404 87.856H121.366Z" fill="#272623"/>
<path d="M62.1745 88.1641C61.9046 88.4719 61.5768 88.7221 61.4226 88.9145C51.3394 89.3186 41.1984 89.2223 31.0959 89.1646C30.2669 89.1646 29.245 89.4148 28.5702 89.4148C27.3556 89.4148 17.3688 89.3186 17.1953 88.7798C17.6195 86.7787 21.1283 86.8749 21.8802 86.3746C22.6321 85.8743 21.4947 83.5269 24.1552 81.8337C24.4637 81.6412 25.794 81.6605 25.929 81.5835C26.3917 81.3141 27.5677 78.4279 28.5895 77.5428C28.7245 77.4274 30.9802 76.0613 31.1152 76.0228C31.9249 75.7919 34.6819 75.6572 35.5302 75.7726C36.8605 75.9458 39.5982 77.8315 39.8295 77.793C40.6778 77.639 41.8731 73.9832 46.6545 75.5225C48.5631 76.1382 49.2379 78.6973 49.932 79.0629C50.1634 79.1784 52.0527 79.2361 52.7083 79.5632C56.9305 81.7182 55.5423 84.0464 57.2582 85.6242C58.3379 86.6055 61.3455 85.7012 62.1938 88.1448L62.1745 88.1641Z" fill="#FEFEFF"/>
<path d="M100.733 59.302C100.463 59.6099 100.135 59.86 99.9812 60.0524C89.898 60.4565 79.757 60.3603 69.6545 60.3026C68.8254 60.3026 67.8036 60.5527 67.1288 60.5527C65.9142 60.5527 55.9274 60.4565 55.7539 59.9177C56.1781 57.9166 59.6869 58.0128 60.4388 57.5126C61.1907 57.0123 60.0532 54.6648 62.7138 52.9716C63.0223 52.7792 64.3526 52.7984 64.4875 52.7215C64.9503 52.4521 66.1263 49.5659 67.1481 48.6808C67.2831 48.5653 69.5388 47.1992 69.6737 47.1607C70.4835 46.9298 73.2405 46.7951 74.0888 46.9106C75.4191 47.0837 78.1568 48.9694 78.3881 48.9309C79.2364 48.777 80.4317 45.1211 85.2131 46.6604C87.1217 47.2762 87.7965 49.8353 88.4906 50.2008C88.7219 50.3163 90.6113 50.374 91.2668 50.7011C95.4891 52.8562 94.1009 55.1844 95.8168 56.7621C96.8965 57.7435 99.9041 56.8391 100.752 59.2828L100.733 59.302Z" fill="#FEFEFF"/>
<path d="M204.842 76.6191C204.573 76.927 204.245 77.1771 204.091 77.3696C194.007 77.7736 183.866 77.6774 173.764 77.6197C172.935 77.6197 171.913 77.8698 171.238 77.8698C170.024 77.8698 160.037 77.7736 159.863 77.2349C160.287 75.2338 163.796 75.33 164.548 74.8297C165.3 74.3294 164.163 71.982 166.823 70.2887C167.132 70.0963 168.462 70.1156 168.597 70.0386C169.06 69.7692 170.236 66.883 171.258 65.9979C171.392 65.8825 173.648 64.5163 173.783 64.4778C174.593 64.247 177.35 64.1123 178.198 64.2277C179.528 64.4009 182.266 66.2865 182.497 66.2481C183.346 66.0941 184.541 62.4383 189.322 63.9776C191.231 64.5933 191.906 67.1524 192.6 67.518C192.831 67.6334 194.721 67.6912 195.376 68.0183C199.598 70.1733 198.21 72.5015 199.926 74.0793C201.006 75.0606 204.013 74.1563 204.862 76.5999L204.842 76.6191Z" fill="#FEFEFF"/>
<path d="M85.3112 127.348C85.0413 127.656 84.7136 127.906 84.5593 128.098C74.4761 128.502 64.3351 128.406 54.2326 128.348C53.4036 128.348 52.3818 128.599 51.707 128.599C50.4924 128.599 40.5055 128.502 40.332 127.964C40.7562 125.963 44.2651 126.059 45.017 125.558C45.7689 125.058 44.6314 122.711 47.2919 121.017C47.6004 120.825 48.9307 120.844 49.0657 120.767C49.5284 120.498 50.7044 117.612 51.7262 116.727C51.8612 116.611 54.1169 115.245 54.2519 115.207C55.0616 114.976 57.8186 114.841 58.6669 114.956C59.9972 115.13 62.7349 117.015 62.9662 116.977C63.8145 116.823 65.0099 113.167 69.7912 114.706C71.6999 115.322 72.3746 117.881 73.0687 118.247C73.3001 118.362 75.1895 118.42 75.845 118.747C80.0672 120.902 78.6791 123.23 80.3949 124.808C81.4746 125.789 84.4822 124.885 85.3305 127.329L85.3112 127.348Z" fill="#FEFEFF"/>
<path d="M189.421 127.29C189.151 127.598 188.823 127.848 188.669 128.04C178.585 128.445 168.444 128.348 158.342 128.291C157.513 128.291 156.491 128.541 155.816 128.541C154.602 128.541 144.615 128.445 144.441 127.906C144.866 125.905 148.374 126.02 149.126 125.52C149.878 125.02 148.741 122.691 151.401 120.998C151.71 120.806 153.04 120.825 153.175 120.748C153.638 120.479 154.814 117.592 155.836 116.727C155.971 116.611 158.226 115.264 158.361 115.226C159.171 114.995 161.928 114.86 162.776 114.976C164.107 115.149 166.844 117.034 167.076 116.977C167.924 116.823 169.119 113.186 173.901 114.725C175.809 115.341 176.484 117.881 177.178 118.247C177.409 118.362 179.299 118.42 179.954 118.747C184.177 120.883 182.788 123.211 184.504 124.769C185.584 125.751 188.592 124.846 189.44 127.29H189.421Z" fill="#FEFEFF"/>
<path d="M52.851 138.181C52.9806 137.762 53.3679 137.477 53.8063 137.477L58.8188 137.477C59.5059 137.477 59.9883 138.154 59.7641 138.803L55.5957 150.877C55.453 151.29 55.0585 151.563 54.6216 151.55L50.0829 151.419C49.4217 151.4 48.961 150.755 49.1564 150.124L52.851 138.181Z" fill="#6369D2"/>
<path d="M172.028 138.181C171.898 137.762 171.511 137.477 171.073 137.477L166.06 137.477C165.373 137.477 164.891 138.154 165.115 138.803L169.283 150.877C169.426 151.29 169.82 151.563 170.257 151.55L174.796 151.419C175.457 151.4 175.918 150.755 175.722 150.124L172.028 138.181Z" fill="#6369D2"/>
<rect x="151.016" y="133.856" width="6.30996" height="1.40221" rx="0.701107" fill="white"/>
<rect x="151.016" y="131.052" width="6.30996" height="1.40221" rx="0.701107" fill="white"/>
<circle cx="165.736" cy="133.155" r="2.10332" fill="white"/>
<circle cx="173.451" cy="133.155" r="2.10332" fill="white"/>
</svg>
