<svg width="220" height="220" viewBox="0 0 220 220" fill="none" xmlns="http://www.w3.org/2000/svg">
<path d="M110 199C162.467 199 205 156.467 205 104C205 51.5329 162.467 9 110 9C57.5329 9 15 51.5329 15 104C15 156.467 57.5329 199 110 199Z" fill="#6369D2"/>
<path d="M149.66 92.033C149.606 92.8681 151.805 94.7835 151.744 94.952C151.698 95.0899 149.821 95.7871 149.936 97.0359C149.844 96.1855 147.867 94.8294 147.852 94.6685C147.829 94.454 149.905 93.0826 149.66 92.0254V92.033Z" fill="#F9D951"/>
<path d="M141.104 36.143C141.189 36.1506 142.345 37.3075 142.353 37.3918C142.361 37.476 141.189 38.6329 141.104 38.6405C141.02 38.6482 139.855 37.476 139.855 37.3918C139.855 37.3075 141.02 36.1276 141.104 36.143Z" fill="#FED267"/>
<path d="M160.104 29.8097C160.189 29.8174 161.345 30.9742 161.353 31.0585C161.361 31.1428 160.189 32.2996 160.104 32.3073C160.02 32.315 158.855 31.1428 158.855 31.0585C158.855 30.9742 160.02 29.7944 160.104 29.8097Z" fill="#FED267"/>
<path d="M176.389 46.0954C176.474 46.103 177.631 47.2599 177.638 47.3442C177.646 47.4284 176.474 48.5853 176.389 48.5929C176.305 48.6006 175.141 47.4284 175.141 47.3442C175.141 47.2599 176.305 46.08 176.389 46.0954Z" fill="#FED267"/>
<path d="M120.296 25.2858C120.38 25.2935 121.537 26.4503 121.544 26.5346C121.552 26.6189 120.38 27.7757 120.296 27.7834C120.211 27.791 119.047 26.6189 119.047 26.5346C119.047 26.4503 120.211 25.2705 120.296 25.2858Z" fill="#FED267"/>
<path d="M104.913 44.2858C104.997 44.2935 106.154 45.4503 106.162 45.5346C106.169 45.6189 104.997 46.7757 104.913 46.7834C104.829 46.791 103.664 45.6189 103.664 45.5346C103.664 45.4503 104.829 44.2705 104.913 44.2858Z" fill="#FED267"/>
<path d="M82.2957 43.381C82.3799 43.3887 83.5368 44.5455 83.5445 44.6298C83.5521 44.7141 82.3799 45.8709 82.2957 45.8786C82.2114 45.8862 81.0469 44.7141 81.0469 44.6298C81.0469 44.5455 82.2114 43.3657 82.2957 43.381Z" fill="#FED267"/>
<path d="M55.1511 37.9525C55.2354 37.9602 56.3923 39.1171 56.3999 39.2013C56.4076 39.2856 55.2354 40.4425 55.1511 40.4501C55.0669 40.4578 53.9023 39.2856 53.9023 39.2013C53.9023 39.1171 55.0669 37.9372 55.1511 37.9525Z" fill="#FED267"/>
<path d="M66.0066 27.0954C66.0909 27.103 67.2477 28.2599 67.2554 28.3442C67.2631 28.4284 66.0909 29.5853 66.0066 29.5929C65.9223 29.6006 64.7578 28.4284 64.7578 28.3442C64.7578 28.2599 65.9223 27.08 66.0066 27.0954Z" fill="#FED267"/>
<path d="M143.537 117.361C144.28 117.438 144.28 119.514 143.537 119.591C142.526 119.69 142.533 117.262 143.537 117.361Z" fill="#FEFEFF"/>
<path d="M157.727 127.658C158.202 127.727 158.639 129.795 157.727 129.887C156.677 129.995 156.777 127.52 157.727 127.658Z" fill="#FEFEFF"/>
<path d="M69.3614 55.2971C67.6146 56.1016 65.1171 59.6794 63.3779 61.1427C57.2719 66.2605 49.6336 70.2673 41.39 69.7693C39.8578 72.2976 46.3622 71.156 47.7949 70.8802C53.8473 69.708 67.8675 62.0161 69.6449 55.8488C69.959 56.0863 70.5183 56.4004 70.7558 56.6838C71.1312 57.1129 71.2997 57.6492 71.5908 58.0782C63.5312 67.7851 53.0812 74.481 39.8654 71.9911C39.8041 71.7306 39.6279 71.6923 39.5896 71.4318C39.513 70.9951 39.3291 69.8383 39.3138 69.4859C39.2372 68.1451 39.4364 67.1492 39.5896 65.8697C47.8638 65.2798 53.7094 64.7588 60.3211 59.4649C61.5775 58.4613 67.7219 53.4814 64.7723 52.7842C58.3981 60.9588 50.2388 64.6286 39.8654 64.4754C40.0263 63.6939 40.1719 63.0121 40.4247 62.2459C42.7537 61.5105 45.305 62.1157 47.8025 61.6867C54.4219 60.5605 58.3291 55.9867 62.6961 51.3899C65.3316 52.2786 67.3235 53.3895 69.3767 55.2895L69.3614 55.2971Z" fill="#FEB696"/>
<path d="M64.3514 84.7929L54.8897 85.4901C59.1264 83.6973 63.4014 81.8586 66.9945 78.9473C67.5691 78.48 77.2377 68.7042 74.2344 68.9264C68.4578 76.7332 61.3098 82.9848 51.5493 85.0687C48.5155 84.0727 45.7038 82.2876 43.7578 79.7824C44.6772 79.5372 46.0715 79.001 47.0981 78.6715C46.8453 79.2538 48.7683 79.5066 48.9062 79.5066C54.2614 79.4453 62.1985 75.3618 65.1864 70.88C68.2586 69.2481 71.8135 67.0493 74.6481 65.0344C76.6707 73.1937 72.1889 81.782 64.3514 84.7929Z" fill="#EE705D"/>
<path d="M61.0106 50.8382C56.1303 56.5995 51.7098 60.0624 43.8952 60.5757C43.4126 60.6063 41.4896 60.9128 41.5279 60.0164C41.8344 59.4035 41.9569 58.9591 42.363 58.3462C48.4844 57.9938 54.5751 55.2817 58.2295 50.2712C59.0876 50.3095 60.1525 50.6313 61.0106 50.8305V50.8382Z" fill="#FED267"/>
<path d="M69.3632 55.2971C69.4398 55.2588 69.5624 55.3277 69.639 55.2971C69.616 55.4733 69.6773 55.7108 69.639 55.8564C67.8692 62.0237 53.8414 69.708 47.789 70.8878C46.364 71.1636 39.8519 72.2975 41.3842 69.7769C49.6277 70.2749 57.266 66.268 63.3721 61.1503C65.1112 59.687 67.6088 56.1092 69.3555 55.3047L69.3632 55.2971Z" fill="#FED267"/>
<path d="M39.582 65.8697C39.6586 65.2568 39.7582 64.9733 39.8578 64.4753C50.2312 64.6362 58.3982 60.9588 64.7647 52.7842C67.7143 53.4814 61.5699 58.4612 60.3135 59.4648C53.7018 64.7511 47.8486 65.2721 39.582 65.8697Z" fill="#FED267"/>
<path d="M64.3528 84.7931C59.5722 86.6318 56.431 86.6778 51.5508 85.0689C61.3036 82.985 68.4516 76.7334 74.2359 68.9266C77.2391 68.7044 67.5705 78.4802 66.9959 78.9476C63.4028 81.8588 59.1278 83.6899 54.8911 85.4903L64.3528 84.7931Z" fill="#FEB696"/>
<path d="M62.6815 51.3973C58.3146 55.9941 54.415 60.5755 47.788 61.6941C45.2981 62.1155 42.7392 61.5179 40.4102 62.2534C40.7089 61.3493 41.115 60.8284 41.521 60.0239C41.4827 60.9203 43.4057 60.6139 43.8884 60.5832C51.7106 60.0699 56.1235 56.607 61.0037 50.8457C61.6856 50.9989 62.0533 51.1905 62.6739 51.405L62.6815 51.3973Z" fill="#FED267"/>
<path d="M55.9997 50.2866C54.0308 54.079 48.3538 56.7221 44.3086 56.1322C47.5263 52.7536 51.1578 50.5931 55.9997 50.2866Z" fill="#FED4B0"/>
<path d="M58.2298 50.2866C54.5754 55.2894 48.4923 58.0091 42.3633 58.3616C43.1447 57.1741 43.4282 57.0591 44.3092 56.1321C48.3544 56.722 54.0314 54.0789 56.0004 50.2866C56.7205 50.2406 57.5097 50.2482 58.2298 50.2866Z" fill="#FED267"/>
<path d="M72.144 58.9132C69.6618 63.6249 63.4332 68.3902 58.7828 71.1559C56.7066 72.3971 56.9517 72.512 54.3316 73.1019C49.5126 74.1898 45.2606 73.6918 40.4186 73.937C40.1888 73.2935 40.0126 72.6576 39.8594 71.991C53.0751 74.481 63.5251 67.7773 71.5848 58.0781C71.7763 58.3616 71.9602 58.6144 72.144 58.9132Z" fill="#FEB696"/>
<path d="M39.859 71.9909C40.0122 72.6574 40.1885 73.2933 40.4183 73.9369C40.832 75.0937 41.4526 76.1127 41.8127 77.2772C34.5727 78.097 34.6417 75.5458 39.5832 71.4316C39.6292 71.6845 39.8054 71.7228 39.859 71.9909Z" fill="#6369D2"/>
<path d="M74.0981 62.2535C73.3627 61.1886 72.8264 60.0164 72.1522 58.9132C71.9683 58.6144 71.7844 58.3616 71.5929 58.0781C71.3018 57.6567 71.1332 57.1204 70.7578 56.6837C77.5227 55.6188 78.8481 57.4422 74.0981 62.2535Z" fill="#6369D2"/>
<path d="M65.1854 70.8801C62.1975 75.3696 54.2604 79.4455 48.9052 79.5067C48.7673 79.5067 46.8443 79.2539 47.0971 78.6717C52.7358 76.8713 59.9451 73.6612 65.1854 70.8801Z" fill="#FEB696"/>
<path d="M74.0963 62.2534C70.3729 66.0151 63.7383 69.5163 58.7891 71.1558C63.4395 68.3824 69.6681 63.6248 72.1504 58.9131C72.8245 60.0163 73.3685 61.1885 74.0963 62.2534Z" fill="#FEB696"/>
<path d="M54.3307 73.1096C50.8295 75.2012 45.8573 76.8253 41.8045 77.285C41.4444 76.1205 40.8239 75.1016 40.4102 73.9447C45.2521 73.6995 49.5118 74.1975 54.3231 73.1096H54.3307Z" fill="#FEB696"/>
<path d="M74.6479 65.0344C71.8132 67.0494 68.2583 69.2481 65.1862 70.88C59.9382 73.661 52.7289 76.8711 47.0979 78.6715C46.0712 79.001 44.6769 79.5373 43.7575 79.7824C26.6345 84.3562 27.0559 78.1965 39.3063 69.4856C39.3293 69.8457 39.5132 71.0026 39.5821 71.4316C34.6406 75.5457 34.564 78.0969 41.8116 77.2772C45.8644 76.8175 50.8366 75.1933 54.3378 73.1018C56.9579 72.5042 58.789 71.1558 58.789 71.1558C63.7382 69.5086 70.3729 66.0151 74.0962 62.2534C78.8462 57.4498 77.5208 55.6264 70.7559 56.6836C70.5108 56.4002 69.9591 56.086 69.645 55.8485C69.6833 55.703 69.6221 55.4731 69.645 55.2893C71.8515 54.4159 82.2095 52.5006 83.0063 55.4272C83.8797 58.6526 76.9692 63.3873 74.6555 65.0268L74.6479 65.0344Z" fill="#FEFEFF"/>
<path d="M158.425 110.405C158.762 110.864 159.413 112.55 159.819 112.91C156.402 116.258 155.475 111.906 157.735 109.57C158.21 109.47 158.21 110.106 158.432 110.405H158.425Z" fill="#406481"/>
<path d="M141.724 74.4963C139.839 77.193 133.974 85.9045 124.323 92.1317C126.23 85.0986 131.945 85.7228 125.379 88.6188C117.902 91.9208 118.342 88.9378 128.914 87.0301C129.068 88.0721 127.236 89.4588 126.547 90.0946C121.866 94.4156 115.469 100.146 110.129 103.456C109.079 104.107 104.322 105.647 104.421 106.658L105.816 108.466C105.08 107.915 104.375 107.294 103.87 106.52C105.54 104.889 117.507 93.4426 117.507 92.462C117.507 92.3547 116.082 90.9297 115.974 90.9297C114.986 90.9297 103.555 103.149 101.916 104.843C98.1925 100.935 96.8825 101.556 99.4107 96.4918C100.928 93.4656 104.49 88.3402 106.651 85.6358C107.072 85.1071 107.601 84.4942 108.045 83.9656C114.09 76.7487 122.701 68.4592 129.474 61.7019C133.274 66.2067 137.349 70.5507 141.716 74.5039L141.724 74.4963Z" fill="#FEFEFF"/>
<path d="M145.899 77.8366C139.042 84.931 131.871 91.9027 124.47 98.4301C124.064 98.7902 123.727 99.2193 123.359 99.541C121.237 101.403 113.913 108.206 111.951 109.003C111.63 109.133 107.585 109.891 107.362 109.838C107.263 109.815 104.922 107.879 104.569 107.619L102.759 105.809C102.652 104.798 109.086 104.084 110.143 103.433C115.491 100.131 121.888 94.3926 126.562 90.0717C127.243 89.4358 129.517 87.0637 130.354 86.3568C133.589 83.897 132.79 84.1342 135.05 81.7209C137.31 79.3076 139.846 77.1854 141.731 74.481C143.01 75.6378 144.512 76.7947 145.906 77.8213L145.899 77.8366Z" fill="#FEFEFF"/>
<path d="M96.6497 102.093C83.0458 109.317 76.91 122.693 71.312 136.372C81.1413 132.734 103.1 124.279 106.168 113.284C106.358 112.606 106.414 111.381 106.498 110.647C109.09 114.279 106.691 118.054 104.612 121.183C101.277 124.116 99.0014 126.095 96.2522 128.254C94.827 129.374 92.2936 131.1 90.7494 132.042C85.5897 135.162 69.5061 142.611 63.9274 143.738C63.4042 143.842 63.3668 144.171 62.9575 143.58C68.6273 133.129 73.0289 121.372 80.5835 112.063C84.4904 107.254 90.0563 101.882 96.6574 102.093L96.6497 102.093Z" fill="#FED267"/>
<path d="M96.6407 102.085C96.6407 102.085 98.6202 103.376 98.842 103.525C95.4619 105.433 92.7998 107.08 90.3534 110.171C89.4171 111.363 82.1717 124.287 83.2315 124.922C91.1179 121.865 103.008 118.982 105.118 109.5C105.419 109.782 106.303 110.39 106.49 110.639C106.405 111.381 106.342 112.598 106.16 113.276C103.099 124.279 81.1331 132.726 71.3038 136.364C76.9018 122.685 83.0368 109.309 96.6407 102.085Z" fill="#FEB696"/>
<path d="M101.572 106.37C100.832 107.328 99.6122 107.763 100.548 108.855C101.483 109.947 100.628 107.181 101.57 106.434C102.252 106.808 104.523 108.952 105.124 109.508C103.007 118.99 91.1165 121.873 83.2378 124.93C82.1778 124.303 89.4234 111.371 90.3596 110.179C92.8061 107.087 95.4683 105.433 98.8482 103.533C99.6334 104.484 100.959 105.224 101.572 106.37Z" fill="#FED267"/>
<path d="M162.599 44.441L148.447 67.8093C144.226 64.0323 136.685 55.1426 137.27 54.1862C138.312 53.3971 138.956 52.945 140.051 52.2402C140.327 53.0063 141.292 52.8761 141.859 52.7995C145.261 52.3092 156.278 48.3483 159.113 46.3946C159.726 45.9733 161.074 45.0769 160.921 44.1652C161.472 44.1116 161.909 43.943 162.453 43.8894L162.591 44.4487L162.599 44.441Z" fill="#F9604C"/>
<path d="M152.975 70.0711C151.572 69.0139 149.307 68.9737 147.997 67.8092C147.951 67.7709 149.286 66.1913 149.24 66.153L162.601 44.4409C161.766 53.5425 158.192 62.6014 152.975 70.0711Z" fill="#F9604C"/>
<rect width="3.16112" height="29.2111" rx="1" transform="matrix(-0.708153 -0.706059 -0.706059 0.708153 118.383 92.6602)" fill="#F9604C"/>
<path d="M143.393 72.5503C144.795 73.8221 146.189 73.6903 147.998 75.9522C147.309 76.6801 146.289 77.4306 145.899 77.8366C144.504 76.81 143.003 75.6532 141.723 74.4963C137.356 70.5431 133.28 66.1991 129.48 61.6943C130.04 61.135 130.693 60.6782 131.26 60.1189C135.029 64.6161 139.049 68.6201 143.393 72.5503Z" fill="#F9604C"/>
<path d="M160.928 44.1575C161.081 45.0615 159.733 45.9655 159.12 46.3869C156.278 48.3405 145.268 52.3014 141.867 52.7917C141.3 52.876 140.327 53.0063 140.059 52.2325C145.452 48.7542 154.538 44.7627 160.936 44.1575H160.928Z" fill="#F9604C"/>
<path d="M147.291 68.6507C147.283 68.7273 147.268 68.8652 147.291 68.9265C146.556 69.2942 145.809 70.8461 145.281 71.4283C133.066 61.4759 134.424 61.4759 133.066 57.8569C133.741 57.221 134.654 56.6296 135.328 56.0474L147.995 67.8093L147.291 68.6507Z" fill="#F9604C"/>
<path d="M106.658 85.6281C104.505 88.3326 100.935 93.4503 99.4176 96.4842C96.7898 96.6068 90.0519 94.6921 87.8302 95.4046C87.7919 95.2591 88.0789 95.4499 88.0099 95.3656C87.7111 95.0056 87.3817 95.1052 87.4507 94.6685C87.5579 94.0249 94.9051 86.287 96.0773 84.7854L106.65 85.6205L106.658 85.6281Z" fill="#F9604C"/>
<path d="M108.053 83.958C107.609 84.4866 107.088 85.0995 106.659 85.6282L96.0859 84.7931C96.6912 84.0193 97.9246 82.8471 98.3154 82.2878L108.053 83.958Z" fill="#F9604C"/>
<path d="M123.357 99.5486L127.532 107.34C123.84 110.895 119.702 115.093 116.4 118.196C116.477 118.403 116.148 117.897 116.4 118.196C115.374 115.538 113.321 111.561 111.949 109.01C113.911 108.213 121.235 101.403 123.357 99.5486Z" fill="#F9604C"/>
<rect x="99.4648" y="76.9199" width="4.16774" height="33.4081" rx="2.08387" transform="rotate(43.382 99.4648 76.9199)" fill="#F9604C"/>
<rect x="131.133" y="101.285" width="4.16774" height="33.4081" rx="2.08387" transform="rotate(43.382 131.133 101.285)" fill="#F9604C"/>
<path d="M128.921 105.946C128.554 106.26 127.964 106.919 127.527 107.34L123.352 99.5486C123.719 99.2269 124.056 98.7902 124.462 98.4377L128.914 105.953L128.921 105.946Z" fill="#F9604C"/>
<path d="M151.618 71.8805C151.15 72.4551 150.297 73.6687 149.799 74.2203C148.351 73.0865 146.203 72.6463 144.832 71.4281C145.361 70.8535 146.811 67.7244 147.546 67.3567C147.684 67.7934 151.342 70.8845 151.618 71.8805Z" fill="#F9604C"/>
<path d="M126.562 71.7153C136.714 71.0334 137.426 85.6435 128.233 86.7467C117.606 88.0185 116.817 72.3741 126.562 71.7153Z" fill="#FEFEFF"/>
<path d="M127.114 73.1096C135.932 72.9717 135.281 87.1375 125.444 85.3524C119.1 84.2032 119.567 73.2246 127.114 73.1096Z" fill="#F9604C"/>
<path d="M121.826 77.5608C122.286 77.3003 131.97 77.5301 132.399 77.8366C132.598 77.9745 132.598 79.0087 132.537 79.0854C132.131 79.6216 122.914 78.5337 121.543 78.9475C121.321 78.7253 121.757 77.5914 121.819 77.5531L121.826 77.5608Z" fill="#F9604C"/>
<path d="M137.141 54.2379C142.119 61.7812 145.544 65.335 152.974 70.0711L151.618 71.8807C144.309 66.7425 140.794 63.2205 135.332 56.0475L137.141 54.2379Z" fill="#FEFEFF"/>
<path d="M133.07 57.857C138.047 65.4002 142.379 69.4066 149.808 74.1427L147.998 75.9522C140.69 70.814 136.722 67.2919 131.26 60.1189L133.07 57.857Z" fill="#FEFEFF"/>
<path d="M164.659 100.574C161.47 99.8141 157.166 104.104 158.377 109.888C159.179 113.721 158.719 117.038 160.124 119.776C161.701 122.848 160.622 128.098 160.096 129.716C158.594 134.337 160.469 135.837 159.082 139.578C158.855 141.061 162.159 143.514 162.658 142.788C167.413 138.701 171.876 131.388 173.633 127.654C174.659 125.472 175.555 123.418 174.659 119.311C174.177 117.104 170.043 101.857 164.659 100.573V100.574Z" fill="#FED267"/>
<path d="M181.699 191.283L186.506 200.235L178.14 204.892L180.728 201.133C180.728 201.133 180.925 200.73 180.914 200.586C180.775 198.616 177.344 193.544 177.344 193.544L181.699 191.283Z" fill="#FED4B0"/>
<path d="M185.31 198.038C185.343 197.912 186.478 197.962 187.273 199.142C187.978 200.192 188.163 201.289 186.743 202.223C181.789 205.48 180.849 206.137 178.101 207.536C176.958 208.119 175.71 207.14 176.402 205.888C176.862 205.058 180.728 201.168 180.728 201.133C181.798 201.385 185.623 199.209 185.311 198.038H185.31Z" fill="#272623"/>
<path d="M179.322 199.787C179.322 199.787 168.858 182.734 166.261 177.671C163.847 172.965 162.562 163.511 159.92 153.451C156.114 162.07 149.069 172.028 148.699 173.178C148.674 182.657 148.878 188.01 148.338 190.982C148.338 190.982 142.178 194.001 138.954 194.476C138.794 191.729 137.024 178.615 137.557 171.158C138.093 163.663 142.949 150.911 147.793 137.033L148.126 128.937L167.201 128.584C167.201 128.584 173.311 135.859 174.547 143.348C175.437 148.739 175.281 163.003 175.315 171.382C176.28 173.097 177.181 174.87 178.013 176.641C182.611 186.433 185.131 196.218 185.131 196.218C185.441 197.309 179.754 200.288 179.322 199.787Z" fill="#F9604C"/>
<path d="M151.18 93.2012L153.658 100.68C154.254 102.252 147.794 104.08 147.355 102.358L146.27 97.7459L151.18 93.2024V93.2012Z" fill="#F9604C"/>
<path d="M142.736 93.6566C142.999 94.0817 143.117 97.3669 144.834 98.1331C145.435 98.401 146.82 98.3048 148.732 99.825C150.975 101.608 151.966 91.1095 151.966 91.1095C152.354 91.8172 151.959 91.1071 151.966 91.1095C149.74 87.052 144.291 85.9314 144.291 85.9314C143.016 87.0118 143.55 89.3689 143.314 90.3275C143.067 91.3312 142.469 92.006 142.317 92.3666C142.08 92.9415 142.676 93.5603 142.736 93.6553V93.6566Z" fill="#FED4B0"/>
<path d="M150.165 100.998C147 101.113 149.024 105.4 147.227 109.815C144.853 115.641 147.996 132.531 147.996 132.531C153.926 134.074 162.355 132.531 167.739 129.45L165.428 103.629C163.366 98.8349 150.247 100.996 150.166 100.998H150.165Z" fill="#FED267"/>
<path d="M119.981 141.46C119.894 141.276 119.99 141.004 120.571 140.804C120.261 140.82 120.029 140.611 120.065 140.368C120.136 139.882 122.084 139.257 122.796 138.849C123.39 138.508 124.161 138.059 124.199 137.741C123.963 137.082 121.185 137.662 121.225 136.835C121.238 136.585 121.931 136.387 123.139 136.217C124.154 136.074 124.864 135.769 125.558 135.609C126.354 135.426 127.201 135.595 127.717 135.767C128.559 136.051 129.493 137.275 129.267 138.406C129.065 139.411 126.375 141.333 124.725 142.047C124.35 142.209 121.519 143.282 121.204 142.678C121.133 142.544 121.183 142.377 121.435 142.214C120.802 142.36 120.539 142.32 120.424 142.074C120.365 141.951 120.444 141.801 120.591 141.675C120.347 141.722 120.093 141.692 119.982 141.457L119.981 141.46Z" fill="#FED4B0"/>
<path d="M150.823 100.67C147.366 100.726 141.297 102.496 139.415 108.436C137.948 113.062 136.204 116.551 136.238 119.797C136.277 123.439 133.968 124.859 132.709 126.137C129.112 129.785 130.173 132.085 127.101 134.957C126.187 136.25 128.146 140.123 128.959 139.676C135.371 138.07 143.552 132.649 146.809 129.766C149.278 127.526 150.168 123.742 150.052 121.486C149.985 120.192 152.026 100.651 150.822 100.67H150.823Z" fill="#FED267"/>
<path d="M146.12 83.8706C148.093 83.8255 150.566 81.2638 154.837 82.7475C157.042 83.5137 158.93 85.5503 160.628 88.1631C161.971 90.2302 166.603 91.882 165.077 96.1234C163.845 99.5474 170 100.848 165.389 106.158C163.9 107.873 167.159 111.896 158.345 111.445C155.818 111.315 154.836 113.612 152.295 113.346C149.573 113.062 150.095 111.314 146.757 108.452C140.667 103.229 146.833 101.261 145.912 98.1016C144.76 94.1488 147.724 94.038 146.69 91.0269C146.384 90.1401 144.529 88.8075 143.904 86.537C143.511 85.1069 143.97 83.9217 146.12 83.8718V83.8706Z" fill="#272623"/>
<path d="M167.844 129.603C167.844 129.603 167.837 129.603 167.833 129.604C167.758 129.611 167.692 129.555 167.685 129.48L167.137 117.77C167.13 117.695 167.185 117.629 167.261 117.621C167.337 117.614 167.403 117.67 167.41 117.746L167.957 129.455C167.964 129.527 167.914 129.59 167.844 129.603Z" fill="#272623"/>
<path d="M146.841 129.982C146.798 129.982 146.754 129.961 146.725 129.923C146.676 129.859 146.689 129.767 146.754 129.719C146.782 129.698 149.509 127.593 150.167 122.822C150.178 122.741 150.252 122.685 150.331 122.697C150.411 122.708 150.467 122.783 150.455 122.862C149.915 126.774 147.912 129.211 146.928 129.952C146.901 129.972 146.871 129.982 146.84 129.982H146.841Z" fill="#272623"/>
<path d="M159.658 154.065C159.599 154.065 159.542 154.032 159.516 153.975C159.477 153.896 159.512 153.802 159.591 153.764C159.62 153.751 162.442 152.379 162.972 150.122C162.992 150.036 163.077 149.984 163.162 150.005C163.247 150.024 163.3 150.11 163.279 150.194C163.043 151.195 162.354 152.179 161.282 153.041C160.479 153.688 159.755 154.036 159.725 154.05C159.703 154.061 159.68 154.066 159.658 154.066V154.065Z" fill="#272623"/>
<path d="M176.502 66.0005C176.716 66.0199 179.649 68.9532 179.668 69.1669C179.688 69.3806 176.716 72.3139 176.502 72.3333C176.288 72.3527 173.335 69.3806 173.335 69.1669C173.335 68.9532 176.288 65.9616 176.502 66.0005Z" fill="#FED267"/>
<path d="M92.8112 23.4763C93.0248 23.4957 95.9583 26.429 95.9778 26.6427C95.9972 26.8564 93.0248 29.7897 92.8112 29.8091C92.5975 29.8286 89.6445 26.8564 89.6445 26.6427C89.6445 26.429 92.5975 23.4374 92.8112 23.4763Z" fill="#FED267"/>
</svg>
