<svg width="220" height="220" viewBox="0 0 220 220" fill="none" xmlns="http://www.w3.org/2000/svg">
<g clip-path="url(#clip0_476_489)">
<mask id="mask0_476_489" style="mask-type:luminance" maskUnits="userSpaceOnUse" x="35" y="67" width="150" height="86">
<path d="M185 67H35V153H185V67Z" fill="white"/>
</mask>
<g mask="url(#mask0_476_489)">
<path d="M110 153C133.748 153 153 133.748 153 110C153 86.2518 133.748 67 110 67C86.2518 67 67 86.2518 67 110C67 133.748 86.2518 153 110 153Z" fill="#3C5A70"/>
<path d="M72.5881 89.0201C72.2581 89.6001 71.8581 90.7301 71.5181 91.4401C66.5481 91.0201 61.3581 90.9801 56.3781 91.4401C53.4181 91.7101 42.1081 93.5801 40.2981 95.4701C35.4981 100.5 47.0581 105.32 50.4781 106.75C79.0781 116.64 143.458 130.34 171.848 127.44C197.538 123.38 159.878 107.87 152.688 107.02C152.608 106.26 152.538 105.34 152.418 104.6C160.228 106.97 168.778 109.6 175.858 113.74C180.238 116.3 189.588 121.88 182.288 126.63C173.798 132.15 157.678 130.31 147.998 129.85C148.548 129.16 147.288 130.43 147.998 129.85C144.718 130.89 69.4281 116.96 67.4981 115.48C67.3881 115.08 67.1181 115.93 67.4981 115.48C61.2481 112.91 36.2781 106.58 35.0781 99.0901C34.0981 92.9801 42.5781 91.2701 46.9981 90.3601C55.3181 88.6401 64.1381 88.5201 72.5781 89.0201H72.5881Z" fill="#8C9EAB"/>
<path d="M70.4483 93.3202C70.2983 93.6802 70.0983 94.4302 69.9083 94.9302C55.0983 95.5502 50.3683 102.47 67.0983 107.29C67.1983 106.56 66.9483 108 67.0983 107.29C77.4783 110.39 75.5383 110.59 86.1183 112.94C96.2883 115.19 75.7683 111.77 86.1183 112.94C88.7583 113.24 132.298 121.81 134.998 121.91C139.758 122.09 146.358 122.77 151.088 122.74C151.538 121.71 150.908 123.83 151.088 122.74C165.768 122.95 165.058 115.76 152.968 111.05C152.968 110.34 152.998 109.61 152.968 108.9C156.928 109.24 176.698 118.03 177.498 120.99C178.298 123.95 172.628 126.19 170.498 126.49C164.758 127.31 155.838 126.13 150.018 125.82L150.688 122.87C129.118 122.35 106.968 118.27 86.1183 112.93C84.0483 112.4 67.7983 106.88 67.2283 107.69C66.7683 108.34 67.4683 109.74 68.0283 110.24C62.1483 108.44 55.8083 106.88 50.2083 104.33C35.9183 97.8202 43.1183 94.9802 54.2283 93.5902C59.5383 92.9202 65.0983 92.8302 70.4383 93.3202H70.4483Z" fill="#8C9EAB"/>
<path d="M71.5196 91.4395C71.2696 91.9595 70.5796 93.0095 70.4496 93.3195C65.1096 92.8195 59.5496 92.9195 54.2396 93.5895C43.1296 94.9895 35.9396 97.8195 50.2196 104.33C55.8296 106.89 62.1496 108.44 68.0396 110.24C93.6996 118.12 123.16 124.43 150.02 125.82C155.83 126.12 162.9 126.37 168.64 125.55C170.77 125.24 177.91 124.2 177.08 121.12C176.25 118.04 156.93 109.24 152.97 108.9C152.97 108.73 152.74 108.36 152.7 107.83C152.68 107.57 152.73 107.28 152.7 107.02C159.88 107.86 197.54 123.38 171.86 127.44C142.69 132.05 78.2596 118.45 50.4896 106.75C47.0796 105.31 35.5096 100.5 40.3096 95.4695C42.1196 93.5795 53.4296 91.7095 56.3896 91.4395C61.3596 90.9795 66.5496 91.0195 71.5296 91.4395H71.5196Z" fill="#8C9EAB"/>
<path d="M150.019 125.83C123.149 124.43 93.689 118.13 68.039 110.25C67.479 109.75 66.779 108.35 67.239 107.7C67.809 106.89 84.059 112.41 86.129 112.94C106.979 118.28 129.129 122.36 150.699 122.88L150.029 125.84L150.019 125.83Z" fill="#8C9EAB"/>
</g>
</g>
<defs>
<clipPath id="clip0_476_489">
<rect width="150" height="86" fill="white" transform="translate(35 67)"/>
</clipPath>
</defs>
</svg>
