<svg width="291" height="300" viewBox="0 0 291 300" fill="none" xmlns="http://www.w3.org/2000/svg">
<path d="M45.334 21H42.936V5.6H52.462V7.69H45.334V12.442H51.626V14.532H45.334V21ZM57.9037 9.582C59.3411 9.582 60.4484 9.912 61.2257 10.572C62.0031 11.232 62.3917 12.2073 62.3917 13.498V21H60.3017V19.284C59.4951 20.6627 58.2191 21.352 56.4737 21.352C55.7404 21.352 55.0804 21.2053 54.4937 20.912C53.9217 20.6187 53.4744 20.2227 53.1517 19.724C52.8291 19.2107 52.6677 18.6607 52.6677 18.074C52.6677 16.9447 53.0197 16.1087 53.7237 15.566C54.4424 15.0087 55.5497 14.5907 57.0457 14.312L58.2337 14.092C58.9671 13.9453 59.4584 13.784 59.7077 13.608C59.9571 13.432 60.0817 13.146 60.0817 12.75C60.0817 12.3393 59.8984 12.002 59.5317 11.738C59.1797 11.4593 58.6371 11.32 57.9037 11.32C56.3784 11.32 55.5497 11.892 55.4177 13.036H53.1957C53.3571 11.8773 53.8704 11.012 54.7357 10.44C55.6157 9.868 56.6717 9.582 57.9037 9.582ZM60.0597 15.082C59.9424 15.214 59.7371 15.3313 59.4437 15.434C59.1651 15.5367 58.7617 15.6393 58.2337 15.742L57.0897 15.962C55.7111 16.226 55.0217 16.864 55.0217 17.876C55.0217 18.3453 55.1977 18.7193 55.5497 18.998C55.9164 19.2767 56.4077 19.416 57.0237 19.416C57.9037 19.416 58.6297 19.1593 59.2017 18.646C59.7737 18.1327 60.0597 17.37 60.0597 16.358V15.082ZM65.5969 21V9.934H67.8409V11.144C68.1195 10.6747 68.5229 10.3007 69.0509 10.022C69.5789 9.72867 70.2022 9.582 70.9209 9.582C72.1089 9.582 73.0842 9.97067 73.8469 10.748C74.6095 11.5253 74.9909 12.618 74.9909 14.026V21H72.6589V14.246C72.6589 13.366 72.4682 12.706 72.0869 12.266C71.7055 11.8113 71.1629 11.584 70.4589 11.584C69.7255 11.584 69.1169 11.826 68.6329 12.31C68.1635 12.7793 67.9289 13.432 67.9289 14.268V21H65.5969ZM82.1656 21.352C80.8309 21.352 79.7309 21.0587 78.8656 20.472C78.0149 19.8707 77.5383 18.9613 77.4356 17.744H79.7456C79.8189 18.3307 80.0463 18.7633 80.4276 19.042C80.8236 19.3207 81.4029 19.46 82.1656 19.46C82.8989 19.46 83.4709 19.328 83.8816 19.064C84.2923 18.8 84.4976 18.4333 84.4976 17.964C84.4976 17.5533 84.3656 17.2453 84.1016 17.04C83.8523 16.8347 83.3756 16.6293 82.6716 16.424L80.9116 15.896C79.8849 15.588 79.1223 15.2067 78.6236 14.752C78.1249 14.2827 77.8756 13.63 77.8756 12.794C77.8756 12.1927 78.0443 11.65 78.3816 11.166C78.7336 10.6673 79.2396 10.2787 79.8996 10C80.5596 9.72133 81.3296 9.582 82.2096 9.582C83.5296 9.582 84.5856 9.846 85.3776 10.374C86.1843 10.8873 86.6389 11.6793 86.7416 12.75H84.4096C84.1896 11.87 83.4563 11.43 82.2096 11.43C81.5643 11.43 81.0656 11.5473 80.7136 11.782C80.3763 12.002 80.2076 12.31 80.2076 12.706C80.2076 13.014 80.3249 13.2707 80.5596 13.476C80.8089 13.6667 81.2269 13.85 81.8136 14.026L83.7496 14.62C84.7763 14.928 85.5463 15.3167 86.0596 15.786C86.5876 16.2407 86.8516 16.9447 86.8516 17.898C86.8516 18.9687 86.4409 19.812 85.6196 20.428C84.8129 21.044 83.6616 21.352 82.1656 21.352ZM96.6997 21V11.694H94.9837V9.934H96.6997V8.614C96.6997 7.54333 97.0297 6.71467 97.6897 6.128C98.3644 5.54133 99.325 5.248 100.572 5.248C101.056 5.248 101.584 5.29933 102.156 5.402V7.294C101.686 7.22067 101.232 7.184 100.792 7.184C100.176 7.184 99.7284 7.316 99.4497 7.58C99.171 7.844 99.0317 8.26933 99.0317 8.856V9.934H102.068V11.694H99.0317V21H96.6997ZM104.097 21V9.934H106.341V11.782C106.62 11.0047 107.016 10.4473 107.529 10.11C108.042 9.758 108.702 9.582 109.509 9.582C109.773 9.582 110.044 9.604 110.323 9.648V11.892C109.971 11.848 109.67 11.826 109.421 11.826C108.482 11.826 107.749 12.1413 107.221 12.772C106.693 13.4027 106.429 14.3487 106.429 15.61V21H104.097ZM121.875 16.028H113.801C113.86 17.172 114.161 18.03 114.703 18.602C115.246 19.1593 115.957 19.438 116.837 19.438C117.571 19.438 118.15 19.2767 118.575 18.954C119.001 18.6313 119.301 18.2133 119.477 17.7H121.787C121.494 18.8587 120.9 19.7607 120.005 20.406C119.111 21.0367 118.04 21.352 116.793 21.352C115.693 21.352 114.74 21.11 113.933 20.626C113.127 20.1273 112.511 19.438 112.085 18.558C111.66 17.6633 111.447 16.6367 111.447 15.478C111.447 14.378 111.645 13.388 112.041 12.508C112.452 11.6133 113.053 10.902 113.845 10.374C114.652 9.846 115.62 9.582 116.749 9.582C118.421 9.582 119.69 10.1247 120.555 11.21C121.435 12.2953 121.875 13.7253 121.875 15.5V16.028ZM119.433 14.29C119.375 13.3953 119.125 12.6987 118.685 12.2C118.245 11.6867 117.6 11.43 116.749 11.43C115.899 11.43 115.231 11.6793 114.747 12.178C114.263 12.662 113.963 13.366 113.845 14.29H119.433ZM136.345 9.582C137.489 9.582 138.42 9.97067 139.139 10.748C139.857 11.5107 140.217 12.5813 140.217 13.96V21H137.885V14.18C137.885 13.3293 137.716 12.684 137.379 12.244C137.056 11.804 136.572 11.584 135.927 11.584C135.237 11.584 134.658 11.826 134.189 12.31C133.719 12.7793 133.485 13.432 133.485 14.268V21H131.175V14.18C131.175 13.3293 131.006 12.684 130.669 12.244C130.346 11.804 129.855 11.584 129.195 11.584C128.505 11.584 127.926 11.826 127.457 12.31C127.002 12.7793 126.775 13.432 126.775 14.268V21H124.443V9.934H126.687V11.144C126.965 10.66 127.354 10.2787 127.853 10C128.351 9.72133 128.953 9.582 129.657 9.582C130.375 9.582 131.021 9.75067 131.593 10.088C132.179 10.4253 132.634 10.902 132.957 11.518C133.309 10.8727 133.778 10.3887 134.365 10.066C134.951 9.74333 135.611 9.582 136.345 9.582ZM147.876 21.352C146.879 21.352 145.992 21.1027 145.214 20.604C144.437 20.0907 143.828 19.3867 143.388 18.492C142.963 17.5973 142.75 16.5927 142.75 15.478C142.75 14.3487 142.963 13.3367 143.388 12.442C143.828 11.5473 144.437 10.8507 145.214 10.352C146.006 9.83867 146.916 9.582 147.942 9.582C148.676 9.582 149.314 9.736 149.856 10.044C150.414 10.3373 150.861 10.7187 151.198 11.188V5.6H153.53V21H151.286V19.702C150.524 20.802 149.387 21.352 147.876 21.352ZM148.184 19.372C149.182 19.372 149.952 19.0347 150.494 18.36C151.037 17.6853 151.308 16.7247 151.308 15.478C151.308 14.2313 151.037 13.2707 150.494 12.596C149.952 11.9067 149.182 11.562 148.184 11.562C147.202 11.562 146.446 11.914 145.918 12.618C145.39 13.3073 145.126 14.2607 145.126 15.478C145.126 16.6807 145.39 17.634 145.918 18.338C146.446 19.0273 147.202 19.372 148.184 19.372ZM166.606 16.028H158.532C158.591 17.172 158.891 18.03 159.434 18.602C159.977 19.1593 160.688 19.438 161.568 19.438C162.301 19.438 162.881 19.2767 163.306 18.954C163.731 18.6313 164.032 18.2133 164.208 17.7H166.518C166.225 18.8587 165.631 19.7607 164.736 20.406C163.841 21.0367 162.771 21.352 161.524 21.352C160.424 21.352 159.471 21.11 158.664 20.626C157.857 20.1273 157.241 19.438 156.816 18.558C156.391 17.6633 156.178 16.6367 156.178 15.478C156.178 14.378 156.376 13.388 156.772 12.508C157.183 11.6133 157.784 10.902 158.576 10.374C159.383 9.846 160.351 9.582 161.48 9.582C163.152 9.582 164.421 10.1247 165.286 11.21C166.166 12.2953 166.606 13.7253 166.606 15.5V16.028ZM164.164 14.29C164.105 13.3953 163.856 12.6987 163.416 12.2C162.976 11.6867 162.331 11.43 161.48 11.43C160.629 11.43 159.962 11.6793 159.478 12.178C158.994 12.662 158.693 13.366 158.576 14.29H164.164ZM169.173 21V9.934H171.417V11.782C171.696 11.0047 172.092 10.4473 172.605 10.11C173.118 9.758 173.778 9.582 174.585 9.582C174.849 9.582 175.12 9.604 175.399 9.648V11.892C175.047 11.848 174.746 11.826 174.497 11.826C173.558 11.826 172.825 12.1413 172.297 12.772C171.769 13.4027 171.505 14.3487 171.505 15.61V21H169.173ZM187.551 21H184.691L181.061 5.6H183.569L186.231 18.36L189.399 5.6H191.599L194.745 18.294L197.451 5.6H199.805L196.219 21H193.425L190.477 9.032L187.551 21ZM210.262 16.028H202.188C202.247 17.172 202.547 18.03 203.09 18.602C203.633 19.1593 204.344 19.438 205.224 19.438C205.957 19.438 206.537 19.2767 206.962 18.954C207.387 18.6313 207.688 18.2133 207.864 17.7H210.174C209.881 18.8587 209.287 19.7607 208.392 20.406C207.497 21.0367 206.427 21.352 205.18 21.352C204.08 21.352 203.127 21.11 202.32 20.626C201.513 20.1273 200.897 19.438 200.472 18.558C200.047 17.6633 199.834 16.6367 199.834 15.478C199.834 14.378 200.032 13.388 200.428 12.508C200.839 11.6133 201.44 10.902 202.232 10.374C203.039 9.846 204.007 9.582 205.136 9.582C206.808 9.582 208.077 10.1247 208.942 11.21C209.822 12.2953 210.262 13.7253 210.262 15.5V16.028ZM207.82 14.29C207.761 13.3953 207.512 12.6987 207.072 12.2C206.632 11.6867 205.987 11.43 205.136 11.43C204.285 11.43 203.618 11.6793 203.134 12.178C202.65 12.662 202.349 13.366 202.232 14.29H207.82ZM215.733 21.264C213.797 21.264 212.829 20.2813 212.829 18.316V5.6H215.161V18.228C215.161 18.9467 215.506 19.306 216.195 19.306C216.386 19.306 216.613 19.2913 216.877 19.262V21.11C216.569 21.2127 216.188 21.264 215.733 21.264ZM223.047 21.22C221.918 21.22 221.038 20.9267 220.407 20.34C219.791 19.7533 219.483 18.932 219.483 17.876V11.694H217.767V9.934H219.571V6.92H221.815V9.934H224.433V11.694H221.815V17.612C221.815 18.1693 221.94 18.5727 222.189 18.822C222.453 19.0713 222.864 19.196 223.421 19.196C223.773 19.196 224.213 19.1667 224.741 19.108V21C224.257 21.1467 223.692 21.22 223.047 21.22ZM236.43 16.028H228.356C228.415 17.172 228.715 18.03 229.258 18.602C229.801 19.1593 230.512 19.438 231.392 19.438C232.125 19.438 232.705 19.2767 233.13 18.954C233.555 18.6313 233.856 18.2133 234.032 17.7H236.342C236.049 18.8587 235.455 19.7607 234.56 20.406C233.665 21.0367 232.595 21.352 231.348 21.352C230.248 21.352 229.295 21.11 228.488 20.626C227.681 20.1273 227.065 19.438 226.64 18.558C226.215 17.6633 226.002 16.6367 226.002 15.478C226.002 14.378 226.2 13.388 226.596 12.508C227.007 11.6133 227.608 10.902 228.4 10.374C229.207 9.846 230.175 9.582 231.304 9.582C232.976 9.582 234.245 10.1247 235.11 11.21C235.99 12.2953 236.43 13.7253 236.43 15.5V16.028ZM233.988 14.29C233.929 13.3953 233.68 12.6987 233.24 12.2C232.8 11.6867 232.155 11.43 231.304 11.43C230.453 11.43 229.786 11.6793 229.302 12.178C228.818 12.662 228.517 13.366 228.4 14.29H233.988ZM238.997 21V9.934H241.241V11.144C241.52 10.6747 241.923 10.3007 242.451 10.022C242.979 9.72867 243.603 9.582 244.321 9.582C245.509 9.582 246.485 9.97067 247.247 10.748C248.01 11.5253 248.391 12.618 248.391 14.026V21H246.059V14.246C246.059 13.366 245.869 12.706 245.487 12.266C245.106 11.8113 244.563 11.584 243.859 11.584C243.126 11.584 242.517 11.826 242.033 12.31C241.564 12.7793 241.329 13.432 241.329 14.268V21H238.997Z" fill="#272623"/>
<path d="M145.5 256C197.967 256 240.5 213.467 240.5 161C240.5 108.533 197.967 66 145.5 66C93.0329 66 50.5 108.533 50.5 161C50.5 213.467 93.0329 256 145.5 256Z" fill="#6369D2"/>
<path d="M185.16 149.033C185.106 149.868 187.305 151.783 187.244 151.952C187.198 152.09 185.321 152.787 185.436 154.036C185.344 153.185 183.367 151.829 183.352 151.669C183.329 151.454 185.405 150.083 185.16 149.025V149.033Z" fill="#F9D951"/>
<path d="M176.604 93.143C176.689 93.1506 177.845 94.3075 177.853 94.3918C177.861 94.476 176.689 95.6329 176.604 95.6405C176.52 95.6482 175.355 94.476 175.355 94.3918C175.355 94.3075 176.52 93.1276 176.604 93.143Z" fill="#FED267"/>
<path d="M195.604 86.8097C195.689 86.8174 196.845 87.9742 196.853 88.0585C196.861 88.1428 195.689 89.2996 195.604 89.3073C195.52 89.315 194.355 88.1428 194.355 88.0585C194.355 87.9742 195.52 86.7944 195.604 86.8097Z" fill="#FED267"/>
<path d="M211.889 103.095C211.974 103.103 213.131 104.26 213.138 104.344C213.146 104.428 211.974 105.585 211.889 105.593C211.805 105.601 210.641 104.428 210.641 104.344C210.641 104.26 211.805 103.08 211.889 103.095Z" fill="#FED267"/>
<path d="M155.796 82.2858C155.88 82.2935 157.037 83.4503 157.044 83.5346C157.052 83.6189 155.88 84.7757 155.796 84.7834C155.711 84.791 154.547 83.6189 154.547 83.5346C154.547 83.4503 155.711 82.2705 155.796 82.2858Z" fill="#FED267"/>
<path d="M140.413 101.286C140.497 101.293 141.654 102.45 141.662 102.535C141.669 102.619 140.497 103.776 140.413 103.783C140.329 103.791 139.164 102.619 139.164 102.535C139.164 102.45 140.329 101.27 140.413 101.286Z" fill="#FED267"/>
<path d="M117.796 100.381C117.88 100.389 119.037 101.546 119.044 101.63C119.052 101.714 117.88 102.871 117.796 102.879C117.711 102.886 116.547 101.714 116.547 101.63C116.547 101.546 117.711 100.366 117.796 100.381Z" fill="#FED267"/>
<path d="M90.6511 94.9525C90.7354 94.9602 91.8923 96.1171 91.8999 96.2013C91.9076 96.2856 90.7354 97.4425 90.6511 97.4501C90.5669 97.4578 89.4023 96.2856 89.4023 96.2013C89.4023 96.1171 90.5669 94.9372 90.6511 94.9525Z" fill="#FED267"/>
<path d="M101.507 84.0954C101.591 84.103 102.748 85.2599 102.755 85.3442C102.763 85.4284 101.591 86.5853 101.507 86.5929C101.422 86.6006 100.258 85.4284 100.258 85.3442C100.258 85.2599 101.422 84.08 101.507 84.0954Z" fill="#FED267"/>
<path d="M179.037 174.361C179.78 174.438 179.78 176.514 179.037 176.591C178.026 176.69 178.033 174.262 179.037 174.361Z" fill="#FEFEFF"/>
<path d="M193.227 184.658C193.702 184.727 194.139 186.795 193.227 186.887C192.177 186.995 192.277 184.52 193.227 184.658Z" fill="#FEFEFF"/>
<path d="M104.861 112.297C103.115 113.102 100.617 116.679 98.8779 118.143C92.7719 123.26 85.1336 127.267 76.89 126.769C75.3578 129.298 81.8622 128.156 83.2949 127.88C89.3473 126.708 103.367 119.016 105.145 112.849C105.459 113.086 106.018 113.4 106.256 113.684C106.631 114.113 106.8 114.649 107.091 115.078C99.0312 124.785 88.5812 131.481 75.3654 128.991C75.3041 128.731 75.1279 128.692 75.0896 128.432C75.013 127.995 74.8291 126.838 74.8138 126.486C74.7372 125.145 74.9364 124.149 75.0896 122.87C83.3638 122.28 89.2094 121.759 95.8211 116.465C97.0775 115.461 103.222 110.481 100.272 109.784C93.8981 117.959 85.7388 121.629 75.3654 121.475C75.5263 120.694 75.6719 120.012 75.9247 119.246C78.2537 118.51 80.805 119.116 83.3025 118.687C89.9219 117.56 93.8291 112.987 98.1961 108.39C100.832 109.279 102.824 110.389 104.877 112.289L104.861 112.297Z" fill="#FEB696"/>
<path d="M99.8514 141.793L90.3897 142.49C94.6264 140.697 98.9014 138.859 102.495 135.947C103.069 135.48 112.738 125.704 109.734 125.926C103.958 133.733 96.8098 139.985 87.0493 142.069C84.0155 141.073 81.2038 139.288 79.2578 136.782C80.1772 136.537 81.5715 136.001 82.5981 135.672C82.3453 136.254 84.2683 136.507 84.4062 136.507C89.7614 136.445 97.6985 132.362 100.686 127.88C103.759 126.248 107.313 124.049 110.148 122.034C112.171 130.194 107.689 138.782 99.8514 141.793Z" fill="#FED4B0"/>
<path d="M99.8514 141.793L90.3897 142.49C94.6264 140.697 98.9014 138.859 102.495 135.947C103.069 135.48 112.738 125.704 109.734 125.926C103.958 133.733 96.8098 139.985 87.0493 142.069C84.0155 141.073 81.2038 139.288 79.2578 136.782C80.1772 136.537 81.5715 136.001 82.5981 135.672C82.3453 136.254 84.2683 136.507 84.4062 136.507C89.7614 136.445 97.6985 132.362 100.686 127.88C103.759 126.248 107.313 124.049 110.148 122.034C112.171 130.194 107.689 138.782 99.8514 141.793Z" fill="#FEB696"/>
<path d="M96.5106 107.838C91.6303 113.599 87.2098 117.062 79.3952 117.576C78.9126 117.606 76.9896 117.913 77.0279 117.016C77.3344 116.403 77.4569 115.959 77.863 115.346C83.9844 114.994 90.0751 112.282 93.7295 107.271C94.5876 107.31 95.6525 107.631 96.5106 107.831V107.838Z" fill="#FED267"/>
<path d="M104.863 112.297C104.94 112.259 105.062 112.328 105.139 112.297C105.116 112.473 105.177 112.711 105.139 112.856C103.369 119.024 89.3414 126.708 83.289 127.888C81.864 128.164 75.3519 129.297 76.8842 126.777C85.1277 127.275 92.766 123.268 98.8721 118.15C100.611 116.687 103.109 113.109 104.856 112.305L104.863 112.297Z" fill="#FED267"/>
<path d="M75.082 122.87C75.1586 122.257 75.2582 121.973 75.3578 121.475C85.7312 121.636 93.8982 117.959 100.265 109.784C103.214 110.481 97.0699 115.461 95.8135 116.465C89.2018 121.751 83.3486 122.272 75.082 122.87Z" fill="#FED267"/>
<path d="M99.8528 141.793C95.0722 143.632 91.931 143.678 87.0508 142.069C96.8036 139.985 103.952 133.733 109.736 125.927C112.739 125.704 103.071 135.48 102.496 135.948C98.9028 138.859 94.6278 140.69 90.3911 142.49L99.8528 141.793Z" fill="#FED267"/>
<path d="M98.1815 108.397C93.8146 112.994 89.915 117.576 83.288 118.694C80.7981 119.115 78.2392 118.518 75.9102 119.253C76.2089 118.349 76.615 117.828 77.021 117.024C76.9827 117.92 78.9057 117.614 79.3884 117.583C87.2106 117.07 91.6235 113.607 96.5037 107.846C97.1856 107.999 97.5533 108.19 98.1739 108.405L98.1815 108.397Z" fill="#FED267"/>
<path d="M91.4997 107.287C89.5308 111.079 83.8538 113.722 79.8086 113.132C83.0263 109.754 86.6578 107.593 91.4997 107.287Z" fill="#FED4B0"/>
<path d="M91.4997 107.287C89.5308 111.079 83.8538 113.722 79.8086 113.132C83.0263 109.754 86.6578 107.593 91.4997 107.287Z" fill="#FEB696"/>
<path d="M93.7298 107.287C90.0754 112.289 83.9923 115.009 77.8633 115.362C78.6447 114.174 78.9282 114.059 79.8092 113.132C83.8544 113.722 89.5314 111.079 91.5004 107.287C92.2205 107.241 93.0097 107.248 93.7298 107.287Z" fill="#FED267"/>
<path d="M107.644 115.913C105.162 120.625 98.9332 125.39 94.2828 128.156C92.2066 129.397 92.4517 129.512 89.8316 130.102C85.0126 131.19 80.7606 130.692 75.9186 130.937C75.6888 130.293 75.5126 129.658 75.3594 128.991C88.5751 131.481 99.0251 124.777 107.085 115.078C107.276 115.362 107.46 115.614 107.644 115.913Z" fill="#FEB696"/>
<path d="M75.359 128.991C75.5122 129.657 75.6885 130.293 75.9183 130.937C76.332 132.094 76.9526 133.113 77.3127 134.277C70.0727 135.097 70.1417 132.546 75.0832 128.432C75.1292 128.684 75.3054 128.723 75.359 128.991Z" fill="#6369D2"/>
<path d="M109.598 119.254C108.863 118.189 108.326 117.016 107.652 115.913C107.468 115.614 107.284 115.362 107.093 115.078C106.802 114.657 106.633 114.12 106.258 113.684C113.023 112.619 114.348 114.442 109.598 119.254Z" fill="#6369D2"/>
<path d="M100.685 127.88C97.6975 132.37 89.7604 136.445 84.4052 136.507C84.2673 136.507 82.3443 136.254 82.5971 135.672C88.2358 133.871 95.4451 130.661 100.685 127.88Z" fill="#FED267"/>
<path d="M109.596 119.253C105.873 123.015 99.2383 126.516 94.2891 128.156C98.9395 125.382 105.168 120.625 107.65 115.913C108.325 117.016 108.868 118.188 109.596 119.253Z" fill="#FEB696"/>
<path d="M88.5 131C84.9988 133.092 81.3573 133.825 77.3045 134.285C76.9444 133.12 76.3239 132.101 75.9102 130.944C80.7521 130.699 91.5 129 92 130L88.5 131Z" fill="#FEB696"/>
<path d="M110.148 122.034C107.313 124.049 103.758 126.248 100.686 127.88C95.4382 130.661 88.2289 133.871 82.5979 135.672C81.5712 136.001 80.1769 136.537 79.2575 136.782C62.1346 141.356 62.5559 135.197 74.8063 126.486C74.8293 126.846 75.0132 128.003 75.0821 128.432C70.1406 132.546 70.064 135.097 77.3116 134.277C81.3644 133.818 82.5 133 87 131.5L94.289 128.156C94.289 128.156 105.873 123.015 109.596 119.253C114.346 114.45 113.021 112.626 106.256 113.684C106.011 113.4 105.459 113.086 105.145 112.849C105.183 112.703 105.122 112.473 105.145 112.289C107.351 111.416 117.71 109.501 118.506 112.427C119.38 115.653 112.469 120.387 110.156 122.027L110.148 122.034Z" fill="#FEFEFF"/>
<path d="M193.925 167.405C194.262 167.864 194.913 169.55 195.319 169.91C191.902 173.258 190.975 168.906 193.235 166.57C193.71 166.47 193.71 167.106 193.932 167.405H193.925Z" fill="#406481"/>
<path d="M177.224 131.496C175.339 134.193 169.474 142.905 159.823 149.132C161.73 142.099 167.445 142.723 160.879 145.619C153.402 148.921 153.842 145.938 164.414 144.03C164.568 145.072 162.736 146.459 162.047 147.095C157.366 151.416 150.969 157.146 145.629 160.456C144.579 161.107 139.822 162.647 139.921 163.658L141.316 165.466C140.58 164.915 139.875 164.294 139.37 163.52C141.04 161.889 153.007 150.443 153.007 149.462C153.007 149.355 151.582 147.93 151.474 147.93C150.486 147.93 139.055 160.149 137.416 161.843C133.693 157.935 132.382 158.556 134.911 153.492C136.428 150.466 139.99 145.34 142.151 142.636C142.572 142.107 143.101 141.494 143.545 140.966C149.59 133.749 158.201 125.459 164.974 118.702C168.774 123.207 172.849 127.551 177.216 131.504L177.224 131.496Z" fill="#FEFEFF"/>
<path d="M181.399 134.837C174.542 141.931 167.371 148.903 159.97 155.43C159.564 155.79 159.227 156.219 158.859 156.541C156.737 158.403 149.413 165.206 147.451 166.003C147.13 166.133 143.085 166.891 142.862 166.838C142.763 166.815 140.422 164.879 140.069 164.619L138.259 162.809C138.152 161.798 144.586 161.084 145.643 160.433C150.991 157.131 157.388 151.393 162.062 147.072C162.743 146.436 165.017 144.064 165.854 143.357C169.089 140.897 168.29 141.134 170.55 138.721C172.81 136.308 175.346 134.185 177.231 131.481C178.51 132.638 180.012 133.795 181.406 134.821L181.399 134.837Z" fill="#FEFEFF"/>
<path d="M132.15 159.093C118.546 166.317 112.41 179.693 106.812 193.372C116.641 189.734 138.6 181.279 141.668 170.284C141.858 169.606 141.914 168.381 141.998 167.647C144.59 171.279 142.191 175.054 140.112 178.183C136.777 181.116 134.501 183.095 131.752 185.254C130.327 186.374 127.794 188.1 126.249 189.042C121.09 192.162 105.006 199.611 99.4274 200.738C98.9042 200.842 98.8668 201.171 98.4575 200.58C104.127 190.129 108.529 178.372 116.083 169.063C119.99 164.254 125.556 158.882 132.157 159.093L132.15 159.093Z" fill="#FED267"/>
<path d="M132.141 159.085C132.141 159.085 134.12 160.376 134.342 160.525C130.962 162.433 128.3 164.08 125.853 167.171C124.917 168.363 117.672 181.287 118.732 181.922C126.618 178.865 138.508 175.982 140.618 166.5C140.919 166.782 141.803 167.39 141.99 167.639C141.905 168.381 141.842 169.598 141.66 170.276C138.599 181.279 116.633 189.726 106.804 193.364C112.402 179.685 118.537 166.309 132.141 159.085Z" fill="#FEB696"/>
<path d="M137.072 163.37C136.332 164.328 135.112 164.763 136.048 165.855C136.983 166.947 136.128 164.181 137.07 163.434C137.752 163.808 140.023 165.952 140.624 166.508C138.507 175.99 126.616 178.873 118.738 181.93C117.678 181.303 124.923 168.371 125.86 167.179C128.306 164.087 130.968 162.433 134.348 160.533C135.133 161.484 136.459 162.224 137.072 163.37Z" fill="#FED267"/>
<path d="M198.099 101.441L183.947 124.809C179.726 121.032 172.185 112.143 172.77 111.186C173.812 110.397 174.456 109.945 175.551 109.24C175.827 110.006 176.792 109.876 177.359 109.799C180.761 109.309 191.778 105.348 194.613 103.395C195.226 102.973 196.574 102.077 196.421 101.165C196.972 101.112 197.409 100.943 197.953 100.889L198.091 101.449L198.099 101.441Z" fill="#F9604C"/>
<path d="M188.475 127.071C187.072 126.014 184.807 125.974 183.497 124.809C183.451 124.771 184.786 123.191 184.74 123.153L198.101 101.441C197.266 110.543 193.692 119.601 188.475 127.071Z" fill="#F9604C"/>
<rect width="3.16112" height="29.2111" rx="1" transform="matrix(-0.708153 -0.706059 -0.706059 0.708153 153.883 149.66)" fill="#F9604C"/>
<path d="M178.893 129.55C180.295 130.822 181.689 130.69 183.498 132.952C182.809 133.68 181.789 134.431 181.399 134.837C180.004 133.81 178.503 132.653 177.223 131.496C172.856 127.543 168.78 123.199 164.98 118.694C165.54 118.135 166.193 117.678 166.76 117.119C170.529 121.616 174.549 125.62 178.893 129.55Z" fill="#F9604C"/>
<path d="M196.428 101.157C196.581 102.062 195.233 102.966 194.62 103.387C191.778 105.341 180.768 109.301 177.367 109.792C176.8 109.876 175.827 110.006 175.559 109.232C180.952 105.754 190.038 101.763 196.436 101.157H196.428Z" fill="#F9604C"/>
<path d="M182.791 125.651C182.783 125.727 182.768 125.865 182.791 125.926C182.056 126.294 181.309 127.846 180.781 128.428C168.566 118.476 169.924 118.476 168.566 114.857C169.241 114.221 170.154 113.63 170.828 113.047L183.495 124.809L182.791 125.651Z" fill="#F9604C"/>
<path d="M142.158 142.628C140.005 145.333 136.435 150.45 134.918 153.484C132.29 153.607 125.552 151.692 123.33 152.405C123.292 152.259 123.579 152.45 123.51 152.366C123.211 152.006 122.882 152.105 122.951 151.668C123.058 151.025 130.405 143.287 131.577 141.785L142.15 142.62L142.158 142.628Z" fill="#F9604C"/>
<path d="M143.553 140.958C143.109 141.487 142.588 142.1 142.159 142.628L131.586 141.793C132.191 141.019 133.425 139.847 133.815 139.288L143.553 140.958Z" fill="#F9604C"/>
<path d="M158.857 156.549L163.032 164.34C159.34 167.895 155.202 172.093 151.9 175.196C151.977 175.403 151.648 174.897 151.9 175.196C150.874 172.538 148.821 168.561 147.449 166.01C149.411 165.213 156.735 158.403 158.857 156.549Z" fill="#F9604C"/>
<rect x="134.965" y="133.92" width="4.16774" height="33.4081" rx="2.08387" transform="rotate(43.382 134.965 133.92)" fill="#F9604C"/>
<rect x="166.633" y="158.285" width="4.16774" height="33.4081" rx="2.08387" transform="rotate(43.382 166.633 158.285)" fill="#F9604C"/>
<path d="M164.421 162.946C164.054 163.26 163.464 163.919 163.027 164.34L158.852 156.549C159.219 156.227 159.556 155.79 159.962 155.438L164.414 162.953L164.421 162.946Z" fill="#F9604C"/>
<path d="M187.118 128.88C186.65 129.455 185.797 130.669 185.299 131.22C183.851 130.086 181.703 129.646 180.332 128.428C180.861 127.854 182.311 124.724 183.046 124.357C183.184 124.793 186.842 127.885 187.118 128.88Z" fill="#F9604C"/>
<path d="M162.062 128.715C172.214 128.033 172.926 142.643 163.733 143.747C153.106 145.018 152.317 129.374 162.062 128.715Z" fill="#FEFEFF"/>
<path d="M162.614 130.11C171.432 129.972 170.781 144.137 160.944 142.352C154.6 141.203 155.067 130.225 162.614 130.11Z" fill="#F9604C"/>
<path d="M157.326 134.561C157.786 134.3 167.47 134.53 167.899 134.837C168.098 134.974 168.098 136.009 168.037 136.085C167.631 136.622 158.414 135.534 157.043 135.947C156.821 135.725 157.257 134.591 157.319 134.553L157.326 134.561Z" fill="#F9604C"/>
<path d="M172.641 111.238C177.619 118.781 181.044 122.335 188.474 127.071L187.118 128.881C179.809 123.742 176.294 120.22 170.832 113.047L172.641 111.238Z" fill="#FEFEFF"/>
<path d="M168.57 114.857C173.547 122.4 177.879 126.407 185.308 131.143L183.498 132.952C176.19 127.814 172.222 124.292 166.76 117.119L168.57 114.857Z" fill="#FEFEFF"/>
<path d="M200.159 157.574C196.97 156.814 192.666 161.104 193.877 166.888C194.679 170.721 194.219 174.038 195.624 176.776C197.201 179.848 196.122 185.098 195.596 186.716C194.094 191.337 195.969 192.837 194.582 196.578C194.355 198.061 197.659 200.514 198.158 199.788C202.913 195.701 207.376 188.388 209.133 184.654C210.159 182.472 211.055 180.418 210.159 176.311C209.677 174.104 205.543 158.857 200.159 157.573V157.574Z" fill="#FED267"/>
<path d="M217.199 248.283L222.006 257.235L213.64 261.892L216.228 258.133C216.228 258.133 216.425 257.73 216.414 257.586C216.275 255.616 212.844 250.544 212.844 250.544L217.199 248.283Z" fill="#FED4B0"/>
<path d="M220.81 255.038C220.843 254.912 221.978 254.962 222.773 256.142C223.478 257.192 223.663 258.289 222.243 259.223C217.289 262.48 216.349 263.137 213.601 264.536C212.458 265.119 211.21 264.14 211.902 262.888C212.362 262.058 216.228 258.168 216.228 258.133C217.298 258.385 221.123 256.209 220.811 255.038H220.81Z" fill="#272623"/>
<path d="M214.822 256.787C214.822 256.787 204.358 239.734 201.761 234.671C199.347 229.965 198.062 220.511 195.42 210.451C191.614 219.07 184.569 229.028 184.199 230.178C184.174 239.657 184.378 245.01 183.838 247.982C183.838 247.982 177.678 251.001 174.454 251.476C174.294 248.729 172.524 235.615 173.057 228.158C173.593 220.663 178.449 207.911 183.293 194.033L183.626 185.937L202.701 185.584C202.701 185.584 208.811 192.859 210.047 200.348C210.937 205.739 210.781 220.003 210.815 228.382C211.78 230.097 212.681 231.87 213.513 233.641C218.111 243.433 220.631 253.218 220.631 253.218C220.941 254.309 215.254 257.288 214.822 256.787Z" fill="#F9604C"/>
<path d="M186.68 150.201L189.158 157.68C189.754 159.252 183.294 161.08 182.855 159.358L181.77 154.746L186.68 150.202V150.201Z" fill="#F9604C"/>
<path d="M178.236 150.657C178.499 151.082 178.617 154.367 180.334 155.133C180.935 155.401 182.32 155.305 184.232 156.825C186.475 158.608 187.466 148.11 187.466 148.11C187.854 148.817 187.459 148.107 187.466 148.11C185.24 144.052 179.791 142.931 179.791 142.931C178.516 144.012 179.05 146.369 178.814 147.327C178.567 148.331 177.969 149.006 177.817 149.367C177.58 149.942 178.176 150.56 178.236 150.655V150.657Z" fill="#FED4B0"/>
<path d="M185.665 157.998C182.5 158.113 184.524 162.4 182.727 166.815C180.353 172.641 183.496 189.531 183.496 189.531C189.426 191.074 197.855 189.531 203.239 186.45L200.928 160.629C198.866 155.835 185.747 157.996 185.666 157.998H185.665Z" fill="#FED267"/>
<path d="M155.481 198.46C155.394 198.276 155.49 198.004 156.071 197.804C155.761 197.82 155.529 197.611 155.565 197.368C155.636 196.882 157.584 196.257 158.296 195.849C158.89 195.508 159.661 195.059 159.699 194.741C159.463 194.082 156.685 194.662 156.725 193.835C156.738 193.585 157.431 193.387 158.639 193.217C159.654 193.074 160.364 192.769 161.058 192.609C161.854 192.426 162.701 192.595 163.217 192.767C164.059 193.051 164.993 194.275 164.767 195.406C164.565 196.411 161.875 198.333 160.225 199.047C159.85 199.209 157.019 200.282 156.704 199.678C156.633 199.544 156.683 199.377 156.935 199.214C156.302 199.36 156.039 199.32 155.924 199.074C155.865 198.951 155.944 198.801 156.091 198.675C155.847 198.722 155.593 198.692 155.482 198.457L155.481 198.46Z" fill="#FED4B0"/>
<path d="M186.323 157.67C182.866 157.726 176.797 159.496 174.915 165.436C173.448 170.062 171.704 173.551 171.738 176.797C171.777 180.439 169.468 181.859 168.209 183.137C164.612 186.785 165.673 189.085 162.601 191.957C161.687 193.25 163.646 197.123 164.459 196.676C170.871 195.07 179.052 189.649 182.309 186.766C184.778 184.526 185.668 180.742 185.552 178.486C185.485 177.192 187.526 157.651 186.322 157.67H186.323Z" fill="#FED267"/>
<path d="M181.62 140.871C183.593 140.825 186.066 138.264 190.337 139.747C192.542 140.514 194.43 142.55 196.128 145.163C197.471 147.23 202.103 148.882 200.577 153.123C199.345 156.547 205.5 157.848 200.889 163.158C199.4 164.873 202.659 168.896 193.845 168.445C191.318 168.315 190.336 170.612 187.795 170.346C185.073 170.062 185.595 168.314 182.257 165.452C176.167 160.229 182.333 158.261 181.412 155.102C180.26 151.149 183.224 151.038 182.19 148.027C181.884 147.14 180.029 145.807 179.404 143.537C179.011 142.107 179.47 140.922 181.62 140.872V140.871Z" fill="#272623"/>
<path d="M203.344 186.603C203.344 186.603 203.337 186.603 203.333 186.604C203.258 186.611 203.192 186.555 203.185 186.48L202.637 174.77C202.63 174.695 202.685 174.629 202.761 174.621C202.837 174.614 202.903 174.67 202.91 174.746L203.457 186.455C203.464 186.527 203.414 186.59 203.344 186.603Z" fill="#272623"/>
<path d="M182.341 186.982C182.298 186.982 182.254 186.961 182.225 186.923C182.176 186.859 182.189 186.767 182.254 186.719C182.282 186.698 185.009 184.593 185.667 179.822C185.678 179.741 185.752 179.685 185.831 179.697C185.911 179.708 185.967 179.783 185.955 179.862C185.415 183.774 183.412 186.211 182.428 186.952C182.401 186.972 182.371 186.982 182.34 186.982H182.341Z" fill="#272623"/>
<path d="M195.158 211.065C195.099 211.065 195.042 211.032 195.016 210.975C194.977 210.896 195.012 210.802 195.091 210.764C195.12 210.751 197.942 209.379 198.472 207.122C198.492 207.036 198.577 206.984 198.662 207.005C198.747 207.024 198.8 207.11 198.779 207.194C198.543 208.195 197.854 209.179 196.782 210.041C195.979 210.688 195.255 211.036 195.225 211.05C195.203 211.061 195.18 211.066 195.158 211.066V211.065Z" fill="#272623"/>
<path d="M212.002 123C212.216 123.02 215.149 125.953 215.168 126.167C215.188 126.381 212.216 129.314 212.002 129.333C211.788 129.353 208.835 126.381 208.835 126.167C208.835 125.953 211.788 122.962 212.002 123Z" fill="#FED267"/>
<path d="M128.311 80.4763C128.525 80.4957 131.458 83.429 131.478 83.6427C131.497 83.8564 128.525 86.7897 128.311 86.8091C128.097 86.8286 125.145 83.8564 125.145 83.6427C125.145 83.429 128.097 80.4374 128.311 80.4763Z" fill="#FED267"/>
</svg>
