<svg width="220" height="220" viewBox="0 0 220 220" fill="none" xmlns="http://www.w3.org/2000/svg">
<g clip-path="url(#clip0_399_403)">
<path d="M110 203C162.47 203 205 160.47 205 108C205 55.53 162.47 13 110 13C57.53 13 15 55.53 15 108C15 160.47 57.53 203 110 203Z" fill="#8094A2"/>
<path d="M141.102 40.1402C141.192 40.1402 142.342 41.3002 142.352 41.3902C142.352 41.4702 141.192 42.6302 141.102 42.6402C141.022 42.6402 139.852 41.4802 139.852 41.3902C139.852 41.3002 141.012 40.1302 141.102 40.1402Z" fill="#D8DEE2"/>
<path d="M160.102 33.8101C160.182 33.8101 161.342 34.9701 161.352 35.0601C161.352 35.1401 160.192 36.3001 160.102 36.3101C160.022 36.3101 158.852 35.1501 158.852 35.0601C158.852 34.9701 160.022 33.8001 160.102 33.8101Z" fill="#D8DEE2"/>
<path d="M176.391 50.1002C176.471 50.1002 177.631 51.2602 177.641 51.3502C177.641 51.4302 176.481 52.5902 176.391 52.6002C176.311 52.6002 175.141 51.4402 175.141 51.3502C175.141 51.2602 176.301 50.0902 176.391 50.1002Z" fill="#D8DEE2"/>
<path d="M120.301 29.2901C120.381 29.2901 121.541 30.4501 121.551 30.5401C121.551 30.6201 120.391 31.7801 120.301 31.7901C120.221 31.7901 119.051 30.6301 119.051 30.5401C119.051 30.4501 120.211 29.2801 120.301 29.2901Z" fill="#D8DEE2"/>
<path d="M104.91 48.2901C104.99 48.2901 106.15 49.4501 106.16 49.5401C106.16 49.6201 105 50.7801 104.91 50.7901C104.83 50.7901 103.66 49.6301 103.66 49.5401C103.66 49.4501 104.82 48.2801 104.91 48.2901Z" fill="#D8DEE2"/>
<path d="M82.3008 47.3799C82.3808 47.3799 83.5408 48.5399 83.5508 48.6299C83.5508 48.7099 82.3908 49.8699 82.3008 49.8799C82.2208 49.8799 81.0508 48.7199 81.0508 48.6299C81.0508 48.5399 82.2108 47.3699 82.3008 47.3799Z" fill="#D8DEE2"/>
<path d="M55.1484 41.9498C55.2284 41.9498 56.3884 43.1098 56.3984 43.1998C56.3984 43.2798 55.2384 44.4398 55.1484 44.4498C55.0684 44.4498 53.8984 43.2898 53.8984 43.1998C53.8984 43.1098 55.0584 41.9398 55.1484 41.9498Z" fill="#D8DEE2"/>
<path d="M66.0117 31.1002C66.0917 31.1002 67.2517 32.2602 67.2617 32.3502C67.2617 32.4302 66.1017 33.5902 66.0117 33.6002C65.9317 33.6002 64.7617 32.4402 64.7617 32.3502C64.7617 32.2602 65.9217 31.0902 66.0117 31.1002Z" fill="#D8DEE2"/>
<path d="M39.8585 75.9902C40.0085 76.6602 40.1885 77.2902 40.4185 77.9402C40.8285 79.1002 41.4485 80.1202 41.8085 81.2802C34.5685 82.1002 34.6385 79.5502 39.5785 75.4302C39.6285 75.6802 39.7985 75.7202 39.8585 75.9902Z" fill="#8094A2"/>
<path d="M74.1 66.2501C73.36 65.1901 72.83 64.0101 72.15 62.9101C71.97 62.6101 71.78 62.3601 71.59 62.0701C71.3 61.6501 71.13 61.1101 70.75 60.6801C77.51 59.6201 78.84 61.4401 74.09 66.2501H74.1Z" fill="#8094A2"/>
<path d="M144.844 87.9178C142.688 90.9977 136.003 100.933 124.995 108.04C127.174 100.021 133.688 100.728 126.204 104.036C117.672 107.801 118.174 104.401 130.243 102.223C130.414 103.409 128.326 104.994 127.539 105.713C122.2 110.641 114.9 117.177 108.808 120.953C107.61 121.695 102.181 123.452 102.295 124.604L103.88 126.668C103.036 126.041 102.238 125.334 101.656 124.444C103.561 122.585 117.215 109.523 117.215 108.405C117.215 108.28 115.584 106.66 115.47 106.66C114.341 106.66 101.302 120.6 99.4314 122.528C95.1879 118.067 93.6936 118.775 96.5682 113.002C98.3021 109.546 102.363 103.705 104.827 100.614C105.306 100.009 105.911 99.3137 106.413 98.7091C113.303 90.473 123.136 81.0163 130.859 73.3164C135.193 78.4497 139.848 83.4119 144.821 87.9178H144.844Z" fill="#FEFEFF"/>
<path d="M149.611 91.728C141.786 99.8158 133.607 107.778 125.165 115.216C124.698 115.626 124.321 116.117 123.899 116.482C121.481 118.604 113.119 126.372 110.883 127.273C110.518 127.422 105.898 128.288 105.647 128.22C105.533 128.197 102.864 125.984 102.465 125.688L100.4 123.623C100.275 122.471 107.621 121.661 108.819 120.908C114.922 117.144 122.211 110.596 127.549 105.668C128.325 104.938 130.926 102.234 131.873 101.436C135.569 98.6295 134.656 98.9032 137.234 96.1427C139.812 93.3935 142.71 90.9638 144.854 87.8838C146.314 89.207 148.026 90.5189 149.623 91.6938V91.7166L149.611 91.728Z" fill="#FEFEFF"/>
<path d="M93.4312 119.39C77.9173 127.626 70.9132 142.889 64.5251 158.494C75.7385 154.342 100.789 144.703 104.291 132.155C104.508 131.379 104.576 129.987 104.667 129.143C107.622 133.284 104.884 137.596 102.511 141.167C98.7128 144.509 96.1119 146.768 92.9749 149.232C91.3437 150.509 88.4576 152.483 86.7009 153.555C80.8147 157.114 62.4718 165.613 56.1065 166.902C55.5133 167.016 55.4677 167.392 55 166.719C61.4679 154.798 66.4872 141.383 75.1111 130.763C79.5713 125.276 85.9138 119.151 93.4426 119.39H93.4312Z" fill="#D8DEE2"/>
<path d="M93.4178 119.39C93.4178 119.39 95.6765 120.862 95.9274 121.033C92.0718 123.212 89.0374 125.082 86.2426 128.619C85.1703 129.976 76.9115 144.726 78.1206 145.444C87.121 141.954 100.684 138.668 103.091 127.854C103.433 128.174 104.437 128.87 104.654 129.155C104.563 129.999 104.483 131.391 104.278 132.166C100.787 144.714 75.7251 154.354 64.5117 158.506C70.8998 142.901 77.8925 127.638 93.4178 119.402V119.39Z" fill="#CED6DB"/>
<path d="M99.0414 124.273C98.1973 125.368 96.8056 125.858 97.8779 127.102C98.9502 128.345 97.9691 125.197 99.0414 124.341C99.8171 124.763 102.407 127.216 103.091 127.843C100.673 138.657 87.1094 141.942 78.1204 145.433C76.9112 144.714 85.1815 129.965 86.2424 128.607C89.0372 125.082 92.0715 123.189 95.9272 121.021C96.8284 122.105 98.3342 122.949 99.03 124.261H99.0414V124.273Z" fill="#D8DEE2"/>
<path d="M168.661 53.6274L152.52 80.2863C147.706 75.9743 139.105 65.8332 139.767 64.7495C140.953 63.8483 141.694 63.335 142.938 62.5251C143.257 63.4035 144.352 63.2552 145.002 63.1639C148.881 62.605 161.452 58.0877 164.68 55.8632C165.376 55.3841 166.916 54.3575 166.745 53.3194C167.372 53.2624 167.874 53.0684 168.49 53L168.65 53.6388H168.661V53.6274Z" fill="#3C5A70"/>
<path d="M157.69 82.8639C156.093 81.6547 153.504 81.6091 152.009 80.2858C151.952 80.2402 153.481 78.4378 153.424 78.3922L168.664 53.627C167.717 64.0076 163.633 74.3426 157.679 82.8639H157.69Z" fill="#3C5A70"/>
<path d="M114.864 106.911L92.9509 128.893C92.506 129.338 92.506 130.056 92.9509 130.501L93.8862 131.437C94.3311 131.881 95.0498 131.881 95.4947 131.437L117.408 109.455C117.853 109.01 117.853 108.291 117.408 107.846L116.473 106.911C116.028 106.466 115.309 106.466 114.864 106.911Z" fill="#3C5A70"/>
<path d="M146.746 85.6931C148.343 87.1419 149.94 86.9936 151.994 89.5716C151.206 90.4043 150.043 91.2599 149.598 91.7162C148.001 90.5412 146.29 89.2294 144.83 87.9061C139.845 83.4003 135.202 78.4381 130.867 73.3048C131.506 72.666 132.247 72.1413 132.898 71.5024C137.198 76.6357 141.784 81.1987 146.735 85.6817H146.746V85.6931Z" fill="#3C5A70"/>
<path d="M166.756 53.3081C166.927 54.3348 165.399 55.3728 164.692 55.8519C161.452 58.0764 148.892 62.5937 145.014 63.1526C144.364 63.2439 143.257 63.3922 142.949 62.5138C149.098 58.5441 159.467 53.9925 166.768 53.3081H166.756Z" fill="#3C5A70"/>
<path d="M151.194 81.2443C151.194 81.3356 151.171 81.4839 151.194 81.5637C150.349 81.9858 149.505 83.7539 148.901 84.4155C134.961 73.0653 136.512 73.0653 134.961 68.9358C135.725 68.2058 136.775 67.5327 137.539 66.8711L151.992 80.2861L151.194 81.2443Z" fill="#3C5A70"/>
<path d="M104.85 100.614C102.397 103.694 98.3251 109.534 96.5912 113.002C93.591 113.139 85.9025 110.96 83.3701 111.77C83.3245 111.599 83.6553 111.827 83.5754 111.725C83.2332 111.314 82.8568 111.428 82.9366 110.926C83.0621 110.196 91.4351 101.367 92.7811 99.6558L104.839 100.614H104.85Z" fill="#3C5A70"/>
<path d="M106.436 98.7089C105.934 99.3135 105.33 100.009 104.85 100.614L92.793 99.6557C93.4888 98.7774 94.8919 97.4313 95.3368 96.7925L106.448 98.6975L106.436 98.7089Z" fill="#3C5A70"/>
<path d="M123.899 116.493L128.655 125.379C124.446 129.429 119.723 134.22 115.959 137.767C116.05 138.007 115.674 137.425 115.959 137.767C114.784 134.733 112.446 130.193 110.883 127.284C113.119 126.371 121.48 118.603 123.899 116.493Z" fill="#3C5A70"/>
<path d="M98.3688 92.3092C99.327 93.2104 99.3612 94.7161 98.46 95.6743L75.5542 119.915C74.653 120.873 73.1472 120.907 72.189 120.006C71.2308 119.105 71.1966 117.599 72.0977 116.641L95.0036 92.4004C95.9048 91.4422 97.4106 91.408 98.3688 92.3092Z" fill="#3C5A70"/>
<path d="M134.494 120.109C135.452 121.01 135.486 122.516 134.585 123.474L111.679 147.715C110.778 148.673 109.272 148.707 108.314 147.806C107.356 146.905 107.322 145.399 108.223 144.441L131.129 120.2C132.03 119.242 133.536 119.208 134.494 120.109Z" fill="#3C5A70"/>
<path d="M130.244 123.793C129.822 124.147 129.149 124.9 128.659 125.379L123.891 116.493C124.313 116.128 124.689 115.626 125.157 115.227L130.233 123.805L130.244 123.793Z" fill="#3C5A70"/>
<path d="M156.132 84.9286C155.596 85.5788 154.627 86.9705 154.056 87.5979C152.402 86.3088 149.95 85.8069 148.387 84.4152C148.991 83.765 150.645 80.1945 151.478 79.7725C151.638 80.2744 155.813 83.7992 156.121 84.9286H156.132Z" fill="#3C5A70"/>
<path d="M127.551 84.746C139.13 83.9703 139.94 100.636 129.456 101.891C117.33 103.34 116.429 85.4989 127.551 84.746Z" fill="#FEFEFF"/>
<path d="M128.175 86.3317C138.237 86.172 137.495 102.336 126.27 100.294C119.038 98.9824 119.563 86.4572 128.175 86.3317Z" fill="#3C5A70"/>
<path d="M122.156 91.4084C122.681 91.1119 133.723 91.3742 134.213 91.7278C134.442 91.8876 134.442 93.0625 134.373 93.1538C133.905 93.7698 123.399 92.5264 121.836 92.9941C121.585 92.7431 122.076 91.4427 122.156 91.4084Z" fill="#3C5A70"/>
<path d="M139.619 64.8066C145.3 73.4077 149.201 77.4687 157.677 82.8644L156.125 84.9291C147.787 79.0658 143.783 75.0504 137.543 66.8714L139.608 64.8066H139.619Z" fill="#FEFEFF"/>
<path d="M134.979 68.9355C140.66 77.5367 145.599 82.111 154.075 87.518L152.01 89.5828C143.671 83.7194 139.142 79.704 132.914 71.525L134.979 68.947V68.9355Z" fill="#FEFEFF"/>
<path d="M123.17 41.9999C123.38 42.0199 126.32 44.9499 126.34 45.1699C126.36 45.3799 123.39 48.3199 123.17 48.3399C122.96 48.3599 120 45.3899 120 45.1699C120 44.9499 122.95 41.9599 123.17 41.9999Z" fill="#D8DEE2"/>
<path d="M92.8106 27.4799C93.0206 27.4999 95.9606 30.4299 95.9806 30.6499C96.0006 30.8599 93.0306 33.7999 92.8106 33.8199C92.6006 33.8399 89.6406 30.8699 89.6406 30.6499C89.6406 30.4299 92.5906 27.4399 92.8106 27.4799Z" fill="#D8DEE2"/>
</g>
<defs>
<clipPath id="clip0_399_403">
<rect width="190" height="190" fill="white" transform="translate(15 13)"/>
</clipPath>
</defs>
</svg>
