<svg width="291" height="300" viewBox="0 0 291 300" fill="none" xmlns="http://www.w3.org/2000/svg">
<path d="M20.4444 21H18.0464V5.6H27.5724V7.69H20.4444V12.442H26.7364V14.532H20.4444V21ZM29.1486 21V9.934H31.3926V11.782C31.6713 11.0047 32.0673 10.4473 32.5806 10.11C33.094 9.758 33.754 9.582 34.5606 9.582C34.8246 9.582 35.096 9.604 35.3746 9.648V11.892C35.0226 11.848 34.722 11.826 34.4726 11.826C33.534 11.826 32.8006 12.1413 32.2726 12.772C31.7446 13.4027 31.4806 14.3487 31.4806 15.61V21H29.1486ZM46.9272 16.028H38.8532C38.9119 17.172 39.2125 18.03 39.7552 18.602C40.2979 19.1593 41.0092 19.438 41.8892 19.438C42.6225 19.438 43.2019 19.2767 43.6272 18.954C44.0525 18.6313 44.3532 18.2133 44.5292 17.7H46.8392C46.5459 18.8587 45.9519 19.7607 45.0572 20.406C44.1625 21.0367 43.0919 21.352 41.8452 21.352C40.7452 21.352 39.7919 21.11 38.9852 20.626C38.1785 20.1273 37.5625 19.438 37.1372 18.558C36.7119 17.6633 36.4992 16.6367 36.4992 15.478C36.4992 14.378 36.6972 13.388 37.0932 12.508C37.5039 11.6133 38.1052 10.902 38.8972 10.374C39.7039 9.846 40.6719 9.582 41.8012 9.582C43.4732 9.582 44.7419 10.1247 45.6072 11.21C46.4872 12.2953 46.9272 13.7253 46.9272 15.5V16.028ZM44.4852 14.29C44.4265 13.3953 44.1772 12.6987 43.7372 12.2C43.2972 11.6867 42.6519 11.43 41.8012 11.43C40.9505 11.43 40.2832 11.6793 39.7992 12.178C39.3152 12.662 39.0145 13.366 38.8972 14.29H44.4852ZM53.4103 21.352C52.2223 21.352 51.2543 20.978 50.5063 20.23C49.7583 19.482 49.3843 18.404 49.3843 16.996V9.934H51.7163V16.776C51.7163 18.492 52.4497 19.35 53.9163 19.35C54.6497 19.35 55.251 19.1153 55.7203 18.646C56.2043 18.162 56.4463 17.502 56.4463 16.666V9.934H58.7783V21H56.5343V19.812C56.2557 20.2813 55.845 20.6553 55.3023 20.934C54.7743 21.2127 54.1437 21.352 53.4103 21.352ZM62.2131 21V9.934H64.4571V11.144C64.7357 10.6747 65.1391 10.3007 65.6671 10.022C66.1951 9.72867 66.8184 9.582 67.5371 9.582C68.7251 9.582 69.7004 9.97067 70.4631 10.748C71.2257 11.5253 71.6071 12.618 71.6071 14.026V21H69.2751V14.246C69.2751 13.366 69.0844 12.706 68.7031 12.266C68.3217 11.8113 67.7791 11.584 67.0751 11.584C66.3417 11.584 65.7331 11.826 65.2491 12.31C64.7797 12.7793 64.5451 13.432 64.5451 14.268V21H62.2131ZM79.2658 21.352C78.2685 21.352 77.3812 21.1027 76.6038 20.604C75.8265 20.0907 75.2178 19.3867 74.7778 18.492C74.3525 17.5973 74.1398 16.5927 74.1398 15.478C74.1398 14.3487 74.3525 13.3367 74.7778 12.442C75.2178 11.5473 75.8265 10.8507 76.6038 10.352C77.3958 9.83867 78.3052 9.582 79.3318 9.582C80.0652 9.582 80.7032 9.736 81.2458 10.044C81.8032 10.3373 82.2505 10.7187 82.5878 11.188V5.6H84.9198V21H82.6758V19.702C81.9132 20.802 80.7765 21.352 79.2658 21.352ZM79.5738 19.372C80.5712 19.372 81.3412 19.0347 81.8838 18.36C82.4265 17.6853 82.6978 16.7247 82.6978 15.478C82.6978 14.2313 82.4265 13.2707 81.8838 12.596C81.3412 11.9067 80.5712 11.562 79.5738 11.562C78.5912 11.562 77.8358 11.914 77.3078 12.618C76.7798 13.3073 76.5158 14.2607 76.5158 15.478C76.5158 16.6807 76.7798 17.634 77.3078 18.338C77.8358 19.0273 78.5912 19.372 79.5738 19.372ZM92.1656 11.54L90.3396 14.84L88.4696 13.696L90.9776 10.594L87.3256 9.912L88.0076 7.91L91.3956 9.318L91.0216 5.6H93.2216L92.8696 9.318L96.2576 7.91L96.9396 9.912L93.3536 10.594L95.8396 13.652L93.9916 14.84L92.1656 11.54ZM98.5896 9.934H101.868V21H99.5356V11.694H98.5896V9.934ZM101.736 7.976H99.1616V5.556H101.736V7.976ZM105.289 21V9.934H107.533V11.144C107.812 10.6747 108.215 10.3007 108.743 10.022C109.271 9.72867 109.895 9.582 110.613 9.582C111.801 9.582 112.777 9.97067 113.539 10.748C114.302 11.5253 114.683 12.618 114.683 14.026V21H112.351V14.246C112.351 13.366 112.161 12.706 111.779 12.266C111.398 11.8113 110.855 11.584 110.151 11.584C109.418 11.584 108.809 11.826 108.325 12.31C107.856 12.7793 107.621 13.432 107.621 14.268V21H105.289ZM118.008 21V9.934H120.252V11.144C120.531 10.6747 120.934 10.3007 121.462 10.022C121.99 9.72867 122.613 9.582 123.332 9.582C124.52 9.582 125.495 9.97067 126.258 10.748C127.021 11.5253 127.402 12.618 127.402 14.026V21H125.07V14.246C125.07 13.366 124.879 12.706 124.498 12.266C124.117 11.8113 123.574 11.584 122.87 11.584C122.137 11.584 121.528 11.826 121.044 12.31C120.575 12.7793 120.34 13.432 120.34 14.268V21H118.008ZM140.363 16.028H132.289C132.347 17.172 132.648 18.03 133.191 18.602C133.733 19.1593 134.445 19.438 135.325 19.438C136.058 19.438 136.637 19.2767 137.063 18.954C137.488 18.6313 137.789 18.2133 137.965 17.7H140.275C139.981 18.8587 139.387 19.7607 138.493 20.406C137.598 21.0367 136.527 21.352 135.281 21.352C134.181 21.352 133.227 21.11 132.421 20.626C131.614 20.1273 130.998 19.438 130.573 18.558C130.147 17.6633 129.935 16.6367 129.935 15.478C129.935 14.378 130.133 13.388 130.529 12.508C130.939 11.6133 131.541 10.902 132.333 10.374C133.139 9.846 134.107 9.582 135.237 9.582C136.909 9.582 138.177 10.1247 139.043 11.21C139.923 12.2953 140.363 13.7253 140.363 15.5V16.028ZM137.921 14.29C137.862 13.3953 137.613 12.6987 137.173 12.2C136.733 11.6867 136.087 11.43 135.237 11.43C134.386 11.43 133.719 11.6793 133.235 12.178C132.751 12.662 132.45 13.366 132.333 14.29H137.921ZM142.93 21V9.934H145.174V11.144C145.453 10.6747 145.856 10.3007 146.384 10.022C146.912 9.72867 147.535 9.582 148.254 9.582C149.442 9.582 150.417 9.97067 151.18 10.748C151.943 11.5253 152.324 12.618 152.324 14.026V21H149.992V14.246C149.992 13.366 149.801 12.706 149.42 12.266C149.039 11.8113 148.496 11.584 147.792 11.584C147.059 11.584 146.45 11.826 145.966 12.31C145.497 12.7793 145.262 13.432 145.262 14.268V21H142.93ZM166.578 21.352C165.581 21.352 164.694 21.1027 163.916 20.604C163.139 20.0907 162.53 19.3867 162.09 18.492C161.665 17.5973 161.452 16.5927 161.452 15.478C161.452 14.3487 161.665 13.3367 162.09 12.442C162.53 11.5473 163.139 10.8507 163.916 10.352C164.708 9.83867 165.618 9.582 166.644 9.582C167.378 9.582 168.016 9.736 168.558 10.044C169.116 10.3373 169.563 10.7187 169.9 11.188V5.6H172.232V21H169.988V19.702C169.226 20.802 168.089 21.352 166.578 21.352ZM166.886 19.372C167.884 19.372 168.654 19.0347 169.196 18.36C169.739 17.6853 170.01 16.7247 170.01 15.478C170.01 14.2313 169.739 13.2707 169.196 12.596C168.654 11.9067 167.884 11.562 166.886 11.562C165.904 11.562 165.148 11.914 164.62 12.618C164.092 13.3073 163.828 14.2607 163.828 15.478C163.828 16.6807 164.092 17.634 164.62 18.338C165.148 19.0273 165.904 19.372 166.886 19.372ZM185.308 16.028H177.234C177.293 17.172 177.593 18.03 178.136 18.602C178.679 19.1593 179.39 19.438 180.27 19.438C181.003 19.438 181.583 19.2767 182.008 18.954C182.433 18.6313 182.734 18.2133 182.91 17.7H185.22C184.927 18.8587 184.333 19.7607 183.438 20.406C182.543 21.0367 181.473 21.352 180.226 21.352C179.126 21.352 178.173 21.11 177.366 20.626C176.559 20.1273 175.943 19.438 175.518 18.558C175.093 17.6633 174.88 16.6367 174.88 15.478C174.88 14.378 175.078 13.388 175.474 12.508C175.885 11.6133 176.486 10.902 177.278 10.374C178.085 9.846 179.053 9.582 180.182 9.582C181.854 9.582 183.123 10.1247 183.988 11.21C184.868 12.2953 185.308 13.7253 185.308 15.5V16.028ZM182.866 14.29C182.807 13.3953 182.558 12.6987 182.118 12.2C181.678 11.6867 181.033 11.43 180.182 11.43C179.331 11.43 178.664 11.6793 178.18 12.178C177.696 12.662 177.395 13.366 177.278 14.29H182.866ZM191.618 21.352C190.283 21.352 189.183 21.0587 188.318 20.472C187.467 19.8707 186.99 18.9613 186.888 17.744H189.198C189.271 18.3307 189.498 18.7633 189.88 19.042C190.276 19.3207 190.855 19.46 191.618 19.46C192.351 19.46 192.923 19.328 193.334 19.064C193.744 18.8 193.95 18.4333 193.95 17.964C193.95 17.5533 193.818 17.2453 193.554 17.04C193.304 16.8347 192.828 16.6293 192.124 16.424L190.364 15.896C189.337 15.588 188.574 15.2067 188.076 14.752C187.577 14.2827 187.328 13.63 187.328 12.794C187.328 12.1927 187.496 11.65 187.834 11.166C188.186 10.6673 188.692 10.2787 189.352 10C190.012 9.72133 190.782 9.582 191.662 9.582C192.982 9.582 194.038 9.846 194.83 10.374C195.636 10.8873 196.091 11.6793 196.194 12.75H193.862C193.642 11.87 192.908 11.43 191.662 11.43C191.016 11.43 190.518 11.5473 190.166 11.782C189.828 12.002 189.66 12.31 189.66 12.706C189.66 13.014 189.777 13.2707 190.012 13.476C190.261 13.6667 190.679 13.85 191.266 14.026L193.202 14.62C194.228 14.928 194.998 15.3167 195.512 15.786C196.04 16.2407 196.304 16.9447 196.304 17.898C196.304 18.9687 195.893 19.812 195.072 20.428C194.265 21.044 193.114 21.352 191.618 21.352ZM212.334 5.6L217.724 21H215.194L213.874 16.952H207.824L206.504 21H203.996L209.386 5.6H212.334ZM208.484 14.906H213.214L210.86 7.8L208.484 14.906ZM222.533 21.264C220.597 21.264 219.629 20.2813 219.629 18.316V5.6H221.961V18.228C221.961 18.9467 222.306 19.306 222.995 19.306C223.186 19.306 223.413 19.2913 223.677 19.262V21.11C223.369 21.2127 222.988 21.264 222.533 21.264ZM228.764 21.264C226.828 21.264 225.86 20.2813 225.86 18.316V5.6H228.192V18.228C228.192 18.9467 228.536 19.306 229.226 19.306C229.416 19.306 229.644 19.2913 229.908 19.262V21.11C229.6 21.2127 229.218 21.264 228.764 21.264ZM236.077 21.22C234.948 21.22 234.068 20.9267 233.437 20.34C232.821 19.7533 232.513 18.932 232.513 17.876V11.694H230.797V9.934H232.601V6.92H234.845V9.934H237.463V11.694H234.845V17.612C234.845 18.1693 234.97 18.5727 235.219 18.822C235.483 19.0713 235.894 19.196 236.451 19.196C236.803 19.196 237.243 19.1667 237.771 19.108V21C237.287 21.1467 236.723 21.22 236.077 21.22ZM244.334 9.582C245.772 9.582 246.879 9.912 247.656 10.572C248.434 11.232 248.822 12.2073 248.822 13.498V21H246.732V19.284C245.926 20.6627 244.65 21.352 242.904 21.352C242.171 21.352 241.511 21.2053 240.924 20.912C240.352 20.6187 239.905 20.2227 239.582 19.724C239.26 19.2107 239.098 18.6607 239.098 18.074C239.098 16.9447 239.45 16.1087 240.154 15.566C240.873 15.0087 241.98 14.5907 243.476 14.312L244.664 14.092C245.398 13.9453 245.889 13.784 246.138 13.608C246.388 13.432 246.512 13.146 246.512 12.75C246.512 12.3393 246.329 12.002 245.962 11.738C245.61 11.4593 245.068 11.32 244.334 11.32C242.809 11.32 241.98 11.892 241.848 13.036H239.626C239.788 11.8773 240.301 11.012 241.166 10.44C242.046 9.868 243.102 9.582 244.334 9.582ZM246.49 15.082C246.373 15.214 246.168 15.3313 245.874 15.434C245.596 15.5367 245.192 15.6393 244.664 15.742L243.52 15.962C242.142 16.226 241.452 16.864 241.452 17.876C241.452 18.3453 241.628 18.7193 241.98 18.998C242.347 19.2767 242.838 19.416 243.454 19.416C244.334 19.416 245.06 19.1593 245.632 18.646C246.204 18.1327 246.49 17.37 246.49 16.358V15.082ZM259.772 9.934H262.016V20.538C262.016 22.0487 261.539 23.2293 260.586 24.08C259.647 24.9307 258.356 25.356 256.714 25.356C255.232 25.356 254.059 25.0407 253.194 24.41C252.328 23.794 251.837 22.9287 251.72 21.814H254.008C254.11 22.342 254.382 22.7527 254.822 23.046C255.276 23.354 255.907 23.508 256.714 23.508C257.682 23.508 258.415 23.2733 258.914 22.804C259.427 22.3347 259.684 21.6527 259.684 20.758V19.086C258.965 20.142 257.872 20.67 256.406 20.67C255.408 20.67 254.528 20.428 253.766 19.944C253.018 19.4453 252.438 18.7707 252.028 17.92C251.617 17.0693 251.412 16.1307 251.412 15.104C251.412 14.092 251.617 13.168 252.028 12.332C252.438 11.4813 253.025 10.814 253.788 10.33C254.565 9.83133 255.46 9.582 256.472 9.582C257.982 9.582 259.082 10.132 259.772 11.232V9.934ZM256.78 18.69C257.777 18.69 258.525 18.3747 259.024 17.744C259.537 17.1133 259.794 16.2333 259.794 15.104C259.794 14.0187 259.537 13.1607 259.024 12.53C258.51 11.8847 257.762 11.562 256.78 11.562C255.812 11.562 255.071 11.892 254.558 12.552C254.044 13.1973 253.788 14.048 253.788 15.104C253.788 16.1893 254.037 17.062 254.536 17.722C255.049 18.3673 255.797 18.69 256.78 18.69ZM269.305 21.352C267.971 21.352 266.871 21.0587 266.005 20.472C265.155 19.8707 264.678 18.9613 264.575 17.744H266.885C266.959 18.3307 267.186 18.7633 267.567 19.042C267.963 19.3207 268.543 19.46 269.305 19.46C270.039 19.46 270.611 19.328 271.021 19.064C271.432 18.8 271.637 18.4333 271.637 17.964C271.637 17.5533 271.505 17.2453 271.241 17.04C270.992 16.8347 270.515 16.6293 269.811 16.424L268.051 15.896C267.025 15.588 266.262 15.2067 265.763 14.752C265.265 14.2827 265.015 13.63 265.015 12.794C265.015 12.1927 265.184 11.65 265.521 11.166C265.873 10.6673 266.379 10.2787 267.039 10C267.699 9.72133 268.469 9.582 269.349 9.582C270.669 9.582 271.725 9.846 272.517 10.374C273.324 10.8873 273.779 11.6793 273.881 12.75H271.549C271.329 11.87 270.596 11.43 269.349 11.43C268.704 11.43 268.205 11.5473 267.853 11.782C267.516 12.002 267.347 12.31 267.347 12.706C267.347 13.014 267.465 13.2707 267.699 13.476C267.949 13.6667 268.367 13.85 268.953 14.026L270.889 14.62C271.916 14.928 272.686 15.3167 273.199 15.786C273.727 16.2407 273.991 16.9447 273.991 17.898C273.991 18.9687 273.581 19.812 272.759 20.428C271.953 21.044 270.801 21.352 269.305 21.352Z" fill="#272623"/>
<rect x="62.5" y="170" width="17" height="32" rx="8.5" fill="#272623"/>
<rect x="213.5" y="170" width="17" height="32" rx="8.5" fill="#272623"/>
<path d="M223.649 180.485C223.538 184.375 224.403 191.733 223.227 195.26C221.718 199.772 215.32 199.173 216.807 204.66C208.759 201.665 212.479 181.5 211.696 180.418C215.66 180.625 219.684 180.418 223.649 180.485Z" fill="#272623"/>
<path d="M127.213 133.673C125.815 139.944 133.182 135.766 136.267 137.763L133.057 140.388C133.042 140.913 136.304 141.764 136.851 141.845C140.956 142.459 188.606 143.391 189.693 140.972C189.797 140.736 186.239 139.789 189.405 137.179C189.612 137.009 190.699 137.327 190.862 137.179C192.697 142.459 197.386 145.092 200.204 149.728C208.592 163.55 212.091 188.782 199.331 200.807C197.209 202.811 193.799 201.362 194.908 206.679C194.501 206.693 194.095 206.679 193.688 206.693C193.658 205.762 194.154 203.025 193.495 202.552C192.541 201.879 173.583 202.922 170.144 202.552C140.542 199.402 157.525 172.498 149.418 154.979C146.681 149.07 133.404 138.968 133.656 150.483C132.117 149.418 131.148 149.166 129.565 148.501C129.373 148.419 129.173 148.345 128.981 148.264C123.604 146.119 110.474 144.648 104.609 144.825L104.32 144.041C114.469 138.894 113.544 136.003 127.235 133.673H127.213Z" fill="#6369D2"/>
<path d="M79.3549 114.505C79.1108 124.415 79.0221 134.687 80.1538 144.53C79.525 144.751 77.5131 148.183 77.2912 148.264C74.6062 149.262 64.8573 145.809 70.2865 152.93C89.6512 152.472 109.6 150.778 128.676 154.683C130.895 153.278 127.079 152.701 127.219 152.058C127.264 151.851 130.267 150.778 129.557 148.493C131.139 149.159 132.101 149.418 133.647 150.475C143.84 157.501 140.127 169.688 140.652 180.389L138.314 180.367C119.608 180.226 100.887 180.662 82.1805 180.47C81.9808 180.47 81.7884 180.47 81.5887 180.47C79.6212 180.448 77.6463 180.515 75.6787 180.478C71.7067 180.411 67.6829 180.611 63.7256 180.411C62.3424 180.337 60.9149 180.5 59.5391 180.381L61.2477 109.617C67.6903 106.674 71.5218 110.231 76.6847 113.263C77.5131 113.751 78.3786 114.387 79.3697 114.498L79.3549 114.505Z" fill="#F9604C"/>
<path d="M221.166 204.172C222.638 185.772 224.835 154.979 211.728 140.543C211.58 140.381 211.417 140.225 211.262 140.063C212.209 140.085 212.386 138.968 212.46 138.939C213.806 138.332 219.221 139.937 220.049 138.066C221.343 135.152 219.679 115.474 218.88 110.918C227.483 106.023 236.566 108.973 238.733 119.09V178.836C237.89 180.766 231.655 181.439 229.428 181.439C229.214 181.439 229.006 181.542 228.807 181.528L220.502 181.5C218.431 188.415 224.198 196.917 213.502 196L221.166 204.179V204.172Z" fill="#F9604C"/>
<path d="M211.729 140.536C224.836 154.971 222.639 185.772 221.167 204.164L220.923 204.305C212.343 205.806 203.577 206.398 194.894 206.679C193.784 201.354 197.194 202.804 199.317 200.807C212.084 188.782 208.585 163.55 200.19 149.728C197.372 145.091 192.682 142.459 190.848 137.179C192.542 135.611 193.081 136.35 192.601 132.512C200.671 133.318 205.36 133.851 211.255 140.063C211.411 140.225 211.573 140.381 211.721 140.543L211.729 140.536Z" fill="#6369D2"/>
<path d="M159.908 68.2924C160.936 70.8363 157.023 75.7097 154.945 76.464C141.231 81.4706 117.776 71.8494 101.229 81.1304C78.3366 93.9759 86.2067 123.12 84.1948 144.692C83.174 144.788 80.5704 144.382 80.1562 144.529C79.0245 134.679 79.1206 124.407 79.3573 114.505C79.7937 96.5938 77.2493 82.5947 96.2663 72.2636C107.679 66.0664 145.418 67.9744 159.908 68.2924Z" fill="#FEB696"/>
<path d="M193.672 206.694C185.313 206.938 157.206 207.47 150.822 204.564C139.846 199.572 141.118 190.062 140.637 180.396C140.105 169.703 143.825 157.515 133.632 150.483C133.381 138.968 146.665 149.07 149.395 154.979C157.509 172.506 140.526 199.402 170.121 202.552C173.56 202.922 192.525 201.879 193.472 202.552C194.138 203.026 193.635 205.762 193.664 206.694H193.672Z" fill="#6369D2"/>
<path d="M61.2339 109.624L59.5253 180.389C57.8536 180.248 56.0266 180.744 54.4437 179.967C53.8594 179.494 53.4821 176.247 53.2972 175.123C52.0176 167.403 51.9362 130.501 53.0605 122.588C53.9777 116.154 54.7692 112.582 61.2339 109.631V109.624Z" fill="#F9604C"/>
<path d="M212.451 138.924L212.414 137.755C212.488 130.212 212.865 122.662 212.91 115.119C212.91 114.919 212.924 114.719 212.924 114.52C213.871 114.106 214.892 113.906 215.787 113.388C216.993 112.693 218.006 111.391 218.879 110.896C219.678 115.444 221.342 135.123 220.048 138.044C219.219 139.915 213.805 138.317 212.458 138.916L212.451 138.924Z" fill="#F9604C"/>
<path d="M174.647 132.549C180.379 132.682 187.066 131.95 192.606 132.505C193.087 136.343 192.554 135.604 190.853 137.171C190.69 137.319 189.603 137.001 189.396 137.171C186.237 139.782 189.795 140.736 189.684 140.965C188.604 143.383 140.955 142.451 136.842 141.838C136.295 141.756 133.033 140.906 133.047 140.381L136.258 137.756C133.181 135.759 125.813 139.944 127.204 133.666C135.947 132.18 145.407 132.779 154.239 132.535C160.978 132.342 167.908 132.394 174.647 132.542V132.549Z" fill="#6369D2"/>
<path d="M104.297 144.041L104.585 144.825C110.458 144.648 123.58 146.119 128.957 148.264C129.15 148.345 129.349 148.419 129.542 148.501C130.252 150.778 127.249 151.851 127.204 152.065C127.064 152.708 130.881 153.293 128.662 154.69C109.593 150.786 89.6364 152.479 70.2717 152.938C64.8499 145.816 74.5914 149.27 77.2765 148.271C77.4984 148.19 79.5103 144.751 80.139 144.537C80.5532 144.389 83.1569 144.796 84.1776 144.699C89.0964 144.241 97.7506 145.846 101.9 144.862L102.448 144.899L102.958 144.884L103.32 144.537C103.661 144.404 103.956 144.204 104.282 144.041H104.297Z" fill="#F9604C"/>
<path d="M177.523 126.67C177.634 126.485 147.5 127.874 163 121C166.891 114.862 163.692 125.94 161 121C152.679 118.604 169.463 119.661 159.5 118.5C173.049 131.186 175.049 128.39 159.5 118.5C159.5 118.5 160.819 110.064 161.484 121.718C161.936 129.587 156.697 120.599 163.383 121.997C164.027 123.225 163.834 122.28 164.5 123.5C164.959 124.336 166.852 131.506 167 132.549C158.168 132.793 135.954 132.179 127.211 133.666C113.519 135.995 114.444 138.887 104.296 144.034C103.978 144.197 103.674 144.389 103.334 144.529L102.972 144.877L102.461 144.892L101.914 144.855C97.7644 145.838 89.1102 144.226 84.1914 144.692C86.2033 123.128 78.3332 93.9831 101.226 81.1303C117.773 71.8419 141.228 81.4705 154.941 76.4639C157.02 75.7022 160.933 70.8362 159.904 68.2922C199.691 69.1649 212.991 69.6973 212.917 114.527C212.917 114.727 212.902 114.926 212.902 115.126C212.865 122.669 212.48 130.22 212.406 137.763L212.443 138.931C212.369 138.968 212.185 140.077 211.245 140.055C205.35 133.851 200.66 133.318 192.591 132.505C187.05 131.95 172.732 132.675 167 132.549L171.5 126C171.833 124.935 176.628 128.179 177.161 127.254" fill="#FEB696"/>
<path d="M182.195 101.36C182.235 102.39 182.165 103.77 182.195 105.03C182.275 108.89 182.685 115.09 182.195 118.67C182.165 118.86 181.225 122.16 181.145 122.34C179.495 126.01 174 130.5 170.655 131.78C165 132.5 164.365 133.07 159.115 131.26C145.115 126.42 149.225 106.11 148.625 94.79L181.415 94C182.735 94.59 182.145 99.97 182.205 101.35L182.195 101.36Z" fill="white"/>
<path d="M181.27 122.05C181.35 121.87 182.29 118.57 182.32 118.38C192.27 117.95 193.17 104.55 182.32 104.74C182.29 103.47 182.36 102.09 182.32 101.07C198.39 101.33 196.67 122.19 181.27 122.06V122.05Z" fill="white"/>
<path d="M182.32 118.38C182.81 114.8 182.4 108.6 182.32 104.74C193.17 104.55 192.27 117.95 182.32 118.38Z" fill="#FEB696"/>
</svg>
