<svg width="220" height="220" viewBox="0 0 220 220" fill="none" xmlns="http://www.w3.org/2000/svg">
<rect x="27.2305" y="135.232" width="17" height="32" rx="8.5" fill="#272623"/>
<rect x="178.23" y="135.232" width="17" height="32" rx="8.5" fill="#272623"/>
<path d="M188.379 145.717C188.268 149.607 189.134 156.965 187.958 160.493C186.449 165.004 180.051 164.405 181.537 169.892C173.49 166.897 177.209 146.732 176.426 145.651C180.391 145.858 184.415 145.651 188.379 145.717Z" fill="#272623"/>
<path d="M91.9437 98.9058C90.5457 105.177 97.9128 100.999 100.997 102.995L97.7871 105.621C97.7723 106.146 101.034 106.996 101.582 107.077C105.687 107.691 153.337 108.623 154.424 106.205C154.527 105.968 150.97 105.022 154.135 102.411C154.343 102.241 155.43 102.559 155.593 102.411C157.427 107.691 162.117 110.324 164.935 114.961C173.323 128.782 176.821 154.015 164.062 166.039C161.939 168.043 158.529 166.594 159.639 171.911C159.232 171.926 158.825 171.911 158.418 171.926C158.389 170.994 158.884 168.258 158.226 167.785C157.272 167.112 138.314 168.154 134.874 167.785C105.273 164.634 122.256 137.731 114.149 120.211C111.412 114.303 98.1347 104.201 98.3862 115.715C96.8477 114.65 95.8787 114.399 94.2958 113.733C94.1035 113.652 93.9038 113.578 93.7115 113.496C88.3341 111.352 75.2049 109.88 69.3393 110.058L69.0508 109.274C79.1991 104.127 78.2745 101.235 91.9659 98.9058H91.9437Z" fill="#6369D2"/>
<path d="M44.0854 79.7375C43.8413 89.647 43.7525 99.919 44.8842 109.762C44.2555 109.984 42.2436 113.415 42.0217 113.497C39.3367 114.495 29.5878 111.041 35.017 118.163C54.3817 117.704 74.3307 116.011 93.4068 119.916C95.6259 118.51 91.8091 117.934 91.9497 117.29C91.9941 117.083 94.9971 116.011 94.287 113.726C95.87 114.391 96.8315 114.65 98.3775 115.708C108.57 122.733 104.857 134.92 105.382 145.621L103.045 145.599C84.3384 145.459 65.6173 145.895 46.9109 145.703C46.7112 145.703 46.5189 145.703 46.3192 145.703C44.3517 145.68 42.3767 145.747 40.4092 145.71C36.4372 145.643 32.4133 145.843 28.4561 145.643C27.0729 145.569 25.6453 145.732 24.2695 145.614L25.9782 74.8492C32.4207 71.906 36.2522 75.463 41.4152 78.4951C42.2436 78.9832 43.109 79.6191 44.1002 79.7301L44.0854 79.7375Z" fill="#F9604C"/>
<path d="M185.896 169.404C187.368 151.005 189.565 120.211 176.458 105.776C176.31 105.613 176.148 105.458 175.992 105.295C176.939 105.317 177.116 104.201 177.19 104.171C178.537 103.565 183.951 105.169 184.78 103.298C186.074 100.385 184.41 80.7061 183.611 76.1506C192.213 71.255 201.296 74.2057 203.464 84.3223V144.068C202.62 145.998 196.385 146.671 194.159 146.671C193.944 146.671 193.737 146.775 193.537 146.76L185.232 146.732C183.161 153.647 188.928 162.149 178.232 161.232L185.896 169.411V169.404Z" fill="#F9604C"/>
<path d="M176.459 105.768C189.566 120.204 187.369 151.005 185.897 169.397L185.653 169.537C177.073 171.038 168.308 171.63 159.624 171.911C158.515 166.587 161.925 168.036 164.047 166.039C176.814 154.015 173.315 128.782 164.92 114.961C162.102 110.324 157.413 107.691 155.578 102.411C157.272 100.843 157.812 101.583 157.331 97.7446C165.401 98.5507 170.091 99.0832 175.986 105.295C176.141 105.458 176.304 105.613 176.452 105.776L176.459 105.768Z" fill="#6369D2"/>
<path d="M124.638 33.5248C125.666 36.0687 121.754 40.9422 119.675 41.6965C105.962 46.703 82.5065 37.0819 65.96 46.3628C43.0671 59.2083 50.9372 88.3528 48.9253 109.925C47.9045 110.021 45.3009 109.614 44.8867 109.762C43.7549 99.9115 43.8511 89.6395 44.0878 79.7374C44.5242 61.8262 41.9797 47.8271 60.9967 37.496C72.4099 31.2988 110.148 33.2068 124.638 33.5248Z" fill="#FEB696"/>
<path d="M158.402 171.926C150.044 172.17 121.936 172.702 115.553 169.796C104.576 164.804 105.848 155.294 105.368 145.629C104.835 134.935 108.556 122.748 98.3629 115.715C98.1114 104.201 111.396 114.303 114.125 120.211C122.24 137.738 105.257 164.634 134.851 167.785C138.29 168.154 157.256 167.112 158.203 167.785C158.868 168.258 158.365 170.994 158.395 171.926H158.402Z" fill="#6369D2"/>
<path d="M25.9644 74.8564L24.2557 145.621C22.5841 145.481 20.7571 145.976 19.1742 145.2C18.5898 144.726 18.2126 141.48 18.0277 140.356C16.748 132.635 16.6667 95.7331 17.791 87.8202C18.7082 81.3864 19.4996 77.8145 25.9644 74.8638V74.8564Z" fill="#F9604C"/>
<path d="M177.182 104.156L177.145 102.988C177.218 95.4447 177.596 87.8942 177.64 80.3511C177.64 80.1514 177.655 79.9517 177.655 79.7521C178.602 79.3379 179.622 79.1383 180.517 78.6206C181.723 77.9255 182.736 76.6239 183.609 76.1284C184.408 80.6765 186.072 100.355 184.778 103.276C183.95 105.147 178.535 103.55 177.189 104.149L177.182 104.156Z" fill="#F9604C"/>
<path d="M139.377 97.7817C145.11 97.9148 151.796 97.1827 157.336 97.7374C157.817 101.575 157.285 100.836 155.583 102.404C155.421 102.552 154.333 102.234 154.126 102.404C150.968 105.014 154.526 105.968 154.415 106.197C153.335 108.616 105.685 107.684 101.572 107.07C101.025 106.989 97.7631 106.138 97.7779 105.613L100.988 102.988C97.9111 100.991 90.5439 105.177 91.9345 98.8984C100.677 97.412 110.138 98.011 118.97 97.7669C125.708 97.5747 132.639 97.6264 139.377 97.7743V97.7817Z" fill="#6369D2"/>
<path d="M69.0272 109.274L69.3157 110.058C75.1887 109.88 88.3105 111.352 93.6879 113.496C93.8802 113.578 94.0799 113.652 94.2723 113.733C94.9824 116.011 91.9793 117.083 91.9349 117.297C91.7944 117.941 95.6111 118.525 93.3921 119.923C74.3233 116.018 54.3669 117.712 35.0022 118.17C29.5804 111.049 39.3219 114.502 42.0069 113.504C42.2288 113.422 44.2407 109.984 44.8695 109.769C45.2837 109.621 47.8873 110.028 48.9081 109.932C53.8269 109.473 62.4811 111.078 66.6307 110.095L67.178 110.132L67.6884 110.117L68.0508 109.769C68.3911 109.636 68.6869 109.436 69.0124 109.274H69.0272Z" fill="#F9604C"/>
<path d="M142.254 91.9023C142.365 91.7174 112.23 93.1059 127.73 86.2322C131.621 80.0942 128.423 91.1722 125.73 86.2322C117.409 83.8361 134.194 84.8932 124.23 83.7322C139.779 93.6226 137.779 96.4182 124.23 83.7322C124.23 83.7322 125.549 75.296 126.215 86.9508C126.666 94.8193 121.427 85.8319 128.114 87.2296C128.757 88.4572 128.565 87.5122 129.23 88.7324C129.689 89.5681 131.583 96.7388 131.73 97.7815C122.899 98.0255 100.684 97.4117 91.9413 98.8982C78.2499 101.228 79.1745 104.119 69.0262 109.266C68.7082 109.429 68.4049 109.621 68.0646 109.762L67.7022 110.109L67.1918 110.124L66.6445 110.087C62.4949 111.071 53.8407 109.459 48.9219 109.924C50.9338 88.36 43.0637 59.2156 65.9566 46.3627C82.5031 37.0744 105.958 46.7029 119.672 41.6963C121.75 40.9346 125.663 36.0686 124.635 33.5247C164.422 34.3973 177.721 34.9297 177.647 79.7594C177.647 79.9591 177.633 80.1588 177.633 80.3584C177.596 87.9015 177.211 95.452 177.137 102.995L177.174 104.164C177.1 104.201 176.915 105.31 175.976 105.288C170.08 99.0831 165.391 98.5506 157.321 97.7371C151.781 97.1825 137.463 97.9072 131.73 97.7815L136.23 91.2324C136.563 90.1675 141.359 93.4109 141.891 92.4865" fill="#FEB696"/>
<path d="M146.925 66.5924C146.965 67.6224 146.895 69.0024 146.925 70.2624C147.005 74.1224 147.415 80.3224 146.925 83.9024C146.895 84.0924 145.955 87.3924 145.875 87.5724C144.225 91.2424 138.73 95.7324 135.385 97.0124C129.73 97.7324 129.095 98.3024 123.845 96.4924C109.845 91.6524 113.955 71.3424 113.355 60.0224L146.145 59.2324C147.465 59.8224 146.875 65.2024 146.935 66.5824L146.925 66.5924Z" fill="white"/>
<path d="M146 87.2825C146.08 87.1025 147.02 83.8025 147.05 83.6125C157 83.1825 157.9 69.7825 147.05 69.9725C147.02 68.7025 147.09 67.3225 147.05 66.3025C163.12 66.5625 161.4 87.4225 146 87.2925V87.2825Z" fill="white"/>
<path d="M147.051 83.6125C147.541 80.0325 147.131 73.8325 147.051 69.9725C157.901 69.7825 157.001 83.1825 147.051 83.6125Z" fill="#FEB696"/>
</svg>
