<svg width="220" height="220" viewBox="0 0 220 220" fill="none" xmlns="http://www.w3.org/2000/svg">
<g clip-path="url(#clip0_476_442)">
<mask id="mask0_476_442" style="mask-type:luminance" maskUnits="userSpaceOnUse" x="50" y="50" width="120" height="120">
<path d="M170 50H50V170H170V50Z" fill="white"/>
</mask>
<g mask="url(#mask0_476_442)">
<path d="M110 164.94C79.4997 164.94 54.6797 140.21 54.6797 109.8C54.6797 79.3899 79.4997 54.6699 110 54.6699C140.5 54.6699 165.32 79.3999 165.32 109.81C165.32 140.22 140.51 164.95 110 164.95V164.94Z" fill="#CAD2D8"/>
<path d="M110 59.33C137.96 59.33 160.63 81.92 160.63 109.8C160.63 137.68 137.97 160.26 110 160.26C82.03 160.26 59.37 137.68 59.37 109.8C59.37 81.92 82.04 59.33 110 59.33ZM110 50C76.92 50 50 76.82 50 109.8C50 142.78 76.92 169.6 110 169.6C143.08 169.6 170 142.78 170 109.8C170 76.82 143.08 50 110 50Z" fill="#8295A3"/>
<path d="M165.959 123.27C164.779 120.76 163.599 120.6 161.669 122.7C160.819 122.89 160.329 124.05 159.809 124.7C155.589 129.94 151.049 135.16 144.989 138.48C143.209 139.46 141.679 139.62 140.089 140.33C138.859 140.88 137.119 141.32 135.679 141.51C135.049 141.6 133.259 141.8 132.749 141.65C131.649 141.3 133.719 139.78 134.059 139.51C135.269 138.59 136.629 137.48 137.829 136.64L137.979 136.35C138.039 136.35 138.099 136.35 138.129 136.33C139.189 135.65 143.999 131.83 144.449 130.99C144.889 130.15 144.449 128.75 143.519 128.4C140.699 127.35 137.389 129.17 135.069 130.64C133.209 131.23 131.529 131.75 129.579 132.09L124.629 132.73L124.369 132.92C124.289 132.85 124.209 132.78 124.129 132.79C120.129 133.13 115.479 134.11 112.969 137.41C107.639 146.95 94.8494 145.89 85.4694 144.16C85.0794 144.09 84.6294 144.01 84.2694 144.13C84.0894 144.06 83.8494 143.89 83.6794 143.84C82.5994 143.53 81.4894 143.33 80.3794 143.08C79.7694 142.92 79.1594 142.76 78.5494 142.61C76.7194 142.07 74.8494 141.33 73.0194 140.96C70.8994 139.93 68.5994 139.27 66.4094 138.4C64.7994 137.76 63.2294 137 61.6294 136.35C61.1394 136.16 60.4994 135.98 59.9994 135.78C59.7194 135.63 59.3794 135.47 59.0694 135.32C58.6194 135.08 55.2794 133.31 55.1094 133.49C55.2294 134.38 55.7894 135.32 56.2894 136.08C56.7394 137.11 57.3594 138.12 57.9194 139.1C58.1294 139.46 58.3094 139.92 58.5094 140.25V140.4C59.6194 142.21 60.4594 143.58 61.7594 145.29C62.6594 146.46 63.3994 147.39 64.4194 148.45C64.5694 148.61 64.7394 148.75 64.8694 148.89C65.2794 149.73 66.1194 150.57 66.7894 151.26C71.1594 155.81 76.3794 159.84 81.7894 162.85C82.6094 163.31 83.5194 163.84 84.4094 164.11C86.4494 165.29 89.1794 166.37 91.4394 167.13C93.7594 167.91 96.1894 168.52 98.6194 168.85C100.299 169.37 103.769 169.68 105.569 169.71L109.189 170C113.009 169.96 116.959 169.9 120.659 169.14C121.509 169.14 122.229 168.96 123.059 168.8C130.809 167.37 138.189 164.11 144.629 159.79C145.479 159.23 146.199 158.66 146.999 158.06C147.309 157.83 147.689 157.62 148.039 157.34C152.049 154.2 155.629 150.66 158.669 146.6C162.809 141.09 169.129 130.03 165.949 123.28L165.959 123.27ZM111.699 155.79L112.499 155.66V155.69C112.239 155.73 111.959 155.75 111.699 155.8V155.79ZM118.059 155.54H118.039H118.079H118.059ZM132.029 139.07C131.569 139.13 131.179 139.16 130.869 139.15C131.229 139.15 131.609 139.11 131.909 139.08C131.949 139.08 131.989 139.08 132.029 139.08V139.07ZM128.979 154.94V154.92H129.179C129.119 154.92 129.039 154.92 128.969 154.94H128.979Z" fill="#3C5A70"/>
<path d="M113.199 77.3504C113.199 75.7004 111.849 74.3604 110.199 74.3604C108.549 74.3604 107.199 75.7004 107.199 77.3504V107.05C107.199 108.7 108.549 110.04 110.199 110.04C111.849 110.04 113.199 108.7 113.199 107.05V77.3504Z" fill="#3C5A70"/>
<path d="M91.7095 124.04C90.5395 125.2 90.5395 127.09 91.7095 128.27C92.8795 129.43 94.7795 129.43 95.9495 128.27L110.2 114.06C111.37 112.9 111.37 111 110.2 109.83C109.03 108.67 107.13 108.67 105.96 109.83L91.7095 124.05V124.04Z" fill="#3C5A70"/>
<path d="M109.858 115.45C112.818 115.45 115.228 113.05 115.228 110.1C115.228 107.15 112.818 104.75 109.858 104.75C106.898 104.75 104.488 107.15 104.488 110.1C104.488 113.05 106.898 115.45 109.858 115.45Z" fill="#3C5A70"/>
<path d="M109.848 112.64C111.208 112.64 112.308 111.54 112.308 110.2C112.308 108.86 111.208 107.76 109.848 107.76C108.488 107.76 107.398 108.86 107.398 110.2C107.398 111.54 108.498 112.64 109.848 112.64Z" fill="#A3B1BC"/>
</g>
</g>
<defs>
<clipPath id="clip0_476_442">
<rect width="120" height="120" fill="white" transform="translate(50 50)"/>
</clipPath>
</defs>
</svg>
