<svg width="220" height="220" viewBox="0 0 220 220" fill="none" xmlns="http://www.w3.org/2000/svg">
<g clip-path="url(#clip0_482_51)">
<mask id="mask0_482_51" style="mask-type:luminance" maskUnits="userSpaceOnUse" x="50" y="65" width="120" height="90">
<path d="M170 65H50V155H170V65Z" fill="white"/>
</mask>
<g mask="url(#mask0_482_51)">
<path d="M62.0598 131.13C65.0798 131.13 67.5298 133.59 67.5298 136.63V146.33C67.5298 149.36 65.0798 151.83 62.0598 151.83C59.0398 151.83 56.5898 149.37 56.5898 146.33V136.63C56.5898 133.6 59.0398 131.13 62.0598 131.13Z" fill="#3C5A70"/>
<path d="M159.24 131.13C162.26 131.13 164.71 133.59 164.71 136.63V146.33C164.71 149.36 162.26 151.83 159.24 151.83C156.22 151.83 153.77 149.37 153.77 146.33V136.63C153.77 133.6 156.22 131.13 159.24 131.13Z" fill="#3C5A70"/>
<path d="M67.75 94.8798C67.6 101.29 67.54 107.93 68.26 114.3C67.85 114.44 66.56 116.66 66.42 116.72C64.69 117.37 58.42 115.13 61.91 119.74C74.37 119.44 87.21 118.35 99.49 120.87C100.92 119.96 98.46 119.59 98.55 119.17C98.58 119.03 92.11 116.89 91.65 115.42C92.67 115.85 152.15 107.81 153.14 108.49C159.7 113.04 159.66 130.57 160 137.49H105.69C93.65 137.39 81.6 137.68 69.57 137.55H69.19C67.92 137.54 66.65 137.58 65.39 137.55C62.83 137.5 60.24 137.63 57.7 137.5C56.81 137.45 55.89 137.56 55 137.48L56.1 91.7098C60.24 89.8098 62.71 92.0998 66.04 94.0698C66.57 94.3898 67.13 94.7898 67.77 94.8698H67.75V94.8798Z" fill="#5F788A"/>
<path d="M159.831 137.5C160.491 125.73 136.741 133.09 152.621 112.08C152.521 111.98 152.421 111.87 152.321 111.77C152.931 111.78 153.041 111.06 153.091 111.05C153.961 110.66 157.441 111.7 157.971 110.49C158.801 108.61 157.731 95.8801 157.221 92.9301C162.751 89.7601 168.601 91.6801 169.991 98.2101V136.86C169.451 138.11 161.261 137.51 159.821 137.51C159.681 137.51 159.951 137.51 159.821 137.51" fill="#5F788A"/>
<path d="M119.272 65.3402C119.932 66.9802 117.422 70.1402 116.082 70.6202C107.262 73.8602 92.1616 67.6402 81.5116 73.6402C66.7816 81.9502 71.8416 100.8 70.5516 114.76C69.8916 114.82 68.2216 114.56 67.9516 114.66C67.2216 108.29 67.2816 101.64 67.4416 95.2402C67.7216 83.6502 66.0816 74.6002 78.3216 67.9202C85.6616 63.9002 109.942 65.1402 119.272 65.3402Z" fill="#CAD2D8"/>
<path d="M56.1003 91.7102L55.4203 137.48C54.2503 137.39 52.5403 137.76 51.4403 137.26C51.0403 136.96 50.8403 135.16 50.7103 134.44C49.8203 129.45 49.7603 105.58 50.5403 100.45C51.1803 96.2902 51.5903 93.6102 56.1003 91.7002V91.7102Z" fill="#5F788A"/>
<path d="M128.761 106.9C132.451 106.98 136.751 106.51 140.321 106.87C140.631 109.35 140.291 108.88 139.191 109.89C139.091 109.99 138.391 109.78 138.251 109.89C136.221 111.58 138.511 112.19 138.441 112.34C137.741 113.91 107.081 113.3 104.431 112.9C104.081 112.85 101.981 112.3 101.991 111.96L104.061 110.27C102.081 108.98 97.3413 111.69 98.2413 107.62C103.861 106.66 109.951 107.04 115.641 106.89C119.981 106.77 124.441 106.8 128.781 106.89H128.771L128.761 106.9Z" fill="#3C5A70"/>
<path d="M83.4798 114.34L83.6698 114.84C87.4498 114.72 95.8898 115.67 99.3498 117.07C99.4698 117.12 99.5998 117.17 99.7198 117.23C100.18 118.7 100.31 119.5 100.28 119.63C100.19 120.04 100.58 120.32 99.1498 121.23C86.8798 118.71 74.0298 119.8 61.5698 120.1C58.0798 115.49 59.9198 117 61.6498 116.35C61.7898 116.3 67.5098 114.8 67.9198 114.66C68.1798 114.56 69.8598 114.83 70.5198 114.76C73.6898 114.46 79.2498 115.5 81.9198 114.86L82.2698 114.89H82.5998L82.8298 114.65C83.0498 114.57 83.2398 114.44 83.4498 114.33H83.4698L83.4798 114.34Z" fill="#5F788A"/>
<path d="M82.6308 114.891H81.9508C79.2808 115.511 73.7108 114.471 70.5508 114.771C71.8408 100.821 66.7808 81.9706 81.5108 73.6506C92.1608 67.6406 107.251 73.8706 116.081 70.6306C117.421 70.1406 119.931 66.9906 119.271 65.3506C144.881 65.9106 153.441 66.2606 153.391 95.2606V95.6506C154 111.5 153.05 106.11 153 111L150.511 113.011C150.511 113.011 127.541 107.011 123.851 106.921L131.741 99.9106C131.951 99.2206 130.051 104.101 130.391 103.491" fill="#CAD2D8"/>
<path d="M121.51 100.08C121.92 100.88 121.8 100.26 122.23 101.05C122.53 101.59 153.09 111.04 153.09 111.04C152.59 113.67 153.76 113.35 150.26 113.85C130.44 117.07 79.5703 115.62 79.5703 115.07" fill="#CAD2D8"/>
<path d="M153.089 111.031L153.059 110.271C153.099 105.391 153.349 100.511 153.379 95.6206C153.379 95.4906 153.379 95.3606 153.379 95.2306C153.989 94.9606 154.649 94.8406 155.219 94.5006C155.999 94.0506 156.649 93.2106 157.209 92.8906C157.719 95.8306 159.83 109.11 159 111C158.47 112.21 153.939 110.621 153.079 111.011L153.089 111.031Z" fill="#5F788A"/>
</g>
</g>
<defs>
<clipPath id="clip0_482_51">
<rect width="120" height="90" fill="white" transform="translate(50 65)"/>
</clipPath>
</defs>
</svg>
