<svg width="220" height="220" viewBox="0 0 220 220" fill="none" xmlns="http://www.w3.org/2000/svg">
<g clip-path="url(#clip0_399_245)">
<mask id="mask0_399_245" style="mask-type:luminance" maskUnits="userSpaceOnUse" x="17" y="40" width="187" height="140">
<path d="M203.46 40H17V179.13H203.46V40Z" fill="white"/>
</mask>
<g mask="url(#mask0_399_245)">
<path d="M35.7305 142.23C40.4205 142.23 44.2305 146.04 44.2305 150.73V165.73C44.2305 170.42 40.4205 174.23 35.7305 174.23C31.0405 174.23 27.2305 170.42 27.2305 165.73V150.73C27.2305 146.04 31.0405 142.23 35.7305 142.23Z" fill="#3C5A70"/>
<path d="M186.73 142.23C191.42 142.23 195.23 146.04 195.23 150.73V165.73C195.23 170.42 191.42 174.23 186.73 174.23C182.04 174.23 178.23 170.42 178.23 165.73V150.73C178.23 146.04 182.04 142.23 186.73 142.23Z" fill="#3C5A70"/>
<path d="M188.379 152.72C188.269 156.61 189.139 163.97 187.959 167.5C186.449 172.01 180.049 171.41 181.539 176.9C173.489 173.91 177.209 153.74 176.429 152.66C180.399 152.87 184.419 152.66 188.379 152.73V152.72Z" fill="#3C5A70"/>
<path d="M91.9386 105.91C90.5386 112.18 97.9086 108 100.989 110L97.7786 112.63C97.7686 113.16 101.029 114.01 101.569 114.09C105.669 114.7 153.329 115.64 154.409 113.22C154.509 112.98 150.959 112.04 154.119 109.43C154.329 109.26 155.409 109.58 155.579 109.43C157.409 114.71 162.099 117.34 164.919 121.98C173.309 135.8 176.809 161.03 164.049 173.06C161.929 175.06 158.519 173.61 159.629 178.93C159.219 178.94 158.819 178.93 158.409 178.94C158.379 178.01 158.879 175.27 158.219 174.8C157.269 174.13 138.309 175.17 134.869 174.8C105.269 171.65 122.249 144.75 114.149 127.23C111.409 121.32 98.1386 111.22 98.3886 122.73C96.8486 121.67 95.8786 121.41 94.2986 120.75C94.1086 120.67 93.9086 120.6 93.7186 120.51C88.3386 118.37 75.2086 116.89 69.3486 117.07L69.0586 116.29C79.2086 111.14 78.2786 108.25 91.9786 105.92H91.9386V105.91Z" fill="#6D8394"/>
<path d="M44.0795 86.74C43.8395 96.65 43.7495 106.92 44.8795 116.76C44.2495 116.98 42.2395 120.41 42.0195 120.5C39.3295 121.5 29.5895 118.04 35.0195 125.17C54.3795 124.71 74.3295 123.02 93.4095 126.92C95.6295 125.51 91.8095 124.94 91.9495 124.29C91.9895 124.08 94.9995 123.01 94.2895 120.73C95.8695 121.4 96.8295 121.65 98.3795 122.71C108.57 129.74 104.86 141.92 105.38 152.62L103.04 152.6C84.3295 152.46 65.6095 152.9 46.9095 152.7H46.3195C44.3495 152.68 42.3795 152.74 40.4095 152.7C36.4395 152.63 32.4095 152.83 28.4595 152.63C27.0795 152.56 25.6495 152.72 24.2695 152.6L25.9795 81.84C32.4195 78.9 36.2495 82.45 41.4195 85.49C42.2495 85.98 43.1095 86.61 44.1095 86.73H44.0795V86.74Z" fill="#889AA8"/>
<path d="M185.89 176.4C187.36 158 189.56 127.21 176.45 112.77C176.3 112.61 176.14 112.45 175.98 112.29C176.93 112.31 177.1 111.2 177.18 111.17C178.53 110.56 183.94 112.17 184.77 110.3C186.06 107.39 184.4 87.7099 183.6 83.1499C192.2 78.2499 201.29 81.2099 203.45 91.3199V151.07C202.61 153 196.37 153.67 194.14 153.67C193.93 153.67 193.72 153.77 193.52 153.76L185.21 153.73C183.14 160.65 188.91 169.15 178.21 168.23L185.87 176.41H185.89V176.4Z" fill="#889AA8"/>
<path d="M176.462 112.77C189.572 127.21 187.372 158.01 185.902 176.4L185.662 176.54C177.082 178.04 168.312 178.63 159.632 178.91C158.522 173.59 161.932 175.03 164.052 173.04C176.822 161.02 173.322 135.78 164.922 121.96C162.102 117.32 157.412 114.69 155.582 109.41C157.272 107.84 157.812 108.58 157.332 104.74C165.402 105.55 170.092 106.08 175.982 112.29C176.142 112.45 176.302 112.61 176.452 112.77H176.462Z" fill="#6D8394"/>
<path d="M124.631 40.52C125.661 43.06 121.751 47.94 119.671 48.69C105.961 53.7 82.5007 44.08 65.9507 53.36C43.0607 66.21 50.9307 95.35 48.9207 116.92C47.9007 117.02 45.3007 116.61 44.8807 116.76C43.7507 106.91 43.8407 96.64 44.0807 86.74C44.5207 68.83 41.9707 54.83 60.9907 44.5C72.4107 38.3 110.141 40.21 124.631 40.52Z" fill="#C6CFD6"/>
<path d="M158.401 178.93C150.041 179.17 121.931 179.71 115.551 176.8C104.571 171.81 105.841 162.3 105.361 152.63C104.831 141.94 108.551 129.75 98.3511 122.72C98.1011 111.21 111.381 121.31 114.111 127.22C122.221 144.75 105.241 171.64 134.841 174.79C138.281 175.16 157.241 174.12 158.191 174.79C158.851 175.26 158.351 178 158.381 178.93H158.401Z" fill="#6D8394"/>
<path d="M25.9601 81.8599L24.2501 152.62C22.5801 152.48 20.7501 152.97 19.1701 152.2C18.5901 151.73 18.2101 148.48 18.0201 147.36C16.7401 139.64 16.6601 102.74 17.7801 94.8199C18.7001 88.3899 19.4901 84.8099 25.9501 81.8599H25.9601Z" fill="#889AA8"/>
<path d="M177.181 111.16L177.141 109.99C177.211 102.45 177.591 94.8999 177.631 87.3499C177.631 87.1499 177.641 86.9499 177.641 86.7499C178.591 86.3399 179.611 86.1399 180.501 85.6199C181.711 84.9199 182.721 83.6199 183.591 83.1299C184.391 87.6799 186.051 107.36 184.761 110.28C183.931 112.15 178.521 110.55 177.171 111.15L177.181 111.16Z" fill="#889AA8"/>
<path d="M139.368 104.78C145.098 104.91 151.788 104.18 157.328 104.74C157.808 108.58 157.278 107.84 155.578 109.41C155.418 109.56 154.328 109.24 154.118 109.41C150.958 112.02 154.518 112.97 154.408 113.2C153.328 115.62 105.678 114.69 101.568 114.07C101.018 113.99 97.7584 113.14 97.7784 112.61L100.988 109.99C97.9084 107.99 90.5484 112.18 91.9384 105.9C100.678 104.41 110.138 105.01 118.978 104.77C125.718 104.58 132.648 104.63 139.388 104.77H139.368V104.78Z" fill="#6D8394"/>
<path d="M69.0198 116.27L69.3098 117.05C75.1798 116.87 88.2998 118.34 93.6798 120.49C93.8698 120.57 94.0698 120.65 94.2598 120.73C94.9698 123.01 91.9698 124.08 91.9198 124.29C91.7798 124.93 95.5998 125.52 93.3798 126.92C74.3098 123.02 54.3498 124.71 34.9898 125.17C29.5698 118.05 39.3098 121.5 41.9898 120.5C42.2098 120.42 44.2198 116.98 44.8498 116.76C45.2598 116.61 47.8698 117.02 48.8898 116.92C53.8098 116.46 62.4598 118.07 66.6098 117.08L67.1598 117.12L67.6698 117.1L68.0298 116.75C68.3698 116.62 68.6698 116.42 68.9898 116.26H69.0198V116.27Z" fill="#889AA8"/>
<path d="M142.252 98.9C142.362 98.72 112.232 100.1 127.732 93.23C131.622 87.09 128.422 98.17 125.732 93.23C117.412 90.83 134.192 91.89 124.232 90.73C139.782 100.62 137.782 103.42 124.232 90.73C124.232 90.73 125.552 82.29 126.212 93.95C126.662 101.82 121.422 92.83 128.112 94.23C128.752 95.46 128.562 94.51 129.232 95.73C129.692 96.57 131.582 103.74 131.732 104.78C122.902 105.02 100.682 104.41 91.9419 105.9C78.2519 108.23 79.1719 111.12 69.0219 116.27C68.7019 116.43 68.4019 116.63 68.0619 116.77L67.7019 117.12H67.1919L66.6419 117.1C62.4919 118.08 53.8419 116.47 48.9219 116.94C50.9319 95.38 43.0619 66.23 65.9519 53.38C82.5019 44.09 105.952 53.72 119.672 48.71C121.752 47.95 125.662 43.08 124.632 40.54C164.422 41.41 177.722 41.94 177.642 86.77C177.642 86.97 177.642 87.17 177.642 87.37C177.602 94.91 177.222 102.46 177.142 110.01L177.182 111.18C177.112 111.22 176.922 112.33 175.982 112.3C170.082 106.1 165.402 105.56 157.332 104.75C151.792 104.2 137.472 104.92 131.742 104.79L136.242 98.24C136.572 97.18 141.372 100.42 141.902 99.49" fill="#C6CFD6"/>
<path d="M146.921 73.59C146.961 74.62 146.891 76 146.921 77.26C147.001 81.12 147.411 87.32 146.921 90.9C146.891 91.09 145.951 94.39 145.871 94.57C144.221 98.24 138.721 102.73 135.381 104.01C129.731 104.73 129.091 105.3 123.841 103.49C109.841 98.65 113.951 78.34 113.351 67.02L146.141 66.23C147.461 66.82 146.871 72.2 146.931 73.58L146.921 73.59Z" fill="white"/>
<path d="M146 94.2798C146.08 94.0998 147.02 90.7998 147.05 90.6098C157 90.1798 157.9 76.7798 147.05 76.9698C147.02 75.6998 147.09 74.3198 147.05 73.2998C163.12 73.5598 161.4 94.4198 146 94.2898V94.2798Z" fill="white"/>
<path d="M147.051 90.6098C147.541 87.0298 147.131 80.8298 147.051 76.9698C157.901 76.7798 157.001 90.1798 147.051 90.6098Z" fill="#C6CFD6"/>
</g>
</g>
<defs>
<clipPath id="clip0_399_245">
<rect width="186.46" height="139.13" fill="white" transform="translate(17 40)"/>
</clipPath>
</defs>
</svg>
