<svg width="220" height="220" viewBox="0 0 220 220" fill="none" xmlns="http://www.w3.org/2000/svg">
<path d="M184.55 31.7975L189.555 19.0579C189.588 18.9753 189.704 18.9836 189.729 19.0579L191.637 24.8246C191.653 24.8824 191.719 24.9072 191.777 24.8742L196.832 21.8669C196.906 21.8173 196.997 21.9 196.964 21.9826L191.959 34.7139C191.942 34.7635 191.884 34.7882 191.835 34.7635L184.583 31.9132C184.533 31.8966 184.508 31.8388 184.533 31.7892L184.55 31.7975Z" fill="#FED267"/>
<path d="M72.3973 54.129C68.796 44.9502 65.0378 41.2903 61.2135 40.5054C60.9162 56.8058 54.7296 63.4812 44.6774 63.8613C28.0009 64.1174 17.2301 56.8223 15 38.5639C20.8066 38.63 26.2003 38.4152 30.0824 37.1016C32.3538 48.3706 35.9138 58.0533 44.1901 61.9115C43.5624 49.6842 46.1559 39.7701 60.2389 38.0682C67.747 36.515 74.1401 36.7215 78.237 40.4971C74.5283 42.1164 73.438 48.4614 72.3973 54.1207V54.129Z" fill="#272623"/>
<path d="M18.4043 41.9678C18.9426 41.9678 19.379 41.5314 19.379 40.993C19.379 40.4545 18.9426 40.0181 18.4043 40.0181C17.8661 40.0181 17.4297 40.4545 17.4297 40.993C17.4297 41.5314 17.8661 41.9678 18.4043 41.9678Z" fill="white"/>
<path d="M28.1348 41.4886C28.6731 41.4886 29.1095 41.0521 29.1095 40.5137C29.1095 39.9753 28.6731 39.5388 28.1348 39.5388C27.5965 39.5388 27.1602 39.9753 27.1602 40.5137C27.1602 41.0521 27.5965 41.4886 28.1348 41.4886Z" fill="white"/>
<path d="M19.8653 47.3213C20.4036 47.3213 20.8399 46.8849 20.8399 46.3465C20.8399 45.8081 20.4036 45.3716 19.8653 45.3716C19.327 45.3716 18.8906 45.8081 18.8906 46.3465C18.8906 46.8849 19.327 47.3213 19.8653 47.3213Z" fill="white"/>
<path d="M28.6192 45.8672C29.1575 45.8672 29.5938 45.4308 29.5938 44.8924C29.5938 44.354 29.1575 43.9175 28.6192 43.9175C28.0809 43.9175 27.6445 44.354 27.6445 44.8924C27.6445 45.4308 28.0809 45.8672 28.6192 45.8672Z" fill="white"/>
<path d="M22.295 52.6749C22.8333 52.6749 23.2696 52.2384 23.2696 51.7C23.2696 51.1616 22.8333 50.7251 22.295 50.7251C21.7567 50.7251 21.3203 51.1616 21.3203 51.7C21.3203 52.2384 21.7567 52.6749 22.295 52.6749Z" fill="white"/>
<path d="M30.084 50.2459C30.6223 50.2459 31.0587 49.8094 31.0587 49.271C31.0587 48.7326 30.6223 48.2961 30.084 48.2961C29.5457 48.2961 29.1094 48.7326 29.1094 49.271C29.1094 49.8094 29.5457 50.2459 30.084 50.2459Z" fill="white"/>
<path d="M24.4808 56.0788C24.8822 56.0788 25.2076 55.7533 25.2076 55.3518C25.2076 54.9503 24.8822 54.6248 24.4808 54.6248C24.0793 54.6248 23.7539 54.9503 23.7539 55.3518C23.7539 55.7533 24.0793 56.0788 24.4808 56.0788Z" fill="white"/>
<path d="M32.2698 54.1289C32.6713 54.1289 32.9967 53.8034 32.9967 53.4018C32.9967 53.0003 32.6713 52.6748 32.2698 52.6748C31.8684 52.6748 31.543 53.0003 31.543 53.4018C31.543 53.8034 31.8684 54.1289 32.2698 54.1289Z" fill="white"/>
<path d="M28.3714 59.9699C28.7728 59.9699 29.0983 59.6444 29.0983 59.2429C29.0983 58.8414 28.7728 58.5159 28.3714 58.5159C27.97 58.5159 27.6445 58.8414 27.6445 59.2429C27.6445 59.6444 27.97 59.9699 28.3714 59.9699Z" fill="white"/>
<path d="M35.1878 57.5329C35.5892 57.5329 35.9147 57.2074 35.9147 56.8059C35.9147 56.4044 35.5892 56.0789 35.1878 56.0789C34.7864 56.0789 34.4609 56.4044 34.4609 56.8059C34.4609 57.2074 34.7864 57.5329 35.1878 57.5329Z" fill="white"/>
<path d="M31.7108 61.9198C31.948 61.9198 32.1403 61.7274 32.1403 61.4902C32.1403 61.2529 31.948 61.0605 31.7108 61.0605C31.4735 61.0605 31.2812 61.2529 31.2812 61.4902C31.2812 61.7274 31.4735 61.9198 31.7108 61.9198Z" fill="white"/>
<path d="M37.3592 59.7882C37.5964 59.7882 37.7887 59.5958 37.7887 59.3586C37.7887 59.1213 37.5964 58.929 37.3592 58.929C37.122 58.929 36.9297 59.1213 36.9297 59.3586C36.9297 59.5958 37.122 59.7882 37.3592 59.7882Z" fill="white"/>
<path d="M109.847 99.3783C129.996 99.3783 146.33 83.0403 146.33 62.8863C146.33 42.7323 129.996 26.3943 109.847 26.3943C89.6975 26.3943 73.3633 42.7323 73.3633 62.8863C73.3633 83.0403 89.6975 99.3783 109.847 99.3783Z" fill="#272623"/>
<path d="M102.554 99.3783C122.703 99.3783 139.037 83.0403 139.037 62.8863C139.037 42.7323 122.703 26.3943 102.554 26.3943C82.4045 26.3943 66.0703 42.7323 66.0703 62.8863C66.0703 83.0403 82.4045 99.3783 102.554 99.3783Z" fill="#FED267"/>
<path d="M103.281 65.8109C105.028 65.8109 106.444 64.3942 106.444 62.6467C106.444 60.8991 105.028 59.4824 103.281 59.4824C101.534 59.4824 100.117 60.8991 100.117 62.6467C100.117 64.3942 101.534 65.8109 103.281 65.8109Z" fill="#272623"/>
<path d="M83.8303 62.9441C86.6814 62.9441 88.9927 60.6323 88.9927 57.7805C88.9927 54.9288 86.6814 52.6169 83.8303 52.6169C80.9792 52.6169 78.668 54.9288 78.668 57.7805C78.668 60.6323 80.9792 62.9441 83.8303 62.9441Z" fill="#272623"/>
<path d="M97.3906 42.5955C97.3906 39.7452 99.7034 37.4319 102.553 37.4319C105.403 37.4319 107.715 39.7452 107.715 42.5955C107.715 45.4458 105.403 47.759 102.553 47.759C99.7034 47.759 97.3906 45.4458 97.3906 42.5955Z" fill="#272623"/>
<path d="M116.852 57.6731C116.852 54.8228 119.164 52.5095 122.014 52.5095C124.864 52.5095 127.176 54.8228 127.176 57.6731C127.176 60.5234 124.864 62.8367 122.014 62.8367C119.164 62.8367 116.852 60.5234 116.852 57.6731Z" fill="#272623"/>
<path d="M87.1836 81.0291C87.1836 78.1788 89.4963 75.8655 92.346 75.8655C95.1956 75.8655 97.5083 78.1788 97.5083 81.0291C97.5083 83.8794 95.1956 86.1926 92.346 86.1926C89.4963 86.1926 87.1836 83.8794 87.1836 81.0291Z" fill="#272623"/>
<path d="M107.609 81.0291C107.609 78.1788 109.922 75.8655 112.772 75.8655C115.621 75.8655 117.934 78.1788 117.934 81.0291C117.934 83.8794 115.621 86.1926 112.772 86.1926C109.922 86.1926 107.609 83.8794 107.609 81.0291Z" fill="#272623"/>
<path d="M151.23 94.1488C151.544 93.1244 151.536 91.8686 152.056 90.8772C160.638 93.8431 169.377 96.3547 177.959 99.3289C178.174 99.2463 178.768 98.9406 178.653 98.6597C178.124 97.3874 155.261 91.6951 152.42 90.0097L152.18 88.5639L145.919 86.6141C145.622 88.3491 142.359 85.978 141.748 86.7876C141.013 87.7708 144.408 88.093 145.002 88.2913C144.499 89.3157 144.094 90.5467 143.763 91.6373C141.698 91.0176 137.874 90.4063 137.263 87.9443C136.759 85.9201 137.882 83.4003 140.253 83.6812C141.286 83.7969 152.015 86.8289 152.469 87.2833C152.643 87.4568 152.271 87.8286 152.428 88.0517L152.948 87.6303L181.56 96.5282L182.915 96.2638L200.376 40.1089C201.309 40.1915 203.383 40.7203 203.374 41.8273C203.366 42.5461 201.681 47.784 201.326 49.0398C196.279 67.0338 189.514 84.6313 184.641 102.691C183.972 103.625 183.353 103.972 182.18 103.989L151.214 94.1571L151.23 94.1488Z" fill="white"/>
<path d="M150.676 95.9415C150.809 95.578 151.089 94.6197 151.23 94.157L182.196 103.988C183.369 103.972 183.988 103.633 184.657 102.691C189.53 84.623 196.295 67.0255 201.342 49.0397C201.689 47.7922 203.382 42.546 203.39 41.8273C203.407 40.7202 201.325 40.1914 200.392 40.1088L182.931 96.2638L181.576 96.5281L152.964 87.6303L152.444 88.0516C152.295 87.8285 152.659 87.4485 152.485 87.2833C152.039 86.8289 141.302 83.7968 140.269 83.6812C137.89 83.4085 136.775 85.9201 137.279 87.9442C137.89 90.3979 141.714 91.0176 143.779 91.6372C143.532 92.4716 143.036 93.3722 142.987 93.5457C139.063 92.4964 134.495 91.662 135.173 86.5067L154.013 25.2873C155.376 22.1809 157.854 21.2556 161.108 21.71L201.697 34.3339C202.44 35.1435 200.789 37.8369 200.945 38.316C201.102 38.7952 205.265 38.8778 204.984 41.7281L185.409 104.682C184.616 105.517 183.74 106.029 182.534 106.046L150.676 95.9415Z" fill="#F9604C"/>
<path d="M152.046 90.8772C149.683 90.0593 147.371 89.0927 145.008 88.2913C144.414 88.093 141.011 87.7708 141.754 86.7877C142.365 85.978 145.628 88.3491 145.925 86.6141L152.186 88.5639L152.426 90.0097C155.267 91.6951 178.13 97.3874 178.659 98.6597C178.774 98.9406 178.171 99.2381 177.965 99.3289C169.383 96.3547 160.644 93.8432 152.062 90.8772H152.046Z" fill="#272623"/>
<path d="M187.696 42.46L162.798 34.9077C161.824 34.6124 160.796 35.1624 160.501 36.1361L157.26 46.8253C156.965 47.799 157.515 48.8277 158.488 49.123L183.387 56.6753C184.36 56.9706 185.389 56.4206 185.684 55.4469L188.925 44.7578C189.22 43.784 188.67 42.7553 187.696 42.46Z" fill="#FEB696"/>
<path d="M64.9053 69.9995C106.444 87.1261 154.466 87.0765 196.071 70.2226C197.772 113.522 198.912 162.787 158.059 189.993C152.616 193.62 136.79 201.055 130.422 200.915C121.344 200.716 103.619 190.992 96.6394 185.218C61.5023 156.12 64.2363 110.978 64.9053 70.0078V69.9995Z" fill="#6369D2"/>
<path d="M105.312 152.162C107.567 152.138 116.05 155.178 119.503 155.723C131.677 157.656 143.613 156.029 155.333 152.435C152.897 177.542 120.989 184.639 108.583 162.209C107.898 160.961 105.164 153.608 105.081 152.418C105.073 152.295 105.023 152.179 104.957 152.055C105.073 152.113 105.197 152.154 105.312 152.154V152.162Z" fill="white"/>
<path d="M99.7103 105.756C110.803 104.311 120.583 112.928 121.095 124.097L82.2656 124.32C84.2728 114.646 89.2534 107.12 99.7103 105.756Z" fill="white"/>
<path d="M157.034 105.756C168.16 104.286 177.758 113.101 178.336 124.097L139.879 124.329C140.837 114.588 147.114 107.078 157.026 105.764L157.034 105.756Z" fill="white"/>
</svg>
