<svg width="291" height="300" viewBox="0 0 291 300" fill="none" xmlns="http://www.w3.org/2000/svg">
<path d="M52.4 12.09L58.912 21H56.096L50.794 13.718L48.836 15.94V21H46.438V5.6H48.836V13.058L55.392 5.6H58.12L52.4 12.09ZM63.7765 21.352C62.5885 21.352 61.6205 20.978 60.8725 20.23C60.1245 19.482 59.7505 18.404 59.7505 16.996V9.934H62.0825V16.776C62.0825 18.492 62.8159 19.35 64.2825 19.35C65.0159 19.35 65.6172 19.1153 66.0865 18.646C66.5705 18.162 66.8125 17.502 66.8125 16.666V9.934H69.1445V21H66.9005V19.812C66.6219 20.2813 66.2112 20.6553 65.6685 20.934C65.1405 21.2127 64.5099 21.352 63.7765 21.352ZM75.4833 21.264C73.5473 21.264 72.5793 20.2813 72.5793 18.316V5.6H74.9113V18.228C74.9113 18.9467 75.2559 19.306 75.9453 19.306C76.1359 19.306 76.3633 19.2913 76.6273 19.262V21.11C76.3193 21.2127 75.9379 21.264 75.4833 21.264ZM82.7969 21.22C81.6676 21.22 80.7876 20.9267 80.1569 20.34C79.5409 19.7533 79.2329 18.932 79.2329 17.876V11.694H77.5169V9.934H79.3209V6.92H81.5649V9.934H84.1829V11.694H81.5649V17.612C81.5649 18.1693 81.6896 18.5727 81.9389 18.822C82.2029 19.0713 82.6136 19.196 83.1709 19.196C83.5229 19.196 83.9629 19.1667 84.4909 19.108V21C84.0069 21.1467 83.4422 21.22 82.7969 21.22ZM90.675 21.352C89.487 21.352 88.519 20.978 87.771 20.23C87.023 19.482 86.649 18.404 86.649 16.996V9.934H88.981V16.776C88.981 18.492 89.7143 19.35 91.181 19.35C91.9143 19.35 92.5156 19.1153 92.985 18.646C93.469 18.162 93.711 17.502 93.711 16.666V9.934H96.043V21H93.799V19.812C93.5203 20.2813 93.1096 20.6553 92.567 20.934C92.039 21.2127 91.4083 21.352 90.675 21.352ZM99.4777 21V9.934H101.722V11.782C102 11.0047 102.396 10.4473 102.91 10.11C103.423 9.758 104.083 9.582 104.89 9.582C105.154 9.582 105.425 9.604 105.704 9.648V11.892C105.352 11.848 105.051 11.826 104.802 11.826C103.863 11.826 103.13 12.1413 102.602 12.772C102.074 13.4027 101.81 14.3487 101.81 15.61V21H99.4777ZM107.065 9.934H110.343V21H108.011V11.694H107.065V9.934ZM110.211 7.976H107.637V5.556H110.211V7.976ZM113.765 21V9.934H116.009V11.144C116.287 10.6747 116.691 10.3007 117.219 10.022C117.747 9.72867 118.37 9.582 119.089 9.582C120.277 9.582 121.252 9.97067 122.015 10.748C122.777 11.5253 123.159 12.618 123.159 14.026V21H120.827V14.246C120.827 13.366 120.636 12.706 120.255 12.266C119.873 11.8113 119.331 11.584 118.627 11.584C117.893 11.584 117.285 11.826 116.801 12.31C116.331 12.7793 116.097 13.432 116.097 14.268V21H113.765ZM130.578 21.22C129.449 21.22 128.569 20.9267 127.938 20.34C127.322 19.7533 127.014 18.932 127.014 17.876V11.694H125.298V9.934H127.102V6.92H129.346V9.934H131.964V11.694H129.346V17.612C129.346 18.1693 129.471 18.5727 129.72 18.822C129.984 19.0713 130.395 19.196 130.952 19.196C131.304 19.196 131.744 19.1667 132.272 19.108V21C131.788 21.1467 131.223 21.22 130.578 21.22ZM143.961 16.028H135.887C135.946 17.172 136.247 18.03 136.789 18.602C137.332 19.1593 138.043 19.438 138.923 19.438C139.657 19.438 140.236 19.2767 140.661 18.954C141.087 18.6313 141.387 18.2133 141.563 17.7H143.873C143.58 18.8587 142.986 19.7607 142.091 20.406C141.197 21.0367 140.126 21.352 138.879 21.352C137.779 21.352 136.826 21.11 136.019 20.626C135.213 20.1273 134.597 19.438 134.171 18.558C133.746 17.6633 133.533 16.6367 133.533 15.478C133.533 14.378 133.731 13.388 134.127 12.508C134.538 11.6133 135.139 10.902 135.931 10.374C136.738 9.846 137.706 9.582 138.835 9.582C140.507 9.582 141.776 10.1247 142.641 11.21C143.521 12.2953 143.961 13.7253 143.961 15.5V16.028ZM141.519 14.29C141.461 13.3953 141.211 12.6987 140.771 12.2C140.331 11.6867 139.686 11.43 138.835 11.43C137.985 11.43 137.317 11.6793 136.833 12.178C136.349 12.662 136.049 13.366 135.931 14.29H141.519ZM146.529 21V9.934H148.773V11.782C149.051 11.0047 149.447 10.4473 149.961 10.11C150.474 9.758 151.134 9.582 151.941 9.582C152.205 9.582 152.476 9.604 152.755 9.648V11.892C152.403 11.848 152.102 11.826 151.853 11.826C150.914 11.826 150.181 12.1413 149.653 12.772C149.125 13.4027 148.861 14.3487 148.861 15.61V21H146.529ZM164.307 16.028H156.233C156.292 17.172 156.592 18.03 157.135 18.602C157.678 19.1593 158.389 19.438 159.269 19.438C160.002 19.438 160.582 19.2767 161.007 18.954C161.432 18.6313 161.733 18.2133 161.909 17.7H164.219C163.926 18.8587 163.332 19.7607 162.437 20.406C161.542 21.0367 160.472 21.352 159.225 21.352C158.125 21.352 157.172 21.11 156.365 20.626C155.558 20.1273 154.942 19.438 154.517 18.558C154.092 17.6633 153.879 16.6367 153.879 15.478C153.879 14.378 154.077 13.388 154.473 12.508C154.884 11.6133 155.485 10.902 156.277 10.374C157.084 9.846 158.052 9.582 159.181 9.582C160.853 9.582 162.122 10.1247 162.987 11.21C163.867 12.2953 164.307 13.7253 164.307 15.5V16.028ZM161.865 14.29C161.806 13.3953 161.557 12.6987 161.117 12.2C160.677 11.6867 160.032 11.43 159.181 11.43C158.33 11.43 157.663 11.6793 157.179 12.178C156.695 12.662 156.394 13.366 156.277 14.29H161.865ZM170.617 21.352C169.282 21.352 168.182 21.0587 167.317 20.472C166.466 19.8707 165.989 18.9613 165.887 17.744H168.197C168.27 18.3307 168.497 18.7633 168.879 19.042C169.275 19.3207 169.854 19.46 170.617 19.46C171.35 19.46 171.922 19.328 172.333 19.064C172.743 18.8 172.949 18.4333 172.949 17.964C172.949 17.5533 172.817 17.2453 172.553 17.04C172.303 16.8347 171.827 16.6293 171.123 16.424L169.363 15.896C168.336 15.588 167.573 15.2067 167.075 14.752C166.576 14.2827 166.327 13.63 166.327 12.794C166.327 12.1927 166.495 11.65 166.833 11.166C167.185 10.6673 167.691 10.2787 168.351 10C169.011 9.72133 169.781 9.582 170.661 9.582C171.981 9.582 173.037 9.846 173.829 10.374C174.635 10.8873 175.09 11.6793 175.193 12.75H172.861C172.641 11.87 171.907 11.43 170.661 11.43C170.015 11.43 169.517 11.5473 169.165 11.782C168.827 12.002 168.659 12.31 168.659 12.706C168.659 13.014 168.776 13.2707 169.011 13.476C169.26 13.6667 169.678 13.85 170.265 14.026L172.201 14.62C173.227 14.928 173.997 15.3167 174.511 15.786C175.039 16.2407 175.303 16.9447 175.303 17.898C175.303 18.9687 174.892 19.812 174.071 20.428C173.264 21.044 172.113 21.352 170.617 21.352ZM181.552 21.352C180.218 21.352 179.118 21.0587 178.252 20.472C177.402 19.8707 176.925 18.9613 176.822 17.744H179.132C179.206 18.3307 179.433 18.7633 179.814 19.042C180.21 19.3207 180.79 19.46 181.552 19.46C182.286 19.46 182.858 19.328 183.268 19.064C183.679 18.8 183.884 18.4333 183.884 17.964C183.884 17.5533 183.752 17.2453 183.488 17.04C183.239 16.8347 182.762 16.6293 182.058 16.424L180.298 15.896C179.272 15.588 178.509 15.2067 178.01 14.752C177.512 14.2827 177.262 13.63 177.262 12.794C177.262 12.1927 177.431 11.65 177.768 11.166C178.12 10.6673 178.626 10.2787 179.286 10C179.946 9.72133 180.716 9.582 181.596 9.582C182.916 9.582 183.972 9.846 184.764 10.374C185.571 10.8873 186.026 11.6793 186.128 12.75H183.796C183.576 11.87 182.843 11.43 181.596 11.43C180.951 11.43 180.452 11.5473 180.1 11.782C179.763 12.002 179.594 12.31 179.594 12.706C179.594 13.014 179.712 13.2707 179.946 13.476C180.196 13.6667 180.614 13.85 181.2 14.026L183.136 14.62C184.163 14.928 184.933 15.3167 185.446 15.786C185.974 16.2407 186.238 16.9447 186.238 17.898C186.238 18.9687 185.828 19.812 185.006 20.428C184.2 21.044 183.048 21.352 181.552 21.352ZM188.083 9.934H191.361V21H189.029V11.694H188.083V9.934ZM191.229 7.976H188.655V5.556H191.229V7.976ZM204.418 16.028H196.344C196.403 17.172 196.704 18.03 197.246 18.602C197.789 19.1593 198.5 19.438 199.38 19.438C200.114 19.438 200.693 19.2767 201.118 18.954C201.544 18.6313 201.844 18.2133 202.02 17.7H204.33C204.037 18.8587 203.443 19.7607 202.548 20.406C201.654 21.0367 200.583 21.352 199.336 21.352C198.236 21.352 197.283 21.11 196.476 20.626C195.67 20.1273 195.054 19.438 194.628 18.558C194.203 17.6633 193.99 16.6367 193.99 15.478C193.99 14.378 194.188 13.388 194.584 12.508C194.995 11.6133 195.596 10.902 196.388 10.374C197.195 9.846 198.163 9.582 199.292 9.582C200.964 9.582 202.233 10.1247 203.098 11.21C203.978 12.2953 204.418 13.7253 204.418 15.5V16.028ZM201.976 14.29C201.918 13.3953 201.668 12.6987 201.228 12.2C200.788 11.6867 200.143 11.43 199.292 11.43C198.442 11.43 197.774 11.6793 197.29 12.178C196.806 12.662 196.506 13.366 196.388 14.29H201.976ZM206.986 21V9.934H209.23V11.782C209.508 11.0047 209.904 10.4473 210.418 10.11C210.931 9.758 211.591 9.582 212.398 9.582C212.662 9.582 212.933 9.604 213.212 9.648V11.892C212.86 11.848 212.559 11.826 212.31 11.826C211.371 11.826 210.638 12.1413 210.11 12.772C209.582 13.4027 209.318 14.3487 209.318 15.61V21H206.986ZM219.545 21.22C218.416 21.22 217.536 20.9267 216.905 20.34C216.289 19.7533 215.981 18.932 215.981 17.876V11.694H214.265V9.934H216.069V6.92H218.313V9.934H220.931V11.694H218.313V17.612C218.313 18.1693 218.438 18.5727 218.687 18.822C218.951 19.0713 219.362 19.196 219.919 19.196C220.271 19.196 220.711 19.1667 221.239 19.108V21C220.755 21.1467 220.19 21.22 219.545 21.22ZM232.928 16.028H224.854C224.913 17.172 225.214 18.03 225.756 18.602C226.299 19.1593 227.01 19.438 227.89 19.438C228.624 19.438 229.203 19.2767 229.628 18.954C230.054 18.6313 230.354 18.2133 230.53 17.7H232.84C232.547 18.8587 231.953 19.7607 231.058 20.406C230.164 21.0367 229.093 21.352 227.846 21.352C226.746 21.352 225.793 21.11 224.986 20.626C224.18 20.1273 223.564 19.438 223.138 18.558C222.713 17.6633 222.5 16.6367 222.5 15.478C222.5 14.378 222.698 13.388 223.094 12.508C223.505 11.6133 224.106 10.902 224.898 10.374C225.705 9.846 226.673 9.582 227.802 9.582C229.474 9.582 230.743 10.1247 231.608 11.21C232.488 12.2953 232.928 13.7253 232.928 15.5V16.028ZM230.486 14.29C230.428 13.3953 230.178 12.6987 229.738 12.2C229.298 11.6867 228.653 11.43 227.802 11.43C226.952 11.43 226.284 11.6793 225.8 12.178C225.316 12.662 225.016 13.366 224.898 14.29H230.486ZM235.495 21V9.934H237.739V11.144C238.018 10.6747 238.421 10.3007 238.949 10.022C239.477 9.72867 240.101 9.582 240.819 9.582C242.007 9.582 242.983 9.97067 243.745 10.748C244.508 11.5253 244.889 12.618 244.889 14.026V21H242.557V14.246C242.557 13.366 242.367 12.706 241.985 12.266C241.604 11.8113 241.061 11.584 240.357 11.584C239.624 11.584 239.015 11.826 238.531 12.31C238.062 12.7793 237.827 13.432 237.827 14.268V21H235.495Z" fill="#272623"/>
<path d="M220.05 78.7975L225.055 66.0579C225.088 65.9753 225.204 65.9836 225.229 66.0579L227.137 71.8246C227.153 71.8824 227.219 71.9072 227.277 71.8742L232.332 68.8669C232.406 68.8173 232.497 68.9 232.464 68.9826L227.459 81.7139C227.442 81.7635 227.384 81.7882 227.335 81.7635L220.083 78.9132C220.033 78.8966 220.008 78.8388 220.033 78.7892L220.05 78.7975Z" fill="#FED267"/>
<path d="M107.897 101.129C104.296 91.9502 100.538 88.2903 96.7135 87.5054C96.4162 103.806 90.2296 110.481 80.1774 110.861C63.5009 111.117 52.7301 103.822 50.5 85.5639C56.3066 85.63 61.7003 85.4152 65.5824 84.1016C67.8538 95.3706 71.4138 105.053 79.6901 108.912C79.0624 96.6842 81.6559 86.7701 95.7389 85.0682C103.247 83.515 109.64 83.7215 113.737 87.4971C110.028 89.1164 108.938 95.4614 107.897 101.121V101.129Z" fill="#272623"/>
<path d="M53.9043 88.9678C54.4426 88.9678 54.879 88.5314 54.879 87.993C54.879 87.4545 54.4426 87.0181 53.9043 87.0181C53.3661 87.0181 52.9297 87.4545 52.9297 87.993C52.9297 88.5314 53.3661 88.9678 53.9043 88.9678Z" fill="white"/>
<path d="M63.6348 88.4886C64.1731 88.4886 64.6095 88.0521 64.6095 87.5137C64.6095 86.9753 64.1731 86.5388 63.6348 86.5388C63.0965 86.5388 62.6602 86.9753 62.6602 87.5137C62.6602 88.0521 63.0965 88.4886 63.6348 88.4886Z" fill="white"/>
<path d="M55.3653 94.3213C55.9036 94.3213 56.3399 93.8849 56.3399 93.3465C56.3399 92.8081 55.9036 92.3716 55.3653 92.3716C54.827 92.3716 54.3906 92.8081 54.3906 93.3465C54.3906 93.8849 54.827 94.3213 55.3653 94.3213Z" fill="white"/>
<path d="M64.1192 92.8672C64.6575 92.8672 65.0938 92.4308 65.0938 91.8924C65.0938 91.354 64.6575 90.9175 64.1192 90.9175C63.5809 90.9175 63.1445 91.354 63.1445 91.8924C63.1445 92.4308 63.5809 92.8672 64.1192 92.8672Z" fill="white"/>
<path d="M57.795 99.6749C58.3333 99.6749 58.7696 99.2384 58.7696 98.7C58.7696 98.1616 58.3333 97.7251 57.795 97.7251C57.2567 97.7251 56.8203 98.1616 56.8203 98.7C56.8203 99.2384 57.2567 99.6749 57.795 99.6749Z" fill="white"/>
<path d="M65.584 97.2459C66.1223 97.2459 66.5587 96.8094 66.5587 96.271C66.5587 95.7326 66.1223 95.2961 65.584 95.2961C65.0457 95.2961 64.6094 95.7326 64.6094 96.271C64.6094 96.8094 65.0457 97.2459 65.584 97.2459Z" fill="white"/>
<path d="M59.9808 103.079C60.3822 103.079 60.7076 102.753 60.7076 102.352C60.7076 101.95 60.3822 101.625 59.9808 101.625C59.5793 101.625 59.2539 101.95 59.2539 102.352C59.2539 102.753 59.5793 103.079 59.9808 103.079Z" fill="white"/>
<path d="M67.7698 101.129C68.1713 101.129 68.4967 100.803 68.4967 100.402C68.4967 100 68.1713 99.6748 67.7698 99.6748C67.3684 99.6748 67.043 100 67.043 100.402C67.043 100.803 67.3684 101.129 67.7698 101.129Z" fill="white"/>
<path d="M63.8714 106.97C64.2728 106.97 64.5983 106.644 64.5983 106.243C64.5983 105.841 64.2728 105.516 63.8714 105.516C63.47 105.516 63.1445 105.841 63.1445 106.243C63.1445 106.644 63.47 106.97 63.8714 106.97Z" fill="white"/>
<path d="M70.6878 104.533C71.0892 104.533 71.4147 104.207 71.4147 103.806C71.4147 103.404 71.0892 103.079 70.6878 103.079C70.2864 103.079 69.9609 103.404 69.9609 103.806C69.9609 104.207 70.2864 104.533 70.6878 104.533Z" fill="white"/>
<path d="M67.2108 108.92C67.448 108.92 67.6403 108.727 67.6403 108.49C67.6403 108.253 67.448 108.061 67.2108 108.061C66.9735 108.061 66.7812 108.253 66.7812 108.49C66.7812 108.727 66.9735 108.92 67.2108 108.92Z" fill="white"/>
<path d="M72.8592 106.788C73.0964 106.788 73.2887 106.596 73.2887 106.359C73.2887 106.121 73.0964 105.929 72.8592 105.929C72.622 105.929 72.4297 106.121 72.4297 106.359C72.4297 106.596 72.622 106.788 72.8592 106.788Z" fill="white"/>
<path d="M145.347 146.378C165.496 146.378 181.83 130.04 181.83 109.886C181.83 89.7323 165.496 73.3943 145.347 73.3943C125.198 73.3943 108.863 89.7323 108.863 109.886C108.863 130.04 125.198 146.378 145.347 146.378Z" fill="#272623"/>
<path d="M138.054 146.378C158.203 146.378 174.537 130.04 174.537 109.886C174.537 89.7323 158.203 73.3943 138.054 73.3943C117.905 73.3943 101.57 89.7323 101.57 109.886C101.57 130.04 117.905 146.378 138.054 146.378Z" fill="#FED267"/>
<path d="M138.781 112.811C140.528 112.811 141.944 111.394 141.944 109.647C141.944 107.899 140.528 106.482 138.781 106.482C137.034 106.482 135.617 107.899 135.617 109.647C135.617 111.394 137.034 112.811 138.781 112.811Z" fill="#272623"/>
<path d="M119.33 109.944C122.181 109.944 124.493 107.632 124.493 104.781C124.493 101.929 122.181 99.6169 119.33 99.6169C116.479 99.6169 114.168 101.929 114.168 104.781C114.168 107.632 116.479 109.944 119.33 109.944Z" fill="#272623"/>
<path d="M132.891 89.5955C132.891 86.7452 135.203 84.4319 138.053 84.4319C140.903 84.4319 143.215 86.7452 143.215 89.5955C143.215 92.4458 140.903 94.759 138.053 94.759C135.203 94.759 132.891 92.4458 132.891 89.5955Z" fill="#272623"/>
<path d="M152.352 104.673C152.352 101.823 154.664 99.5095 157.514 99.5095C160.364 99.5095 162.676 101.823 162.676 104.673C162.676 107.523 160.364 109.837 157.514 109.837C154.664 109.837 152.352 107.523 152.352 104.673Z" fill="#272623"/>
<path d="M122.684 128.029C122.684 125.179 124.996 122.865 127.846 122.865C130.696 122.865 133.008 125.179 133.008 128.029C133.008 130.879 130.696 133.193 127.846 133.193C124.996 133.193 122.684 130.879 122.684 128.029Z" fill="#272623"/>
<path d="M143.109 128.029C143.109 125.179 145.422 122.865 148.272 122.865C151.121 122.865 153.434 125.179 153.434 128.029C153.434 130.879 151.121 133.193 148.272 133.193C145.422 133.193 143.109 130.879 143.109 128.029Z" fill="#272623"/>
<path d="M186.73 141.149C187.044 140.124 187.036 138.868 187.556 137.877C196.138 140.843 204.877 143.354 213.459 146.329C213.674 146.246 214.268 145.94 214.153 145.659C213.624 144.387 190.761 138.695 187.92 137.009L187.68 135.564L181.419 133.614C181.122 135.349 177.859 132.978 177.248 133.787C176.513 134.771 179.908 135.093 180.502 135.291C179.999 136.315 179.594 137.546 179.263 138.637C177.198 138.017 173.374 137.406 172.763 134.944C172.259 132.92 173.382 130.4 175.753 130.681C176.786 130.797 187.515 133.829 187.969 134.283C188.143 134.457 187.771 134.828 187.928 135.051L188.448 134.63L217.06 143.528L218.415 143.264L235.876 87.1086C236.809 87.1913 238.883 87.72 238.874 88.8271C238.866 89.5459 237.181 94.7838 236.826 96.0396C231.779 114.034 225.014 131.631 220.141 149.691C219.472 150.625 218.853 150.972 217.68 150.988L186.714 141.157L186.73 141.149Z" fill="white"/>
<path d="M186.176 142.941C186.309 142.578 186.589 141.619 186.73 141.157L217.696 150.988C218.869 150.972 219.488 150.633 220.157 149.691C225.03 131.623 231.795 114.025 236.842 96.0395C237.189 94.792 238.882 89.5458 238.89 88.827C238.907 87.7199 236.825 87.1912 235.892 87.1086L218.431 143.264L217.076 143.528L188.464 134.63L187.944 135.051C187.795 134.828 188.159 134.448 187.985 134.283C187.539 133.829 176.802 130.797 175.769 130.681C173.39 130.408 172.275 132.92 172.779 134.944C173.39 137.398 177.214 138.017 179.279 138.637C179.032 139.471 178.536 140.372 178.487 140.545C174.563 139.496 169.995 138.662 170.673 133.506L189.513 72.2871C190.876 69.1806 193.354 68.2553 196.608 68.7097L237.197 81.3336C237.94 82.1433 236.289 84.8366 236.445 85.3158C236.602 85.795 240.765 85.8776 240.484 88.7279L220.909 151.682C220.116 152.517 219.24 153.029 218.034 153.045L186.176 142.941Z" fill="#F9604C"/>
<path d="M187.546 137.877C185.183 137.059 182.871 136.092 180.508 135.291C179.914 135.093 176.511 134.771 177.254 133.787C177.865 132.978 181.128 135.349 181.425 133.614L187.686 135.564L187.926 137.009C190.767 138.695 213.63 144.387 214.159 145.659C214.274 145.94 213.671 146.238 213.465 146.329C204.883 143.354 196.144 140.843 187.562 137.877H187.546Z" fill="#272623"/>
<path d="M223.196 89.46L198.298 81.9077C197.324 81.6124 196.296 82.1624 196.001 83.1361L192.76 93.8253C192.465 94.799 193.015 95.8277 193.988 96.123L218.887 103.675C219.86 103.971 220.889 103.421 221.184 102.447L224.425 91.7578C224.72 90.784 224.17 89.7553 223.196 89.46Z" fill="#FEB696"/>
<path d="M100.405 117C141.944 134.126 189.966 134.076 231.571 117.223C233.272 160.522 234.412 209.787 193.559 236.993C188.116 240.62 172.29 248.055 165.922 247.915C156.844 247.716 139.119 237.992 132.139 232.218C97.0023 203.12 99.7363 157.978 100.405 117.008V117Z" fill="#6369D2"/>
<path d="M140.812 199.162C143.067 199.138 151.55 202.178 155.003 202.723C167.177 204.656 179.113 203.029 190.833 199.435C188.397 224.542 156.489 231.639 144.083 209.209C143.398 207.961 140.664 200.608 140.581 199.418C140.573 199.295 140.523 199.179 140.457 199.055C140.573 199.113 140.697 199.154 140.812 199.154V199.162Z" fill="white"/>
<path d="M135.21 152.756C146.303 151.311 156.083 159.928 156.595 171.097L117.766 171.32C119.773 161.646 124.753 154.12 135.21 152.756Z" fill="white"/>
<path d="M192.534 152.756C203.66 151.286 213.258 160.101 213.836 171.097L175.379 171.329C176.337 161.588 182.614 154.078 192.526 152.764L192.534 152.756Z" fill="white"/>
</svg>
