<svg width="220" height="220" viewBox="0 0 220 220" fill="none" xmlns="http://www.w3.org/2000/svg">
<mask id="mask0_399_287" style="mask-type:luminance" maskUnits="userSpaceOnUse" x="15" y="19" width="190" height="182">
<path d="M205 19H15V200.92H205V19Z" fill="white"/>
</mask>
<g mask="url(#mask0_399_287)">
<path d="M184.551 31.8002L189.551 19.0602C189.581 18.9802 189.701 18.9902 189.721 19.0602L191.631 24.8302C191.651 24.8902 191.711 24.9102 191.771 24.8802L196.831 21.8702C196.901 21.8202 196.991 21.9002 196.961 21.9902L191.951 34.7202C191.951 34.7202 191.881 34.7902 191.831 34.7702L184.581 31.9202C184.581 31.9202 184.511 31.8502 184.531 31.8002H184.551Z" fill="#D8DEE2"/>
<path d="M72.4 54.1304C68.8 44.9504 65.04 41.2904 61.22 40.5104C60.92 56.8104 54.74 63.4903 44.68 63.8703C28 64.1303 17.23 56.8304 15 38.5704C20.81 38.6404 26.2 38.4204 30.08 37.1104C32.35 48.3804 35.91 58.0603 44.19 61.9203C43.56 49.6903 46.16 39.7804 60.24 38.0804C67.75 36.5304 74.14 36.7304 78.24 40.5104C74.53 42.1304 73.44 48.4704 72.4 54.1304Z" fill="#3C5A70"/>
<path d="M18.3997 41.9703C18.9397 41.9703 19.3697 41.5303 19.3697 41.0003C19.3697 40.4703 18.9297 40.0303 18.3997 40.0303C17.8697 40.0303 17.4297 40.4703 17.4297 41.0003C17.4297 41.5303 17.8697 41.9703 18.3997 41.9703Z" fill="white"/>
<path d="M28.1302 41.4903C28.6702 41.4903 29.1002 41.0503 29.1002 40.5203C29.1002 39.9903 28.6602 39.5503 28.1302 39.5503C27.6002 39.5503 27.1602 39.9903 27.1602 40.5203C27.1602 41.0503 27.6002 41.4903 28.1302 41.4903Z" fill="white"/>
<path d="M19.8684 47.3204C20.4084 47.3204 20.8384 46.8804 20.8384 46.3504C20.8384 45.8204 20.3984 45.3804 19.8684 45.3804C19.3384 45.3804 18.8984 45.8204 18.8984 46.3504C18.8984 46.8804 19.3384 47.3204 19.8684 47.3204Z" fill="white"/>
<path d="M28.6184 45.8702C29.1584 45.8702 29.5884 45.4302 29.5884 44.9002C29.5884 44.3702 29.1484 43.9302 28.6184 43.9302C28.0884 43.9302 27.6484 44.3702 27.6484 44.9002C27.6484 45.4302 28.0884 45.8702 28.6184 45.8702Z" fill="white"/>
<path d="M22.2981 52.6802C22.8381 52.6802 23.2681 52.2402 23.2681 51.7102C23.2681 51.1802 22.8281 50.7402 22.2981 50.7402C21.7681 50.7402 21.3281 51.1802 21.3281 51.7102C21.3281 52.2402 21.7681 52.6802 22.2981 52.6802Z" fill="white"/>
<path d="M30.0794 50.2501C30.6194 50.2501 31.0494 49.8101 31.0494 49.2801C31.0494 48.7501 30.6094 48.3101 30.0794 48.3101C29.5494 48.3101 29.1094 48.7501 29.1094 49.2801C29.1094 49.8101 29.5494 50.2501 30.0794 50.2501Z" fill="white"/>
<path d="M24.48 56.0801C24.88 56.0801 25.21 55.7501 25.21 55.3501C25.21 54.9501 24.88 54.6201 24.48 54.6201C24.08 54.6201 23.75 54.9501 23.75 55.3501C23.75 55.7501 24.08 56.0801 24.48 56.0801Z" fill="white"/>
<path d="M32.2691 54.1304C32.6691 54.1304 32.9991 53.8004 32.9991 53.4004C32.9991 53.0004 32.6691 52.6704 32.2691 52.6704C31.8691 52.6704 31.5391 53.0004 31.5391 53.4004C31.5391 53.8004 31.8691 54.1304 32.2691 54.1304Z" fill="white"/>
<path d="M28.3706 59.9703C28.7706 59.9703 29.1006 59.6403 29.1006 59.2403C29.1006 58.8403 28.7706 58.5103 28.3706 58.5103C27.9706 58.5103 27.6406 58.8403 27.6406 59.2403C27.6406 59.6403 27.9706 59.9703 28.3706 59.9703Z" fill="white"/>
<path d="M35.1909 57.5303C35.5909 57.5303 35.9209 57.2003 35.9209 56.8003C35.9209 56.4003 35.5909 56.0703 35.1909 56.0703C34.7909 56.0703 34.4609 56.4003 34.4609 56.8003C34.4609 57.2003 34.7909 57.5303 35.1909 57.5303Z" fill="white"/>
<path d="M31.7112 61.9201C31.9512 61.9201 32.1412 61.7301 32.1412 61.4901C32.1412 61.2501 31.9512 61.0601 31.7112 61.0601C31.4712 61.0601 31.2812 61.2501 31.2812 61.4901C31.2812 61.7301 31.4712 61.9201 31.7112 61.9201Z" fill="white"/>
<path d="M37.3597 59.7902C37.5997 59.7902 37.7897 59.6002 37.7897 59.3602C37.7897 59.1202 37.5997 58.9302 37.3597 58.9302C37.1197 58.9302 36.9297 59.1202 36.9297 59.3602C36.9297 59.6002 37.1197 59.7902 37.3597 59.7902Z" fill="white"/>
<path d="M109.851 99.3804C130.001 99.3804 146.331 83.0404 146.331 62.8904C146.331 42.7404 130.001 26.4004 109.851 26.4004C89.7011 26.4004 73.3711 42.7404 73.3711 62.8904C73.3711 83.0404 89.7011 99.3804 109.851 99.3804Z" fill="#3C5A70"/>
<path d="M102.55 99.3804C122.7 99.3804 139.03 83.0404 139.03 62.8904C139.03 42.7404 122.7 26.4004 102.55 26.4004C82.4003 26.4004 66.0703 42.7404 66.0703 62.8904C66.0703 83.0404 82.4003 99.3804 102.55 99.3804Z" fill="#D8DEE2"/>
<path d="M103.281 65.8102C105.031 65.8102 106.441 64.3902 106.441 62.6502C106.441 60.9102 105.021 59.4902 103.281 59.4902C101.541 59.4902 100.121 60.9102 100.121 62.6502C100.121 64.3902 101.541 65.8102 103.281 65.8102Z" fill="#3C5A70"/>
<path d="M83.8319 62.9504C86.6819 62.9504 88.9919 60.6404 88.9919 57.7904C88.9919 54.9404 86.6819 52.6304 83.8319 52.6304C80.9819 52.6304 78.6719 54.9404 78.6719 57.7904C78.6719 60.6404 80.9819 62.9504 83.8319 62.9504Z" fill="#3C5A70"/>
<path d="M97.3906 42.6004C97.3906 39.7504 99.7006 37.4404 102.551 37.4404C105.401 37.4404 107.711 39.7504 107.711 42.6004C107.711 45.4504 105.401 47.7604 102.551 47.7604C99.7006 47.7604 97.3906 45.4504 97.3906 42.6004Z" fill="#3C5A70"/>
<path d="M116.852 57.6703C116.852 54.8203 119.162 52.5103 122.012 52.5103C124.862 52.5103 127.172 54.8203 127.172 57.6703C127.172 60.5203 124.862 62.8303 122.012 62.8303C119.162 62.8303 116.852 60.5203 116.852 57.6703Z" fill="#3C5A70"/>
<path d="M87.1797 81.0301C87.1797 78.1801 89.4897 75.8701 92.3397 75.8701C95.1897 75.8701 97.4997 78.1801 97.4997 81.0301C97.4997 83.8801 95.1897 86.1901 92.3397 86.1901C89.4897 86.1901 87.1797 83.8801 87.1797 81.0301Z" fill="#3C5A70"/>
<path d="M107.609 81.0301C107.609 78.1801 109.919 75.8701 112.769 75.8701C115.619 75.8701 117.929 78.1801 117.929 81.0301C117.929 83.8801 115.619 86.1901 112.769 86.1901C109.919 86.1901 107.609 83.8801 107.609 81.0301Z" fill="#3C5A70"/>
<path d="M151.232 94.1501C151.542 93.1301 151.542 91.8701 152.062 90.8801C160.642 93.8501 169.382 96.3601 177.962 99.3301C178.172 99.2501 178.772 98.9401 178.652 98.6601C178.122 97.3901 155.262 91.7001 152.422 90.0101L152.182 88.5601L145.922 86.6101C145.622 88.3501 142.362 85.9701 141.752 86.7801C141.012 87.7601 144.412 88.0901 145.002 88.2801C144.502 89.3001 144.092 90.5401 143.762 91.6301C141.692 91.0101 137.872 90.4001 137.262 87.9401C136.762 85.9201 137.882 83.4001 140.252 83.6801C141.282 83.8001 152.012 86.8301 152.472 87.2801C152.642 87.4501 152.272 87.8301 152.432 88.0501L152.952 87.6301L181.562 96.5301L182.912 96.2701L200.372 40.1201C201.302 40.2001 203.382 40.7301 203.372 41.8401C203.372 42.5601 201.682 47.8001 201.322 49.0501C196.272 67.0401 189.512 84.6401 184.642 102.7C183.972 103.63 183.352 103.98 182.182 104L151.212 94.1701H151.232V94.1501Z" fill="white"/>
<path d="M150.681 95.9402C150.811 95.5802 151.091 94.6202 151.231 94.1602L182.201 103.99C183.371 103.97 183.991 103.64 184.661 102.69C189.531 84.6202 196.301 67.0202 201.341 49.0402C201.691 47.7902 203.381 42.5502 203.391 41.8302C203.411 40.7202 201.321 40.1902 200.391 40.1102L182.931 96.2702L181.581 96.5302L152.971 87.6302L152.451 88.0502C152.301 87.8302 152.661 87.4502 152.491 87.2802C152.041 86.8302 141.311 83.7902 140.271 83.6802C137.891 83.4102 136.781 85.9202 137.281 87.9402C137.891 90.3902 141.711 91.0102 143.781 91.6302C143.531 92.4602 143.041 93.3702 142.991 93.5402C139.071 92.4902 134.501 91.6602 135.181 86.5002L154.021 25.2802C155.381 22.1702 157.861 21.2502 161.121 21.7002L201.711 34.3202C202.451 35.1302 200.801 37.8202 200.961 38.3002C201.121 38.7802 205.281 38.8602 205.001 41.7102L185.431 104.66C184.641 105.49 183.761 106.01 182.551 106.02L150.691 95.9202V95.9402H150.681Z" fill="#98A8B3"/>
<path d="M152.05 90.8803C149.69 90.0603 147.37 89.1003 145.01 88.2903C144.42 88.0903 141.01 87.7703 141.76 86.7903C142.37 85.9803 145.63 88.3503 145.93 86.6203L152.19 88.5703L152.43 90.0203C155.27 91.7103 178.13 97.4003 178.66 98.6703C178.78 98.9503 178.17 99.2503 177.97 99.3403C169.39 96.3703 160.65 93.8503 152.07 90.8903H152.05V90.8803Z" fill="#3C5A70"/>
<path d="M187.701 42.46L162.801 34.91C161.831 34.61 160.801 35.16 160.501 36.14L157.261 46.83C156.971 47.8 157.521 48.83 158.491 49.13L183.391 56.68C184.361 56.98 185.391 56.43 185.691 55.45L188.931 44.76C189.221 43.79 188.671 42.76 187.701 42.46Z" fill="#CED6DB"/>
<path d="M64.9119 70C106.452 87.13 154.472 87.08 196.082 70.22C197.782 113.52 198.922 162.78 158.072 189.99C152.632 193.62 136.802 201.05 130.432 200.91C121.352 200.71 103.632 190.99 96.6519 185.21C61.5119 156.11 64.2519 110.97 64.9219 70H64.9119Z" fill="#8094A2"/>
<path d="M105.311 152.16C107.571 152.14 116.051 155.18 119.501 155.72C131.671 157.65 143.611 156.03 155.331 152.43C152.891 177.54 120.991 184.63 108.581 162.2C107.901 160.95 105.161 153.6 105.081 152.41C105.081 152.29 105.021 152.17 104.961 152.05C105.081 152.11 105.201 152.15 105.311 152.15V152.16Z" fill="white"/>
<path d="M99.7117 105.76C110.802 104.32 120.582 112.93 121.092 124.1L82.2617 124.32C84.2717 114.65 89.2517 107.12 99.7017 105.76H99.7117Z" fill="white"/>
<path d="M157.031 105.76C168.161 104.29 177.751 113.11 178.331 124.1L139.871 124.33C140.831 114.59 147.111 107.08 157.021 105.76H157.031Z" fill="white"/>
</g>
</svg>
